<svg width="2218" height="2034" viewBox="0 0 2218 2034" fill="none" xmlns="http://www.w3.org/2000/svg">
<rect width="2218" height="2034" fill="#222020"/>
<g filter="url(#filter0_d)">
<path d="M948.555 642.457C963.627 613 993.773 554.083 1007.25 523.041C1020.72 492 1017.51 488.827 1014.66 484.749C1011.82 480.671 1009.35 475.686 1007.86 468.207C1006.38 460.728 1005.88 450.758 1009.96 441.688C1014.04 432.619 1022.69 424.461 1031.71 420.155C1040.74 415.85 1050.13 415.396 1058.53 416.532C1066.93 417.668 1074.34 420.387 1081.51 423.788C1088.68 427.188 1095.6 431.267 1099.79 436.254C1103.99 441.242 1105.47 447.133 1105.84 452.344C1106.21 457.554 1105.47 462.086 1105.09 465.939C1104.72 469.792 1104.72 472.965 1107.08 475.682C1109.43 478.399 1114.13 480.665 1143.53 501.288C1172.94 521.911 1227.05 560.886 1255.22 579.236C1283.38 597.587 1285.6 595.321 1288.7 593.281C1291.79 591.24 1295.74 589.427 1302.66 588.522C1309.58 587.616 1319.47 587.616 1328.37 588.297C1337.26 588.978 1345.17 590.338 1350.85 592.381C1356.54 594.424 1359.99 597.143 1363.95 600.769C1367.9 604.396 1372.35 608.928 1375.93 614.367C1379.51 619.806 1382.23 626.151 1383.58 631.815C1384.94 637.479 1384.94 642.465 1384.82 647.223C1384.69 651.982 1384.44 656.514 1387.79 660.364C1391.13 664.215 1398.05 667.387 1428.07 683.25C1458.1 699.113 1511.22 727.665 1539.52 742.62C1567.81 757.575 1571.27 758.934 1575.71 757.119C1580.15 755.303 1585.59 750.318 1608.69 731.736C1631.8 713.154 1672.57 680.976 1693.2 661.04C1713.83 641.104 1714.33 633.4 1715.32 626.374C1716.3 619.348 1717.79 613.004 1720.63 606.203C1723.47 599.403 1727.67 592.152 1734.84 586.257C1742.01 580.363 1752.14 575.831 1762.77 573.339C1773.4 570.847 1784.52 570.394 1794.15 571.529C1803.79 572.665 1811.95 575.384 1818.5 578.559C1825.04 581.733 1829.99 585.359 1835.05 590.346C1840.11 595.332 1845.3 601.677 1847.77 608.701C1850.23 615.725 1849.99 623.43 1849.25 630.453C1848.5 637.477 1847.27 643.822 1845.41 649.486C1843.56 655.149 1841.09 660.134 1837.63 664.21C1834.17 668.286 1829.73 671.459 1823.3 675.084C1816.88 678.709 1808.48 682.788 1800.33 684.602C1792.18 686.416 1784.27 685.963 1776.36 685.51C1768.46 685.057 1760.55 684.604 1756.1 683.703C1751.65 682.802 1750.66 681.442 1750.16 681.215C1749.66 680.987 1749.66 681.894 1727.05 700.244C1704.44 718.594 1659.23 754.396 1636.86 773.89C1614.5 793.384 1615 796.557 1617.84 801.316C1620.69 806.074 1625.88 812.419 1650.83 844.371C1675.79 876.323 1720.52 933.879 1744.86 962.652C1769.2 991.425 1773.15 991.425 1778.34 992.56C1783.53 993.696 1789.96 995.962 1794.4 998.911C1798.85 1001.86 1801.32 1005.49 1804.04 1009.11C1806.76 1012.74 1809.72 1016.36 1810.95 1020.67C1812.18 1024.97 1811.69 1029.96 1811.07 1034.49C1810.45 1039.02 1809.71 1043.1 1807.86 1046.95C1806 1050.8 1803.04 1054.42 1799.09 1057.37C1795.14 1060.31 1790.19 1062.58 1785.5 1064.39C1780.81 1066.2 1776.36 1067.56 1771.91 1068.47C1767.47 1069.38 1763.02 1069.83 1758.08 1068.93C1753.14 1068.02 1747.7 1065.76 1743.25 1062.81C1738.8 1059.87 1735.34 1056.24 1732.38 1052.85C1729.41 1049.45 1726.94 1046.27 1726.07 1042.19C1725.2 1038.11 1725.94 1033.13 1726.31 1029.28C1726.68 1025.43 1726.68 1022.71 1699.88 986.903C1673.07 951.1 1619.45 882.213 1590.66 845.956C1561.88 809.699 1557.92 806.073 1549.77 801.086C1541.62 796.099 1529.26 789.754 1499.11 772.759C1468.97 755.763 1421.03 728.118 1395.33 712.711C1369.63 697.303 1366.17 694.13 1363.94 693.447C1361.71 692.765 1360.72 694.577 1359.73 696.39C1358.74 698.203 1357.76 700.016 1356.28 701.146C1354.8 702.276 1352.82 702.729 1350.36 702.731C1347.89 702.733 1344.92 702.28 1343.8 705.004C1342.69 707.728 1343.43 713.619 1343.92 753.955C1344.42 794.291 1344.66 869.069 1346.27 906.909C1347.89 944.749 1350.85 945.655 1355.42 947.015C1360 948.374 1366.17 950.187 1371.73 953.136C1377.29 956.084 1382.23 960.163 1387.05 964.696C1391.87 969.229 1396.56 974.214 1400.14 979.427C1403.73 984.639 1406.2 990.078 1408.67 996.649C1411.14 1003.22 1413.61 1010.93 1414.84 1016.82C1416.07 1022.71 1416.07 1026.79 1415.7 1031.77C1415.33 1036.75 1414.59 1042.65 1413.73 1048.76C1412.86 1054.88 1411.87 1061.23 1410.14 1065.53C1408.41 1069.83 1405.94 1072.1 1406.32 1074.37C1406.7 1076.64 1409.91 1078.9 1425.6 1091.37C1441.29 1103.83 1469.46 1126.49 1486.02 1137.36C1502.57 1148.23 1507.51 1147.33 1514.68 1147.33C1521.85 1147.33 1531.24 1148.24 1540.13 1150.5C1549.03 1152.77 1557.43 1156.4 1564.1 1160.48C1570.77 1164.56 1575.72 1169.09 1579.17 1175.89C1582.63 1182.69 1584.6 1191.75 1585.22 1198.32C1585.83 1204.89 1585.09 1208.97 1584.23 1213.05C1583.36 1217.13 1582.37 1221.21 1580.15 1225.51C1577.93 1229.81 1574.47 1234.35 1569.53 1238.42C1564.59 1242.5 1558.16 1246.13 1552.48 1248.85C1546.8 1251.56 1541.86 1253.38 1536.18 1253.83C1530.5 1254.29 1524.07 1253.38 1517.89 1252.02C1511.72 1250.66 1505.79 1248.85 1501.09 1246.14C1496.39 1243.42 1492.93 1239.79 1489.97 1236.17C1487 1232.54 1484.53 1228.92 1482.55 1224.61C1480.57 1220.31 1479.09 1215.32 1478.59 1210.56C1478.1 1205.8 1478.59 1201.27 1477.85 1197.42C1477.12 1193.57 1475.14 1190.4 1458.34 1175.66C1441.54 1160.93 1409.91 1134.65 1392.86 1121.5C1375.81 1108.35 1373.34 1108.35 1370.37 1108.81C1367.4 1109.26 1363.94 1110.16 1359 1111.98C1354.06 1113.79 1347.63 1116.51 1340.22 1118.55C1332.81 1120.59 1324.41 1121.95 1315.02 1122.63C1305.63 1123.31 1295.25 1123.31 1285.86 1121.5C1276.47 1119.69 1268.07 1116.06 1262.14 1111.99C1256.21 1107.91 1252.75 1103.38 1249.53 1097.94C1246.32 1092.5 1243.36 1086.16 1239.53 1083.43C1235.7 1080.71 1231 1081.61 1192.7 1091.58C1154.4 1101.55 1082.49 1120.59 1045.3 1131.92C1008.11 1143.25 1005.63 1146.88 1002.42 1151.64C999.21 1156.4 995.256 1162.29 990.562 1167.95C985.868 1173.62 980.431 1179.05 974.996 1184.04C969.56 1189.02 964.124 1193.56 957.703 1196.5C951.282 1199.45 943.869 1200.81 935.221 1201.71C926.574 1202.62 916.69 1203.07 908.537 1201.72C900.384 1200.36 893.959 1197.19 886.793 1193.34C879.627 1189.48 871.719 1184.95 865.787 1179.97C859.854 1174.99 855.9 1169.55 853.18 1164.56C850.459 1159.58 848.977 1155.05 847.74 1148.02C846.503 1140.99 845.515 1131.48 846.131 1124.9C846.747 1118.33 848.971 1114.7 834.399 1102.01C819.826 1089.33 788.445 1067.57 771.394 1055.34C754.343 1043.1 751.625 1040.38 747.42 1040.6C743.216 1040.82 737.532 1044 731.23 1048.07C724.928 1052.15 718.01 1057.14 707.141 1060.31C696.273 1063.48 681.447 1064.84 667.611 1063.49C653.774 1062.13 640.925 1058.05 634.746 1056.24C628.568 1054.43 629.062 1054.88 615.769 1074.26C602.477 1093.64 575.411 1131.94 562.844 1152.54C550.277 1173.15 552.199 1176.03 553.857 1179.39C555.515 1182.76 556.913 1186.61 557.609 1190.61C558.306 1194.61 558.306 1198.78 556.995 1203.42C555.683 1208.07 553.062 1213.2 549.83 1218C546.598 1222.81 542.754 1227.29 538.039 1230.98C533.324 1234.66 527.732 1237.55 522.665 1240.11C517.598 1242.67 513.055 1244.92 507.468 1246.04C501.88 1247.16 495.24 1247.16 488.951 1245.24C482.661 1243.32 476.721 1239.48 471.479 1235.95C466.236 1232.43 461.694 1229.22 458.544 1225.06C455.395 1220.89 453.648 1215.77 452.685 1210.96C451.722 1206.15 451.547 1201.67 451.809 1196.7C452.07 1191.73 452.769 1186.28 454.865 1181.15C456.962 1176.02 460.456 1171.21 464.913 1166.4C469.37 1161.6 474.786 1156.79 479.859 1154.71C484.933 1152.63 489.65 1153.27 494.629 1153.26C499.607 1153.26 504.849 1152.62 521.792 1132.75C538.735 1112.89 567.39 1073.79 580.064 1052.64C592.738 1031.5 589.419 1028.29 586.011 1024.77C582.603 1021.24 579.109 1017.4 575.265 1013.55C571.422 1009.71 567.228 1005.86 564.777 1000.25C562.326 994.644 561.627 987.273 561.888 980.542C562.149 973.811 563.372 967.722 563.984 962.756C564.596 957.79 564.596 953.944 563.117 951.059C561.638 948.174 558.668 946.251 531.148 934.552C503.628 922.854 451.56 901.383 424.471 891.606C397.381 881.829 395.284 883.752 392.489 885.995C389.694 888.237 386.2 890.801 381.31 893.044C376.42 895.287 370.13 897.209 364.016 898.492C357.902 899.774 351.961 900.415 346.022 900.576C340.082 900.737 334.141 900.417 329.075 899.138C324.008 897.859 319.815 895.616 315.446 892.573C311.077 889.53 306.534 885.684 302.514 881.839C298.495 877.994 295 874.149 292.376 869.182C289.752 864.215 288.005 858.126 287.129 850.755C286.254 843.383 286.254 834.731 287.214 827.998C288.173 821.266 290.095 816.459 292.979 811.17C295.862 805.881 299.706 800.113 305.125 795.143C310.544 790.174 317.533 786.008 323.126 783.284C328.719 780.559 332.913 779.278 339.03 778.477C345.148 777.677 353.185 777.356 360.875 777.999C368.564 778.642 375.902 780.244 382.193 782.65C388.483 785.056 393.724 788.261 397.915 792.269C402.107 796.276 405.252 801.083 407.96 805.249C410.668 809.416 412.94 812.941 413.896 817.106C414.853 821.27 414.504 826.077 414.329 829.603C414.155 833.128 414.155 835.371 417.219 837.773C420.284 840.174 426.399 842.738 433.301 845.461C440.203 848.185 447.891 851.069 457.85 854.915C467.81 858.761 480.041 863.568 500.659 872.541C521.277 881.515 550.282 894.654 565.301 900.101C580.319 905.549 581.368 903.305 585.387 898.496C589.407 893.687 596.396 886.316 603.212 880.387C610.028 874.457 616.667 869.971 624.707 865.964C632.746 861.958 642.181 858.433 653.017 856.832C663.853 855.231 676.084 855.551 686.918 856.674C697.752 857.797 707.187 859.719 715.225 862.285C723.263 864.851 729.902 868.055 734.096 870.139C738.289 872.222 740.037 873.184 742.038 871.9C744.04 870.616 746.312 867.091 765.271 849.463C784.231 831.835 819.875 800.11 838.395 783.446C856.916 766.783 858.314 765.18 856.572 761.98C854.831 758.78 849.938 753.973 846.44 748.045C842.942 742.117 840.845 735.067 841.105 728.334C841.364 721.601 843.985 715.192 845.645 711.346C847.304 707.499 848.003 706.217 847.574 705.097C847.145 703.978 845.572 703.016 811.675 688.274C777.777 673.531 711.556 645.01 677.651 631.708C643.747 618.407 642.174 620.33 639.641 622.893C637.108 625.456 633.614 628.66 629.771 631.544C625.928 634.427 621.735 636.991 616.145 639.394C610.556 641.797 603.567 644.041 596.055 645.483C588.544 646.926 580.506 647.567 572.47 647.248C564.434 646.929 556.396 645.647 550.281 643.407C544.165 641.167 539.971 637.963 535.776 633.798C531.582 629.633 527.388 624.506 523.893 619.859C520.398 615.212 517.602 611.046 515.155 606.881C512.708 602.715 510.611 598.549 508.687 592.299C506.763 586.05 505.016 577.718 504.403 570.506C503.79 563.294 504.314 557.205 506.497 550.953C508.681 544.701 512.525 538.292 516.895 533.162C521.264 528.033 526.157 524.187 532.972 519.86C539.788 515.534 548.524 510.727 556.389 507.522C564.255 504.317 571.244 502.715 578.409 501.754C585.574 500.793 592.913 500.473 601.214 501.276C609.514 502.079 618.775 504.001 625.414 506.568C632.053 509.136 636.072 512.34 640.527 516.186C644.982 520.032 649.875 524.519 653.892 529.327C657.909 534.135 661.054 539.262 662.973 543.748C664.892 548.235 665.591 552.08 666.027 556.887C666.463 561.693 666.638 567.462 666.026 570.981C665.414 574.501 664.017 575.783 667.78 578.029C671.544 580.275 680.455 583.479 716.362 600.305C752.269 617.13 815.17 647.574 847.575 661.352C879.979 675.131 881.901 672.247 884.176 670.161C886.45 668.076 889.071 666.794 893.354 665.672C897.638 664.551 903.578 663.59 908.298 663.431C913.018 663.273 916.512 663.914 920.508 665.464C924.503 667.013 928.999 669.467 931.241 670.69C933.482 671.913 933.482 671.913 948.555 642.457L948.555 642.457Z" fill="url(#paint0_linear)"/>
<path d="M948.555 642.457C963.627 613 993.773 554.083 1007.25 523.041C1020.72 492 1017.51 488.827 1014.66 484.749C1011.82 480.671 1009.35 475.686 1007.86 468.207C1006.38 460.728 1005.88 450.758 1009.96 441.688C1014.04 432.619 1022.69 424.461 1031.71 420.155C1040.74 415.85 1050.13 415.396 1058.53 416.532C1066.93 417.668 1074.34 420.387 1081.51 423.788C1088.68 427.188 1095.6 431.267 1099.79 436.254C1103.99 441.242 1105.47 447.133 1105.84 452.344C1106.21 457.554 1105.47 462.086 1105.09 465.939C1104.72 469.792 1104.72 472.965 1107.08 475.682C1109.43 478.399 1114.13 480.665 1143.53 501.288C1172.94 521.911 1227.05 560.886 1255.22 579.236C1283.38 597.587 1285.6 595.321 1288.7 593.281C1291.79 591.24 1295.74 589.427 1302.66 588.522C1309.58 587.616 1319.47 587.616 1328.37 588.297C1337.26 588.978 1345.17 590.338 1350.85 592.381C1356.54 594.424 1359.99 597.143 1363.95 600.769C1367.9 604.396 1372.35 608.928 1375.93 614.367C1379.51 619.806 1382.23 626.151 1383.58 631.815C1384.94 637.479 1384.94 642.465 1384.82 647.223C1384.69 651.982 1384.44 656.514 1387.79 660.364C1391.13 664.215 1398.05 667.387 1428.07 683.25C1458.1 699.113 1511.22 727.665 1539.52 742.62C1567.81 757.575 1571.27 758.934 1575.71 757.119C1580.15 755.303 1585.59 750.318 1608.69 731.736C1631.8 713.154 1672.57 680.976 1693.2 661.04C1713.83 641.104 1714.33 633.4 1715.32 626.374C1716.3 619.348 1717.79 613.004 1720.63 606.203C1723.47 599.403 1727.67 592.152 1734.84 586.257C1742.01 580.363 1752.14 575.831 1762.77 573.339C1773.4 570.847 1784.52 570.394 1794.15 571.529C1803.79 572.665 1811.95 575.384 1818.5 578.559C1825.04 581.733 1829.99 585.359 1835.05 590.346C1840.11 595.332 1845.3 601.677 1847.77 608.701C1850.23 615.725 1849.99 623.43 1849.25 630.453C1848.5 637.477 1847.27 643.822 1845.41 649.486C1843.56 655.149 1841.09 660.134 1837.63 664.21C1834.17 668.286 1829.73 671.459 1823.3 675.084C1816.88 678.709 1808.48 682.788 1800.33 684.602C1792.18 686.416 1784.27 685.963 1776.36 685.51C1768.46 685.057 1760.55 684.604 1756.1 683.703C1751.65 682.802 1750.66 681.442 1750.16 681.215C1749.66 680.987 1749.66 681.894 1727.05 700.244C1704.44 718.594 1659.23 754.396 1636.86 773.89C1614.5 793.384 1615 796.557 1617.84 801.316C1620.69 806.074 1625.88 812.419 1650.83 844.371C1675.79 876.323 1720.52 933.879 1744.86 962.652C1769.2 991.425 1773.15 991.425 1778.34 992.56C1783.53 993.696 1789.96 995.962 1794.4 998.911C1798.85 1001.86 1801.32 1005.49 1804.04 1009.11C1806.76 1012.74 1809.72 1016.36 1810.95 1020.67C1812.18 1024.97 1811.69 1029.96 1811.07 1034.49C1810.45 1039.02 1809.71 1043.1 1807.86 1046.95C1806 1050.8 1803.04 1054.42 1799.09 1057.37C1795.14 1060.31 1790.19 1062.58 1785.5 1064.39C1780.81 1066.2 1776.36 1067.56 1771.91 1068.47C1767.47 1069.38 1763.02 1069.83 1758.08 1068.93C1753.14 1068.02 1747.7 1065.76 1743.25 1062.81C1738.8 1059.87 1735.34 1056.24 1732.38 1052.85C1729.41 1049.45 1726.94 1046.27 1726.07 1042.19C1725.2 1038.11 1725.94 1033.13 1726.31 1029.28C1726.68 1025.43 1726.68 1022.71 1699.88 986.903C1673.07 951.1 1619.45 882.213 1590.66 845.956C1561.88 809.699 1557.92 806.073 1549.77 801.086C1541.62 796.099 1529.26 789.754 1499.11 772.759C1468.97 755.763 1421.03 728.118 1395.33 712.711C1369.63 697.303 1366.17 694.13 1363.94 693.447C1361.71 692.765 1360.72 694.577 1359.73 696.39C1358.74 698.203 1357.76 700.016 1356.28 701.146C1354.8 702.276 1352.82 702.729 1350.36 702.731C1347.89 702.733 1344.92 702.28 1343.8 705.004C1342.69 707.728 1343.43 713.619 1343.92 753.955C1344.42 794.291 1344.66 869.069 1346.27 906.909C1347.89 944.749 1350.85 945.655 1355.42 947.015C1360 948.374 1366.17 950.187 1371.73 953.136C1377.29 956.084 1382.23 960.163 1387.05 964.696C1391.87 969.229 1396.56 974.214 1400.14 979.427C1403.73 984.639 1406.2 990.078 1408.67 996.649C1411.14 1003.22 1413.61 1010.93 1414.84 1016.82C1416.07 1022.71 1416.07 1026.79 1415.7 1031.77C1415.33 1036.75 1414.59 1042.65 1413.73 1048.76C1412.86 1054.88 1411.87 1061.23 1410.14 1065.53C1408.41 1069.83 1405.94 1072.1 1406.32 1074.37C1406.7 1076.64 1409.91 1078.9 1425.6 1091.37C1441.29 1103.83 1469.46 1126.49 1486.02 1137.36C1502.57 1148.23 1507.51 1147.33 1514.68 1147.33C1521.85 1147.33 1531.24 1148.24 1540.13 1150.5C1549.03 1152.77 1557.43 1156.4 1564.1 1160.48C1570.77 1164.56 1575.72 1169.09 1579.17 1175.89C1582.63 1182.69 1584.6 1191.75 1585.22 1198.32C1585.83 1204.89 1585.09 1208.97 1584.23 1213.05C1583.36 1217.13 1582.37 1221.21 1580.15 1225.51C1577.93 1229.81 1574.47 1234.35 1569.53 1238.42C1564.59 1242.5 1558.16 1246.13 1552.48 1248.85C1546.8 1251.56 1541.86 1253.38 1536.18 1253.83C1530.5 1254.29 1524.07 1253.38 1517.89 1252.02C1511.72 1250.66 1505.79 1248.85 1501.09 1246.14C1496.39 1243.42 1492.93 1239.79 1489.97 1236.17C1487 1232.54 1484.53 1228.92 1482.55 1224.61C1480.57 1220.31 1479.09 1215.32 1478.59 1210.56C1478.1 1205.8 1478.59 1201.27 1477.85 1197.42C1477.12 1193.57 1475.14 1190.4 1458.34 1175.66C1441.54 1160.93 1409.91 1134.65 1392.86 1121.5C1375.81 1108.35 1373.34 1108.35 1370.37 1108.81C1367.4 1109.26 1363.94 1110.16 1359 1111.98C1354.06 1113.79 1347.63 1116.51 1340.22 1118.55C1332.81 1120.59 1324.41 1121.95 1315.02 1122.63C1305.63 1123.31 1295.25 1123.31 1285.86 1121.5C1276.47 1119.69 1268.07 1116.06 1262.14 1111.99C1256.21 1107.91 1252.75 1103.38 1249.53 1097.94C1246.32 1092.5 1243.36 1086.16 1239.53 1083.43C1235.7 1080.71 1231 1081.61 1192.7 1091.58C1154.4 1101.55 1082.49 1120.59 1045.3 1131.92C1008.11 1143.25 1005.63 1146.88 1002.42 1151.64C999.21 1156.4 995.256 1162.29 990.562 1167.95C985.868 1173.62 980.431 1179.05 974.996 1184.04C969.56 1189.02 964.124 1193.56 957.703 1196.5C951.282 1199.45 943.869 1200.81 935.221 1201.71C926.574 1202.62 916.69 1203.07 908.537 1201.72C900.384 1200.36 893.959 1197.19 886.793 1193.34C879.627 1189.48 871.719 1184.95 865.787 1179.97C859.854 1174.99 855.9 1169.55 853.18 1164.56C850.459 1159.58 848.977 1155.05 847.74 1148.02C846.503 1140.99 845.515 1131.48 846.131 1124.9C846.747 1118.33 848.971 1114.7 834.399 1102.01C819.826 1089.33 788.445 1067.57 771.394 1055.34C754.343 1043.1 751.625 1040.38 747.42 1040.6C743.216 1040.82 737.532 1044 731.23 1048.07C724.928 1052.15 718.01 1057.14 707.141 1060.31C696.273 1063.48 681.447 1064.84 667.611 1063.49C653.774 1062.13 640.925 1058.05 634.746 1056.24C628.568 1054.43 629.062 1054.88 615.769 1074.26C602.477 1093.64 575.411 1131.94 562.844 1152.54C550.277 1173.15 552.199 1176.03 553.857 1179.39C555.515 1182.76 556.913 1186.61 557.609 1190.61C558.306 1194.61 558.306 1198.78 556.995 1203.42C555.683 1208.07 553.062 1213.2 549.83 1218C546.598 1222.81 542.754 1227.29 538.039 1230.98C533.324 1234.66 527.732 1237.55 522.665 1240.11C517.598 1242.67 513.055 1244.92 507.468 1246.04C501.88 1247.16 495.24 1247.16 488.951 1245.24C482.661 1243.32 476.721 1239.48 471.479 1235.95C466.236 1232.43 461.694 1229.22 458.544 1225.06C455.395 1220.89 453.648 1215.77 452.685 1210.96C451.722 1206.15 451.547 1201.67 451.809 1196.7C452.07 1191.73 452.769 1186.28 454.865 1181.15C456.962 1176.02 460.456 1171.21 464.913 1166.4C469.37 1161.6 474.786 1156.79 479.859 1154.71C484.933 1152.63 489.65 1153.27 494.629 1153.26C499.607 1153.26 504.849 1152.62 521.792 1132.75C538.735 1112.89 567.39 1073.79 580.064 1052.64C592.738 1031.5 589.419 1028.29 586.011 1024.77C582.603 1021.24 579.109 1017.4 575.265 1013.55C571.422 1009.71 567.228 1005.86 564.777 1000.25C562.326 994.644 561.627 987.273 561.888 980.542C562.149 973.811 563.372 967.722 563.984 962.756C564.596 957.79 564.596 953.944 563.117 951.059C561.638 948.174 558.668 946.251 531.148 934.552C503.628 922.854 451.56 901.383 424.471 891.606C397.381 881.829 395.284 883.752 392.489 885.995C389.694 888.237 386.2 890.801 381.31 893.044C376.42 895.287 370.13 897.209 364.016 898.492C357.902 899.774 351.961 900.415 346.022 900.576C340.082 900.737 334.141 900.417 329.075 899.138C324.008 897.859 319.815 895.616 315.446 892.573C311.077 889.53 306.534 885.684 302.514 881.839C298.495 877.994 295 874.149 292.376 869.182C289.752 864.215 288.005 858.126 287.129 850.755C286.254 843.383 286.254 834.731 287.214 827.998C288.173 821.266 290.095 816.459 292.979 811.17C295.862 805.881 299.706 800.113 305.125 795.143C310.544 790.174 317.533 786.008 323.126 783.284C328.719 780.559 332.913 779.278 339.03 778.477C345.148 777.677 353.185 777.356 360.875 777.999C368.564 778.642 375.902 780.244 382.193 782.65C388.483 785.056 393.724 788.261 397.915 792.269C402.107 796.276 405.252 801.083 407.96 805.249C410.668 809.416 412.94 812.941 413.896 817.106C414.853 821.27 414.504 826.077 414.329 829.603C414.155 833.128 414.155 835.371 417.219 837.773C420.284 840.174 426.399 842.738 433.301 845.461C440.203 848.185 447.891 851.069 457.85 854.915C467.81 858.761 480.041 863.568 500.659 872.541C521.277 881.515 550.282 894.654 565.301 900.101C580.319 905.549 581.368 903.305 585.387 898.496C589.407 893.687 596.396 886.316 603.212 880.387C610.028 874.457 616.667 869.971 624.707 865.964C632.746 861.958 642.181 858.433 653.017 856.832C663.853 855.231 676.084 855.551 686.918 856.674C697.752 857.797 707.187 859.719 715.225 862.285C723.263 864.851 729.902 868.055 734.096 870.139C738.289 872.222 740.037 873.184 742.038 871.9C744.04 870.616 746.312 867.091 765.271 849.463C784.231 831.835 819.875 800.11 838.395 783.446C856.916 766.783 858.314 765.18 856.572 761.98C854.831 758.78 849.938 753.973 846.44 748.045C842.942 742.117 840.845 735.067 841.105 728.334C841.364 721.601 843.985 715.192 845.645 711.346C847.304 707.499 848.003 706.217 847.574 705.097C847.145 703.978 845.572 703.016 811.675 688.274C777.777 673.531 711.556 645.01 677.651 631.708C643.747 618.407 642.174 620.33 639.641 622.893C637.108 625.456 633.614 628.66 629.771 631.544C625.928 634.427 621.735 636.991 616.145 639.394C610.556 641.797 603.567 644.041 596.055 645.483C588.544 646.926 580.506 647.567 572.47 647.248C564.434 646.929 556.396 645.647 550.281 643.407C544.165 641.167 539.971 637.963 535.776 633.798C531.582 629.633 527.388 624.506 523.893 619.859C520.398 615.212 517.602 611.046 515.155 606.881C512.708 602.715 510.611 598.549 508.687 592.299C506.763 586.05 505.016 577.718 504.403 570.506C503.79 563.294 504.314 557.205 506.497 550.953C508.681 544.701 512.525 538.292 516.895 533.162C521.264 528.033 526.157 524.187 532.972 519.86C539.788 515.534 548.524 510.727 556.389 507.522C564.255 504.317 571.244 502.715 578.409 501.754C585.574 500.793 592.913 500.473 601.214 501.276C609.514 502.079 618.775 504.001 625.414 506.568C632.053 509.136 636.072 512.34 640.527 516.186C644.982 520.032 649.875 524.519 653.892 529.327C657.909 534.135 661.054 539.262 662.973 543.748C664.892 548.235 665.591 552.08 666.027 556.887C666.463 561.693 666.638 567.462 666.026 570.981C665.414 574.501 664.017 575.783 667.78 578.029C671.544 580.275 680.455 583.479 716.362 600.305C752.269 617.13 815.17 647.574 847.575 661.352C879.979 675.131 881.901 672.247 884.176 670.161C886.45 668.076 889.071 666.794 893.354 665.672C897.638 664.551 903.578 663.59 908.298 663.431C913.018 663.273 916.512 663.914 920.508 665.464C924.503 667.013 928.999 669.467 931.241 670.69C933.482 671.913 933.482 671.913 948.555 642.457L948.555 642.457Z" stroke="black" stroke-width="10"/>
</g>
<g filter="url(#filter1_i)">
<path d="M1190.09 1032.91C1223.82 1020.91 1223.82 1015.92 1224.31 1010.71C1224.81 1005.5 1225.79 1000.06 1228.51 994.843C1231.23 989.627 1235.68 984.642 1239.14 981.695C1242.6 978.747 1245.07 977.841 1245.2 976.035C1245.33 974.229 1243.1 971.509 1200.97 935.025C1158.84 898.54 1076.8 828.294 1035.04 793.165C993.282 758.037 991.799 758.037 990.557 758.945C989.315 759.854 988.327 761.666 987.091 764.16C985.855 766.653 984.373 769.825 980.918 772.314C977.462 774.803 972.026 776.616 967.329 778.883C962.632 781.149 958.678 783.868 953.739 786.134C948.799 788.4 942.869 790.213 935.211 790.215C927.554 790.217 918.164 788.404 910.998 785.462C903.831 782.52 898.889 778.441 895.917 777.078C892.945 775.714 891.957 777.074 871.2 796.788C850.444 816.502 809.92 854.57 791.764 875.196C773.608 895.821 777.809 898.994 780.648 901.714C783.488 904.435 784.971 906.701 786.948 909.42C788.925 912.139 791.396 915.312 792.627 920.523C793.859 925.734 793.858 932.985 794.23 938.425C794.602 943.864 795.343 947.49 795.218 952.247C795.093 957.004 794.104 962.895 793.363 968.561C792.622 974.227 792.128 979.665 791.139 983.741C790.15 987.818 788.667 990.537 786.939 992.574C785.212 994.61 783.235 995.97 783.363 997.789C783.491 999.608 785.715 1001.87 802.272 1012.52C818.829 1023.17 849.717 1042.21 867.502 1049.91C885.288 1057.61 889.983 1053.98 895.298 1051.26C900.614 1048.54 906.544 1046.73 912.723 1045.37C918.902 1044.01 925.327 1043.1 932.494 1043.1C939.662 1043.11 947.569 1044.01 954.736 1046.05C961.902 1048.1 968.327 1051.27 974.504 1055.12C980.681 1058.98 986.611 1063.51 991.798 1069.4C996.985 1075.29 1001.43 1082.55 1006.25 1085.03C1011.07 1087.52 1016.26 1085.25 1052.58 1074.6C1088.91 1063.95 1156.37 1044.92 1190.09 1032.91Z" fill="#222020"/>
</g>
<path d="M1190.09 1032.91C1223.82 1020.91 1223.82 1015.92 1224.31 1010.71C1224.81 1005.5 1225.79 1000.06 1228.51 994.843C1231.23 989.627 1235.68 984.642 1239.14 981.695C1242.6 978.747 1245.07 977.841 1245.2 976.035C1245.33 974.229 1243.1 971.509 1200.97 935.025C1158.84 898.54 1076.8 828.294 1035.04 793.165C993.282 758.037 991.799 758.037 990.557 758.945C989.315 759.854 988.327 761.666 987.091 764.16C985.855 766.653 984.373 769.825 980.918 772.314C977.462 774.803 972.026 776.616 967.329 778.883C962.632 781.149 958.678 783.868 953.739 786.134C948.799 788.4 942.869 790.213 935.211 790.215C927.554 790.217 918.164 788.404 910.998 785.462C903.831 782.52 898.889 778.441 895.917 777.078C892.945 775.714 891.957 777.074 871.2 796.788C850.444 816.502 809.92 854.57 791.764 875.196C773.608 895.821 777.809 898.994 780.648 901.714C783.488 904.435 784.971 906.701 786.948 909.42C788.925 912.139 791.396 915.312 792.627 920.523C793.859 925.734 793.858 932.985 794.23 938.425C794.602 943.864 795.343 947.49 795.218 952.247C795.093 957.004 794.104 962.895 793.363 968.561C792.622 974.227 792.128 979.665 791.139 983.741C790.15 987.818 788.667 990.537 786.939 992.574C785.212 994.61 783.235 995.97 783.363 997.789C783.491 999.608 785.715 1001.87 802.272 1012.52C818.829 1023.17 849.717 1042.21 867.502 1049.91C885.288 1057.61 889.983 1053.98 895.298 1051.26C900.614 1048.54 906.544 1046.73 912.723 1045.37C918.902 1044.01 925.327 1043.1 932.494 1043.1C939.662 1043.11 947.569 1044.01 954.736 1046.05C961.902 1048.1 968.327 1051.27 974.504 1055.12C980.681 1058.98 986.611 1063.51 991.798 1069.4C996.985 1075.29 1001.43 1082.55 1006.25 1085.03C1011.07 1087.52 1016.26 1085.25 1052.58 1074.6C1088.91 1063.95 1156.37 1044.92 1190.09 1032.91Z" stroke="black" stroke-width="10"/>
<g filter="url(#filter2_i)">
<path d="M1236.51 908.591C1281.67 941.275 1283.25 939.672 1285.26 938.549C1287.27 937.427 1289.72 936.786 1292.34 936.627C1294.97 936.469 1297.76 936.789 1299.07 931.345C1300.37 925.902 1300.2 914.686 1300.2 874.787C1300.2 834.888 1300.37 766.309 1299.5 731.855C1298.64 697.401 1296.72 697.08 1293.66 695.961C1290.6 694.841 1286.41 692.918 1281.86 690.036C1277.32 687.153 1272.43 683.308 1268.23 678.822C1264.04 674.337 1260.54 669.21 1258.44 665.204C1256.34 661.198 1255.64 658.314 1255.29 654.307C1254.94 650.3 1254.94 645.173 1255.38 641.645C1255.82 638.117 1256.69 636.195 1257.48 634.432C1258.26 632.67 1258.96 631.067 1230.93 606.393C1202.89 581.719 1146.1 533.97 1117 511.053C1087.9 488.136 1086.51 490.059 1084.24 491.82C1081.97 493.58 1078.82 495.182 1074.98 495.984C1071.14 496.787 1066.6 496.786 1063.36 499.033C1060.12 501.279 1058.2 505.765 1043.52 535.248C1028.84 564.731 1001.41 619.209 989.539 647.412C977.665 675.614 981.335 677.537 984.39 680.103C987.446 682.669 989.892 685.874 992.512 689.88C995.132 693.886 997.928 698.693 1000.2 703.66C1002.47 708.627 1004.22 713.755 1004.82 718.4C1005.43 723.045 1004.91 727.211 1006.22 731.058C1007.54 734.905 1010.69 738.43 1056.64 773.681C1102.6 808.932 1191.36 875.908 1236.52 908.591H1236.51Z" fill="#222020"/>
</g>
<path d="M1236.51 908.591C1281.67 941.275 1283.25 939.672 1285.26 938.549C1287.27 937.427 1289.72 936.786 1292.34 936.627C1294.97 936.469 1297.76 936.789 1299.07 931.345C1300.37 925.902 1300.2 914.686 1300.2 874.787C1300.2 834.888 1300.37 766.309 1299.5 731.855C1298.64 697.401 1296.72 697.08 1293.66 695.961C1290.6 694.841 1286.41 692.918 1281.86 690.036C1277.32 687.153 1272.43 683.308 1268.23 678.822C1264.04 674.337 1260.54 669.21 1258.44 665.204C1256.34 661.198 1255.64 658.314 1255.29 654.307C1254.94 650.3 1254.94 645.173 1255.38 641.645C1255.82 638.117 1256.69 636.195 1257.48 634.432C1258.26 632.67 1258.96 631.067 1230.93 606.393C1202.89 581.719 1146.1 533.97 1117 511.053C1087.9 488.136 1086.51 490.059 1084.24 491.82C1081.97 493.58 1078.82 495.182 1074.98 495.984C1071.14 496.787 1066.6 496.786 1063.36 499.033C1060.12 501.279 1058.2 505.765 1043.52 535.248C1028.84 564.731 1001.41 619.209 989.539 647.412C977.665 675.614 981.335 677.537 984.39 680.103C987.446 682.669 989.892 685.874 992.512 689.88C995.132 693.886 997.928 698.693 1000.2 703.66C1002.47 708.627 1004.22 713.755 1004.82 718.4C1005.43 723.045 1004.91 727.211 1006.22 731.058C1007.54 734.905 1010.69 738.43 1056.64 773.681C1102.6 808.932 1191.36 875.908 1236.52 908.591H1236.51Z" stroke="black" stroke-width="10"/>
<path d="M271.048 1359.65L270 1615.38H327.66L326.612 1401.95H498.545C500.467 1403.87 502.399 1405.8 503.443 1408.21C504.486 1410.61 504.661 1413.49 504.748 1417.02C504.835 1420.54 504.835 1424.71 504.835 1430.8C504.835 1436.89 504.835 1444.9 504.572 1450.67C504.309 1456.44 503.785 1459.96 501.952 1462.84C500.118 1465.72 496.973 1467.96 493.304 1470.53C489.635 1473.09 485.442 1475.97 481.951 1477.58C478.46 1479.18 475.665 1479.5 452.688 1479.18C429.712 1478.86 386.543 1477.9 343.386 1476.94L343.91 1532.7L383.224 1531.74L484.916 1611.53L576.124 1617.3L464.997 1535.58C469.54 1535.58 474.094 1535.58 479.684 1535.26C485.275 1534.94 491.915 1534.3 498.814 1532.38C505.713 1530.45 512.877 1527.25 520.214 1523.24C527.552 1519.24 535.065 1514.43 541.791 1508.98C548.516 1503.54 554.457 1497.45 558.039 1485.75C561.621 1474.06 562.844 1456.76 563.281 1442.34C563.718 1427.91 563.369 1416.38 561.624 1406.28C559.879 1396.19 556.733 1387.54 552.719 1381.61C548.704 1375.68 543.812 1372.47 538.395 1369.43C532.979 1366.38 527.038 1363.5 482.393 1361.89C437.748 1360.29 354.394 1359.97 271.048 1359.65Z" fill="#148D78" stroke="black" stroke-width="10"/>
<path d="M600.762 1421.17L655.278 1419.25L657.374 1543.27C659.471 1546.48 661.576 1549.69 664.286 1552.41C666.997 1555.14 670.317 1557.38 673.374 1559.78C676.431 1562.19 679.227 1564.75 697.748 1566.51C716.27 1568.27 750.505 1569.23 784.751 1570.19L785.8 1423.1L842.412 1422.13L846.081 1602.88L833.501 1614.41H663.665C656.85 1611.53 650.049 1608.65 643.409 1605.29C636.769 1601.92 630.304 1598.08 624.974 1594.07C619.644 1590.07 615.45 1585.9 611.167 1579.98C606.885 1574.05 602.517 1566.36 600.766 1539.6C599.015 1512.84 599.889 1467 600.762 1421.17L600.762 1421.17V1421.17Z" fill="#148D78" stroke="black" stroke-width="10"/>
<path d="M955.729 1418.93C980.459 1419.09 1029.91 1419.41 1056.9 1420.22C1083.9 1421.02 1088.44 1422.3 1092.81 1424.07C1097.18 1425.83 1101.37 1428.07 1105.57 1431.44C1109.76 1434.81 1113.95 1439.29 1117.79 1444.26C1121.64 1449.23 1125.13 1454.68 1127.31 1459.96C1129.49 1465.25 1130.37 1470.38 1130.54 1476.79C1130.71 1483.2 1130.19 1490.89 1129.49 1497.62C1128.79 1504.35 1127.92 1510.11 1126.26 1515.4C1124.6 1520.69 1122.15 1525.49 1117.96 1529.82C1113.77 1534.14 1107.83 1537.99 1102.24 1541.67C1096.64 1545.36 1091.4 1548.88 1084.59 1551.28C1077.78 1553.69 1069.39 1554.97 1049.3 1555.13C1029.21 1555.29 997.396 1554.33 965.596 1553.37L965.071 1502.41L1063.62 1503.38C1065.71 1502.09 1067.81 1500.81 1069.73 1499.37C1071.66 1497.93 1073.4 1496.33 1074.54 1492.8C1075.67 1489.28 1076.2 1483.84 1076.11 1479.67C1076.02 1475.51 1075.33 1472.62 1073.24 1469.74C1071.14 1466.85 1067.65 1463.97 1064.68 1462.2C1061.71 1460.44 1059.26 1459.8 1040.74 1459.79C1022.22 1459.79 987.611 1460.43 953.015 1461.07C949.87 1463 946.727 1464.92 944.104 1467.48C941.481 1470.05 939.384 1473.25 937.637 1476.3C935.889 1479.35 934.492 1482.23 933.794 1495.05C933.096 1507.87 933.096 1530.63 933.973 1543.61C934.85 1556.59 936.597 1559.79 938.433 1562.51C940.269 1565.24 942.191 1567.48 944.377 1568.76C946.563 1570.03 949.009 1570.35 967.093 1570.19C985.177 1570.03 1018.89 1569.39 1052.61 1568.75L1054.18 1614.9L930.999 1615.86C926.107 1614.26 921.228 1612.66 916.859 1610.26C912.49 1607.86 908.646 1604.65 905.324 1601.13C902.003 1597.6 899.207 1593.76 896.585 1589.43C893.963 1585.11 891.517 1580.3 889.941 1559.95C888.366 1539.6 887.667 1503.7 886.968 1467.8C889.414 1461.39 891.858 1454.99 895.441 1449.54C899.024 1444.09 903.741 1439.6 909.858 1434.63C915.974 1429.67 923.487 1424.22 927.243 1421.5C930.999 1418.77 930.999 1418.77 955.729 1418.93H955.729Z" fill="#148D78" stroke="black" stroke-width="10"/>
<path d="M1165.31 1336.57L1209.35 1335.61L1210.92 1552.89C1213.54 1556.41 1216.17 1559.95 1218.97 1562.99C1221.76 1566.04 1224.73 1568.6 1243.87 1570.2C1263 1571.79 1298.28 1572.44 1333.58 1573.08C1338.12 1569.87 1342.66 1566.67 1345.98 1562.18C1349.3 1557.7 1351.4 1551.93 1351.92 1537.67C1352.45 1523.41 1351.4 1500.65 1350.35 1477.9L1342.49 1471.17L1231.36 1470.21V1420.21H1351.4C1357.69 1423.42 1363.99 1426.63 1369.58 1430.32C1375.17 1434 1380.07 1438.17 1383.91 1442.82C1387.75 1447.47 1390.55 1452.59 1392.64 1473.74C1394.73 1494.89 1396.13 1532.06 1397.53 1569.23C1396.3 1575 1395.08 1580.78 1392.72 1585.42C1390.36 1590.06 1386.87 1593.59 1382.68 1597.11C1378.48 1600.64 1373.59 1604.16 1369.22 1606.88C1364.86 1609.61 1361.01 1611.53 1333.06 1612.17C1305.11 1612.81 1253.03 1612.17 1200.96 1611.53C1195.72 1608.33 1190.49 1605.13 1185.59 1601.13C1180.7 1597.12 1176.16 1592.32 1172.66 1587.67C1169.16 1583.02 1166.72 1578.54 1165.67 1536.71C1164.62 1494.89 1164.96 1415.73 1165.31 1336.57L1165.31 1336.57L1165.31 1336.57Z" fill="#148D78" stroke="black" stroke-width="10"/>
<path d="M1518.61 1511.07C1518.61 1519.73 1518.61 1537.02 1518.61 1554.33L1623.97 1555.29C1631.66 1552.09 1639.35 1548.88 1646.86 1544.39C1654.37 1539.91 1661.71 1534.14 1667.65 1526.77C1673.59 1519.4 1678.13 1510.43 1680.14 1498.57C1682.15 1486.72 1681.63 1471.98 1677.35 1459.8C1673.08 1447.62 1665.04 1438.01 1657.7 1432.08C1650.36 1426.15 1643.73 1423.9 1615.59 1422.62C1587.46 1421.34 1537.84 1421.02 1509 1423.26C1480.17 1425.5 1472.13 1430.31 1464.79 1436.4C1457.45 1442.49 1450.81 1449.86 1446.44 1457.39C1442.07 1464.93 1439.98 1472.62 1439.19 1480.31C1438.41 1488 1438.93 1495.69 1439.28 1505.31C1439.63 1514.92 1439.8 1526.46 1439.89 1536.39C1439.98 1546.33 1439.98 1554.66 1440.07 1561.87C1440.16 1569.08 1440.33 1575.17 1442.34 1580.46C1444.36 1585.75 1448.2 1590.23 1453.27 1595.2C1458.34 1600.17 1464.63 1605.61 1470.04 1609.46C1475.46 1613.3 1480.01 1615.54 1502.98 1616.5C1525.96 1617.46 1567.36 1617.14 1608.77 1616.82L1607.72 1574.52H1502.88C1499.39 1573.24 1495.91 1571.96 1493.45 1568.76C1491 1565.56 1489.61 1560.43 1488.99 1545.85C1488.38 1531.26 1488.55 1507.23 1490.91 1492C1493.27 1476.78 1497.81 1470.37 1501.49 1466.84C1505.16 1463.31 1507.96 1462.67 1526.39 1462.51C1544.83 1462.35 1578.9 1462.67 1597.42 1463.48C1615.94 1464.28 1618.91 1465.57 1621.8 1468.29C1624.68 1471.02 1627.47 1475.19 1628.6 1479.83C1629.73 1484.48 1629.21 1489.6 1628.07 1493.45C1626.94 1497.29 1625.19 1499.85 1606.85 1501.13C1588.51 1502.41 1553.56 1502.41 1536.09 1502.41C1518.61 1502.41 1518.61 1502.41 1518.61 1511.07L1518.61 1511.07Z" fill="#148D78" stroke="black" stroke-width="10"/>
<path d="M1725.69 1426.97L1885.07 1425.61C1891 1429.24 1896.94 1432.87 1902.13 1436.04C1907.32 1439.22 1911.77 1441.93 1916.71 1445.79C1921.65 1449.64 1927.09 1454.63 1931.29 1458.71C1935.49 1462.79 1938.46 1465.96 1940.68 1469.81C1942.9 1473.66 1944.38 1478.2 1945.49 1501.31C1946.6 1524.42 1947.34 1566.11 1948.08 1607.8L1911.02 1609.16L1910.28 1493.59C1905.58 1488.15 1900.9 1482.73 1896.82 1478.87C1892.74 1475.02 1889.28 1472.75 1867.17 1471.84C1845.05 1470.93 1804.27 1471.39 1763.5 1471.84L1764.98 1611.88H1722.72L1725.69 1426.97H1725.69V1426.97Z" fill="#148D78" stroke="black" stroke-width="10"/>
<defs>
<filter id="filter0_d" x="277.483" y="411" width="1581.27" height="866.951" filterUnits="userSpaceOnUse" color-interpolation-filters="sRGB">
<feFlood flood-opacity="0" result="BackgroundImageFix"/>
<feColorMatrix in="SourceAlpha" type="matrix" values="0 0 0 0 0 0 0 0 0 0 0 0 0 0 0 0 0 0 127 0"/>
<feOffset dy="15"/>
<feGaussianBlur stdDeviation="2"/>
<feColorMatrix type="matrix" values="0 0 0 0 0 0 0 0 0 0.721569 0 0 0 0 0.596078 0 0 0 0.29 0"/>
<feBlend mode="normal" in2="BackgroundImageFix" result="effect1_dropShadow"/>
<feBlend mode="normal" in="SourceGraphic" in2="effect1_dropShadow" result="shape"/>
</filter>
<filter id="filter1_i" x="773.104" y="753.711" width="480.1" height="340.239" filterUnits="userSpaceOnUse" color-interpolation-filters="sRGB">
<feFlood flood-opacity="0" result="BackgroundImageFix"/>
<feBlend mode="normal" in="SourceGraphic" in2="BackgroundImageFix" result="shape"/>
<feColorMatrix in="SourceAlpha" type="matrix" values="0 0 0 0 0 0 0 0 0 0 0 0 0 0 0 0 0 0 127 0" result="hardAlpha"/>
<feOffset dx="15" dy="15"/>
<feGaussianBlur stdDeviation="1.5"/>
<feComposite in2="hardAlpha" operator="arithmetic" k2="-1" k3="1"/>
<feColorMatrix type="matrix" values="0 0 0 0 0.0941176 0 0 0 0 0.298039 0 0 0 0 0.262745 0 0 0 1 0"/>
<feBlend mode="normal" in2="shape" result="effect1_innerShadow"/>
</filter>
<filter id="filter2_i" x="976.352" y="485.85" width="328.859" height="458.153" filterUnits="userSpaceOnUse" color-interpolation-filters="sRGB">
<feFlood flood-opacity="0" result="BackgroundImageFix"/>
<feBlend mode="normal" in="SourceGraphic" in2="BackgroundImageFix" result="shape"/>
<feColorMatrix in="SourceAlpha" type="matrix" values="0 0 0 0 0 0 0 0 0 0 0 0 0 0 0 0 0 0 127 0" result="hardAlpha"/>
<feOffset/>
<feGaussianBlur stdDeviation="1.5"/>
<feComposite in2="hardAlpha" operator="arithmetic" k2="-1" k3="1"/>
<feColorMatrix type="matrix" values="0 0 0 0 0.0941176 0 0 0 0 0.298039 0 0 0 0 0.262745 0 0 0 1 0"/>
<feBlend mode="normal" in2="shape" result="effect1_innerShadow"/>
</filter>
<linearGradient id="paint0_linear" x1="608.242" y1="554.557" x2="1780.74" y2="1058.06" gradientUnits="userSpaceOnUse">
<stop stop-color="#00C1A0"/>
<stop offset="0.419746" stop-color="#004438"/>
<stop offset="1" stop-color="#000605"/>
</linearGradient>
</defs>
</svg>
