<?xml version="1.0" encoding="UTF-8" standalone="no"?>
<svg
   width="24"
   height="24"
   viewBox="0 0 24 24"
   version="1.1"
   id="svg834"
   sodipodi:docname="iconmonstr-github-1.svg"
   inkscape:version="1.1 (c68e22c387, 2021-05-23)"
   xmlns:inkscape="http://www.inkscape.org/namespaces/inkscape"
   xmlns:sodipodi="http://sodipodi.sourceforge.net/DTD/sodipodi-0.dtd"
   xmlns="http://www.w3.org/2000/svg"
   xmlns:svg="http://www.w3.org/2000/svg">
  <defs
     id="defs838">
    <marker
       style="overflow:visible"
       id="Arrow1Lstart"
       refX="0.0"
       refY="0.0"
       orient="auto"
       inkscape:stockid="Arrow1Lstart"
       inkscape:isstock="true">
      <path
         transform="scale(0.8) translate(12.5,0)"
         style="fill-rule:evenodd;fill:context-stroke;stroke:context-stroke;stroke-width:1.0pt"
         d="M 0.0,0.0 L 5.0,-5.0 L -12.5,0.0 L 5.0,5.0 L 0.0,0.0 z "
         id="path3226" />
    </marker>
  </defs>
  <sodipodi:namedview
     id="namedview836"
     pagecolor="#505050"
     bordercolor="#ffffff"
     borderopacity="1"
     inkscape:pageshadow="0"
     inkscape:pageopacity="0"
     inkscape:pagecheckerboard="1"
     showgrid="false"
     inkscape:snap-global="false"
     inkscape:zoom="16"
     inkscape:cx="2.84375"
     inkscape:cy="6.71875"
     inkscape:window-width="1920"
     inkscape:window-height="1017"
     inkscape:window-x="-8"
     inkscape:window-y="-8"
     inkscape:window-maximized="1"
     inkscape:current-layer="svg834" />
  <path
     id="path832"
     style="fill:#115c4f;fill-opacity:1;fill-rule:nonzero;stroke:#000000;stroke-opacity:1;stroke-width:0.7;stroke-miterlimit:4;stroke-dasharray:none;stroke-linejoin:round;stroke-linecap:round;paint-order:normal"
     d="M 12,0 C 5.374,0 0,5.373 0,12 0,17.302 3.4380313,21.799719 8.2070312,23.386719 8.8060314,23.497719 9,23.126547 9,22.810547 v -2.234375 c -3.338,0.726 -4.0332031,-1.416016 -4.0332031,-1.416016 -0.546,-1.387 -1.3320313,-1.755859 -1.3320313,-1.755859 -1.089,-0.745 0.082031,-0.728516 0.082031,-0.728516 1.205,0.084 1.8398437,1.236328 1.8398437,1.236328 1.07,1.834 2.8071875,1.303094 3.4921875,0.996094 0.107,-0.775 0.4177188,-1.304516 0.7617188,-1.603515 -2.665,-0.305 -5.4667969,-1.334641 -5.4667969,-5.931641 0,-1.311 0.467375,-2.3807034 1.234375,-3.2207032 -0.124,-0.303 -0.5348125,-1.5237813 0.1171875,-3.1757813 0,0 1.0077812,-0.3215312 3.3007813,1.2304687 C 9.953094,5.9410312 10.98,5.8077344 12,5.8027344 c 1.02,0.005 2.046859,0.138297 3.005859,0.4042968 2.291,-1.5519999 3.296875,-1.2304687 3.296875,-1.2304687 0.653,1.653 0.243141,2.8737812 0.119141,3.1757813 0.77,0.8399999 1.234375,1.9107032 1.234375,3.2207032 0,4.609 -2.806516,5.624875 -5.478516,5.921875 0.43,0.372 0.822266,1.102656 0.822266,2.222656 v 3.292969 c 0,0.319 0.191781,0.694172 0.800781,0.576172 C 20.565781,21.797719 24,17.3 24,12 24,5.373 18.627,0 12,0 Z" />
</svg>
