<svg width="596" height="402" viewBox="0 0 596 402" fill="none" xmlns="http://www.w3.org/2000/svg">
<g filter="url(#filter0_d)">
<rect x="233" y="98" width="151" height="179" fill="#141313"/>
<rect x="233" y="98" width="151" height="179" fill="url(#paint0_linear)" fill-opacity="0.2"/>
</g>
<path d="M297.774 401.087H0V200.754V0.421753H297.774H595.549V200.754V401.087H297.774ZM297.643 253.842C300.151 253.842 302.034 253.177 303.198 251.879C304.54 250.382 304.781 249.131 304.21 246.62C303.798 244.808 303.187 232.282 302.851 218.784C302.515 205.287 301.88 193.68 301.438 192.991C300.996 192.303 299.576 191.739 298.283 191.739C296.989 191.739 295.229 192.448 294.371 193.313C293.101 194.595 292.791 197.71 292.701 210.091C292.641 218.453 292.681 228.341 292.791 232.065C292.9 235.788 292.428 241.048 291.741 243.753C290.647 248.062 290.7 248.992 292.171 251.257C293.491 253.29 294.66 253.842 297.643 253.842H297.643ZM282.763 245.829C284.125 245.829 286.273 244.849 287.536 243.651C288.886 242.372 289.834 240.306 289.834 238.646C289.834 236.786 288.56 234.395 286.112 231.658C282.413 227.524 282.39 227.442 282.411 218.884C282.429 211.793 282.848 209.473 284.78 205.763C286.071 203.283 288.183 199.981 289.473 198.424C290.763 196.866 291.819 194.555 291.819 193.288C291.819 192.02 291.122 190.399 290.271 189.686C289.17 188.764 287.959 188.661 286.079 189.328C284.625 189.844 281.739 192.716 279.666 195.711C277.593 198.706 275.236 203.401 274.428 206.145C273.621 208.889 272.96 214.63 272.96 218.903C272.96 223.185 273.844 230.407 274.93 234.998C276.069 239.815 277.613 243.853 278.593 244.577C279.525 245.266 281.402 245.829 282.763 245.829V245.829ZM312.813 245.829C314.29 245.829 316.2 245.121 317.057 244.257C317.914 243.392 318.879 241.476 319.201 239.999C319.524 238.523 320.418 234.687 321.188 231.474C321.959 228.262 322.584 222.402 322.578 218.453C322.568 214.503 321.931 209.155 321.153 206.568C320.375 203.981 319.204 200.826 318.551 199.556C317.898 198.287 315.829 195.333 313.954 192.991C311.784 190.281 309.74 188.734 308.328 188.734C307.109 188.734 305.576 189.275 304.921 189.936C304.266 190.597 303.73 192.14 303.73 193.365C303.73 194.59 304.851 196.936 306.22 198.579C307.59 200.222 309.823 204.549 311.183 208.195C312.543 211.84 313.656 216.732 313.656 219.064C313.656 221.397 313.233 224.793 312.716 226.611C312.199 228.429 310.413 231.484 308.746 233.4C306.852 235.577 305.715 237.977 305.715 239.797C305.715 241.672 306.501 243.266 307.921 244.27C309.134 245.127 311.336 245.829 312.813 245.829V245.829ZM262.652 237.752C263.261 237.787 264.936 236.882 266.374 235.74C268.139 234.339 268.99 232.707 268.99 230.722C268.99 228.838 267.947 226.68 266.088 224.716C264.393 222.927 262.914 220.029 262.532 217.751C262.116 215.262 262.466 211.814 263.499 208.227C264.568 204.516 266.48 201.114 269.12 198.223C271.321 195.814 275.093 192.879 277.502 191.702C279.911 190.526 282.15 189.125 282.477 188.591C282.805 188.056 282.806 186.548 282.477 185.238C282.152 183.929 281.013 182.578 279.946 182.237C278.88 181.895 276.216 182.157 274.026 182.819C271.836 183.482 267.499 186.313 264.388 189.111C260.374 192.721 257.913 196.018 255.918 200.46C254.026 204.67 253.105 208.367 253.105 211.751C253.105 214.517 252.691 216.781 252.185 216.781C251.678 216.781 250.338 215.593 249.207 214.142C247.793 212.328 247.15 210.04 247.15 206.826C247.15 203.797 248.059 200.308 249.73 196.924C251.423 193.496 253.797 190.666 256.631 188.698C259.008 187.048 262.425 185.416 264.225 185.072C266.025 184.727 268.279 184.042 269.235 183.55C270.28 183.011 270.972 181.508 270.972 179.778C270.972 177.475 269.984 176.186 266.009 173.304C261.506 170.04 261.046 169.342 261.046 165.787C261.046 162.669 261.65 161.355 264 159.359C265.625 157.98 268.416 156.537 270.204 156.154C271.991 155.77 274.235 154.761 275.19 153.91C276.146 153.06 276.927 151.588 276.927 150.639C276.927 149.69 276.27 148.363 275.467 147.691C274.547 146.92 271.703 146.597 267.775 146.817L261.542 147.165L261.235 142.293C261.051 139.375 261.648 135.393 262.724 132.362C263.712 129.579 266.482 125.098 268.88 122.404C271.278 119.71 275.521 116.336 278.309 114.906C281.098 113.476 285.612 111.703 288.342 110.967C291.071 110.23 295.122 109.621 297.342 109.615C299.563 109.608 304.476 110.425 308.261 111.43C312.045 112.435 316.928 114.414 319.112 115.828C321.296 117.243 324.495 119.914 326.221 121.764C327.948 123.615 330.346 127.059 331.549 129.418C332.832 131.932 333.951 136.381 334.252 140.165C334.667 145.392 334.473 146.737 333.232 147.217C332.389 147.543 330.016 147.341 327.958 146.768C325.194 145.998 323.549 146.048 321.664 146.96C319.951 147.788 319.112 149 319.112 150.646C319.112 152.272 319.948 153.505 321.593 154.306C322.958 154.969 326 156.307 328.354 157.278C330.707 158.249 333.052 159.835 333.565 160.801C334.077 161.768 334.497 164.088 334.497 165.956C334.497 168.221 333.752 170.018 332.264 171.347C331.035 172.443 328.802 174.109 327.301 175.05C325.542 176.152 324.571 177.623 324.571 179.185C324.571 180.554 325.531 182.287 326.777 183.168C327.99 184.026 329.952 184.728 331.135 184.728C332.319 184.728 335.458 186.213 338.111 188.029C341.477 190.334 343.758 192.959 345.663 196.723C347.49 200.331 348.393 203.664 348.393 206.798C348.393 210.38 347.821 212.103 345.959 214.13C344.62 215.588 343.342 216.781 343.119 216.781C342.896 216.781 342.476 214.138 342.186 210.908C341.895 207.677 340.756 202.978 339.655 200.465C338.553 197.951 335.777 193.842 333.485 191.333C331.194 188.825 326.916 185.586 323.979 184.136C320.397 182.367 317.824 181.706 316.161 182.127C314.649 182.51 313.447 183.703 313.078 185.187C312.745 186.524 312.769 188.102 313.131 188.693C313.492 189.283 315.315 190.41 317.181 191.197C319.046 191.983 322.952 195.019 325.86 197.943C329.677 201.781 331.507 204.57 332.444 207.978C333.219 210.799 333.478 214.466 333.088 217.093C332.641 220.098 331.505 222.388 329.495 224.331C327.46 226.298 326.556 228.14 326.556 230.316C326.556 232.366 327.411 234.27 329.013 235.79C331.111 237.779 331.946 237.983 334.721 237.184C337.323 236.435 338.22 235.457 339.222 232.274C339.911 230.088 340.95 226.321 341.531 223.903L342.588 219.506L344.483 222.651C346.081 225.303 346.979 225.796 350.209 225.796C352.705 225.796 354.632 225.136 355.737 223.904C357.103 222.381 357.469 219.787 357.612 210.632C357.769 200.596 357.513 198.629 355.446 193.983C353.959 190.64 350.971 186.722 347.274 183.268C344.068 180.272 341.445 177.362 341.445 176.801C341.445 176.24 342.196 174.191 343.114 172.249C344.596 169.113 344.642 167.842 343.527 160.914C342.58 155.03 342.537 151.632 343.352 147.096C344.133 142.75 344.132 139.435 343.342 135.148C342.745 131.886 341.125 126.944 339.743 124.167C338.36 121.391 334.715 116.684 331.643 113.708C328.147 110.322 323.269 106.98 318.611 104.781C312.038 101.677 310.006 101.213 301.241 100.82C293.952 100.493 289.62 100.822 284.934 102.058C281.425 102.983 276.416 104.833 273.805 106.169C271.193 107.505 267.397 110.063 265.369 111.855C263.342 113.646 260.028 117.691 258.006 120.843C255.984 123.995 253.537 129.53 252.567 133.143C250.986 139.038 250.939 140.584 252.113 148.196C253.118 154.716 253.154 157.27 252.268 159.231C251.634 160.635 251.116 163.583 251.116 165.783C251.116 167.983 252.013 171.558 253.111 173.729L255.106 177.675L251.181 180.296C249.022 181.737 245.682 185.24 243.759 188.079C241.836 190.919 239.576 195.936 238.737 199.228C237.604 203.672 237.379 207.622 237.862 214.556C238.487 223.525 238.625 223.956 241.332 225.369C243.019 226.25 245.188 226.577 246.735 226.185C248.156 225.825 250.149 224.154 251.164 222.47L253.008 219.41L254.047 222.167C254.619 223.684 255.089 225.684 255.092 226.612C255.092 227.54 255.569 230.015 256.146 232.112C256.794 234.468 258.024 236.26 259.366 236.806C260.561 237.292 262.036 237.717 262.645 237.752H262.652ZM274.037 169.703C278.814 169.703 283.43 169.429 284.293 169.095C285.229 168.733 285.864 167.305 285.864 165.564C285.864 163.349 285.247 162.405 283.317 161.665C281.917 161.127 277.868 160.688 274.319 160.688C270.77 160.688 267.003 161.154 265.947 161.725C264.751 162.371 264.027 163.818 264.027 165.564C264.027 167.106 264.324 168.668 264.688 169.035C265.052 169.402 269.259 169.703 274.037 169.703V169.703ZM320.202 169.703C327.236 169.703 329.762 169.333 330.955 168.129C331.813 167.263 332.515 166.136 332.515 165.625C332.515 165.113 331.621 163.793 330.53 162.691C328.894 161.041 327.221 160.688 321.035 160.688C316.905 160.688 312.661 161.154 311.605 161.725C310.409 162.371 309.685 163.818 309.685 165.564C309.685 167.106 309.983 168.668 310.347 169.035C310.711 169.402 315.146 169.703 320.202 169.703V169.703ZM277.106 135.646C278.913 135.646 280.395 134.826 281.408 133.265C282.672 131.319 282.737 130.404 281.768 128.257C280.855 126.234 279.865 125.63 277.466 125.63C275.752 125.63 273.814 126.17 273.158 126.832C272.503 127.493 271.967 129.206 271.967 130.638C271.967 132.07 272.503 133.783 273.158 134.444C273.814 135.105 275.59 135.646 277.106 135.646ZM288.252 133.643C289.45 133.643 290.965 133.102 291.62 132.441C292.275 131.78 292.811 130.5 292.811 129.597C292.811 128.693 291.71 127.448 290.364 126.829C288.408 125.93 287.611 126.012 286.394 127.241C285.556 128.086 284.871 129.159 284.871 129.626C284.871 130.092 285.142 131.187 285.473 132.058C285.805 132.93 287.055 133.643 288.252 133.643ZM283.255 124.613C283.871 124.605 284.969 124.217 285.695 123.753C286.445 123.273 286.873 121.657 286.687 120.012C286.407 117.535 285.929 117.115 283.382 117.115C281.028 117.115 280.336 117.599 280.08 119.424C279.902 120.694 280.291 122.385 280.946 123.181C281.601 123.977 282.64 124.621 283.255 124.613Z" fill="#080808"/>
<path d="M126.229 268L126 335.493H138.62L138.39 279.164H176.021C176.441 279.671 176.864 280.18 177.093 280.816C177.321 281.45 177.359 282.21 177.378 283.141C177.397 284.07 177.397 285.171 177.397 286.778C177.397 288.385 177.397 290.5 177.34 292.022C177.282 293.545 177.167 294.474 176.766 295.234C176.365 295.994 175.677 296.586 174.874 297.264C174.071 297.94 173.153 298.7 172.389 299.125C171.625 299.547 171.013 299.631 165.984 299.547C160.955 299.462 151.507 299.209 142.062 298.956L142.176 313.672L150.781 313.419L173.038 334.477L193 336L168.678 314.432C169.672 314.432 170.669 314.432 171.893 314.348C173.116 314.263 174.57 314.094 176.079 313.588C177.589 313.078 179.157 312.234 180.763 311.175C182.369 310.12 184.014 308.85 185.486 307.412C186.958 305.976 188.258 304.369 189.042 301.281C189.826 298.196 190.093 293.63 190.189 289.824C190.285 286.015 190.208 282.972 189.826 280.307C189.445 277.644 188.756 275.361 187.877 273.796C186.999 272.231 185.928 271.384 184.742 270.581C183.557 269.776 182.257 269.016 172.486 268.591C162.714 268.169 144.471 268.084 126.229 268Z" fill="#148D78" stroke="black" stroke-width="3"/>
<path d="M198.221 284.502L210.172 284L210.631 316.409C211.091 317.248 211.553 318.087 212.147 318.798C212.741 319.511 213.469 320.097 214.139 320.724C214.809 321.354 215.422 322.023 219.482 322.483C223.543 322.943 231.048 323.193 238.555 323.444L238.785 285.006L251.196 284.753L252 331.987L249.242 335H212.011C210.517 334.247 209.026 333.495 207.57 332.617C206.114 331.736 204.697 330.733 203.529 329.685C202.36 328.639 201.441 327.55 200.502 326.003C199.563 324.453 198.606 322.443 198.222 315.45C197.838 308.457 198.03 296.478 198.221 284.502Z" fill="#148D78" stroke="black" stroke-width="3"/>
<path d="M274.96 284.015C280.34 284.057 291.099 284.142 296.971 284.355C302.846 284.567 303.833 284.904 304.784 285.372C305.735 285.836 306.647 286.428 307.56 287.317C308.472 288.207 309.384 289.389 310.219 290.701C311.057 292.013 311.816 293.452 312.29 294.846C312.765 296.242 312.956 297.597 312.993 299.289C313.03 300.981 312.917 303.011 312.764 304.787C312.612 306.564 312.423 308.084 312.062 309.481C311.701 310.877 311.168 312.144 310.256 313.287C309.344 314.428 308.052 315.444 306.836 316.416C305.617 317.39 304.477 318.319 302.996 318.952C301.514 319.589 299.689 319.926 295.318 319.969C290.947 320.011 284.025 319.757 277.107 319.504L276.993 306.052L298.433 306.308C298.888 305.967 299.345 305.629 299.763 305.249C300.183 304.869 300.561 304.447 300.809 303.515C301.055 302.586 301.17 301.15 301.151 300.049C301.131 298.951 300.981 298.188 300.526 297.428C300.07 296.665 299.31 295.904 298.664 295.437C298.018 294.973 297.485 294.804 293.456 294.801C289.426 294.801 281.896 294.97 274.37 295.139C273.685 295.648 273.002 296.155 272.431 296.831C271.86 297.509 271.404 298.354 271.024 299.159C270.644 299.964 270.34 300.725 270.188 304.109C270.036 307.493 270.036 313.501 270.227 316.928C270.417 320.354 270.798 321.199 271.197 321.917C271.596 322.637 272.015 323.229 272.49 323.567C272.966 323.902 273.498 323.986 277.432 323.944C281.367 323.902 288.702 323.733 296.038 323.564L296.38 335.747L269.58 336C268.515 335.578 267.454 335.155 266.503 334.522C265.553 333.888 264.716 333.041 263.994 332.112C263.271 331.18 262.663 330.166 262.092 329.023C261.522 327.883 260.99 326.613 260.647 321.241C260.304 315.869 260.152 306.392 260 296.915C260.532 295.223 261.064 293.534 261.843 292.095C262.623 290.657 263.649 289.471 264.98 288.159C266.311 286.85 267.945 285.411 268.762 284.693C269.58 283.973 269.58 283.973 274.96 284.015Z" fill="#148D78" stroke="black" stroke-width="3"/>
<path d="M321.074 262.253L330.542 262L330.88 319.298C331.443 320.226 332.009 321.159 332.611 321.961C333.211 322.765 333.849 323.44 337.964 323.862C342.077 324.282 349.662 324.453 357.251 324.622C358.227 323.775 359.203 322.932 359.917 321.748C360.631 320.566 361.082 319.045 361.194 315.284C361.308 311.524 361.082 305.522 360.857 299.523L359.167 297.748L335.274 297.495V284.309H361.082C362.435 285.156 363.789 286.002 364.991 286.975C366.193 287.946 367.246 289.046 368.072 290.272C368.897 291.498 369.499 292.848 369.949 298.425C370.398 304.003 370.699 313.805 371 323.607C370.736 325.128 370.473 326.652 369.966 327.876C369.458 329.1 368.708 330.03 367.807 330.959C366.904 331.89 365.853 332.818 364.914 333.535C363.976 334.255 363.148 334.761 357.139 334.93C351.13 335.099 339.933 334.93 328.739 334.761C327.612 333.917 326.488 333.074 325.434 332.019C324.383 330.961 323.407 329.696 322.654 328.469C321.902 327.243 321.377 326.062 321.152 315.031C320.926 304.003 320.999 283.128 321.074 262.253Z" fill="#148D78" stroke="black" stroke-width="3"/>
<path d="M397.448 308.333C397.448 310.592 397.448 315.102 397.448 319.617L420.476 319.867C422.157 319.032 423.838 318.195 425.479 317.024C427.121 315.855 428.725 314.35 430.023 312.428C431.321 310.506 432.314 308.166 432.753 305.072C433.192 301.981 433.079 298.137 432.143 294.96C431.21 291.783 429.453 289.276 427.848 287.729C426.244 286.182 424.795 285.595 418.644 285.262C412.496 284.928 401.651 284.844 395.347 285.428C389.046 286.013 387.289 287.267 385.684 288.856C384.08 290.444 382.629 292.367 381.674 294.331C380.718 296.298 380.262 298.304 380.089 300.309C379.918 302.315 380.032 304.321 380.109 306.83C380.185 309.337 380.222 312.347 380.242 314.937C380.262 317.53 380.262 319.703 380.281 321.583C380.301 323.464 380.338 325.053 380.777 326.432C381.219 327.812 382.058 328.981 383.166 330.277C384.274 331.574 385.649 332.993 386.832 333.997C388.016 334.998 389.011 335.583 394.031 335.833C399.054 336.083 408.103 336 417.154 335.917L416.924 324.883H394.01C393.247 324.549 392.486 324.215 391.948 323.381C391.413 322.546 391.109 321.208 390.974 317.405C390.84 313.599 390.877 307.331 391.393 303.359C391.909 299.389 392.901 297.717 393.706 296.796C394.508 295.875 395.12 295.708 399.148 295.666C403.179 295.625 410.625 295.708 414.673 295.919C418.721 296.128 419.37 296.465 420.002 297.174C420.631 297.886 421.241 298.974 421.488 300.184C421.735 301.397 421.621 302.733 421.372 303.737C421.125 304.738 420.743 305.406 416.734 305.74C412.726 306.074 405.087 306.074 401.268 306.074C397.448 306.074 397.448 306.074 397.448 308.333Z" fill="#148D78" stroke="black" stroke-width="3"/>
<path d="M442.646 286.358L477.3 286C478.589 286.955 479.881 287.91 481.009 288.744C482.138 289.58 483.105 290.293 484.179 291.309C485.253 292.321 486.436 293.634 487.349 294.707C488.263 295.781 488.908 296.614 489.391 297.627C489.874 298.64 490.196 299.834 490.437 305.914C490.678 311.993 490.839 322.96 491 333.927L482.942 334.284L482.781 303.883C481.759 302.452 480.742 301.026 479.855 300.011C478.967 298.998 478.215 298.401 473.408 298.161C468.598 297.922 459.731 298.043 450.867 298.161L451.189 335H442L442.646 286.358Z" fill="#148D78" stroke="black" stroke-width="3"/>
<defs>
<filter id="filter0_d" x="229" y="98" width="159" height="187" filterUnits="userSpaceOnUse" color-interpolation-filters="sRGB">
<feFlood flood-opacity="0" result="BackgroundImageFix"/>
<feColorMatrix in="SourceAlpha" type="matrix" values="0 0 0 0 0 0 0 0 0 0 0 0 0 0 0 0 0 0 127 0" result="hardAlpha"/>
<feOffset dy="4"/>
<feGaussianBlur stdDeviation="2"/>
<feComposite in2="hardAlpha" operator="out"/>
<feColorMatrix type="matrix" values="0 0 0 0 0 0 0 0 0 0 0 0 0 0 0 0 0 0 0.25 0"/>
<feBlend mode="normal" in2="BackgroundImageFix" result="effect1_dropShadow"/>
<feBlend mode="normal" in="SourceGraphic" in2="effect1_dropShadow" result="shape"/>
</filter>
<linearGradient id="paint0_linear" x1="223" y1="87" x2="360.5" y2="265.5" gradientUnits="userSpaceOnUse">
<stop stop-color="#141313"/>
<stop offset="0.431258" stop-color="#08C6A4"/>
<stop offset="1" stop-color="#0EAE92"/>
</linearGradient>
</defs>
</svg>
