<?xml version="1.0" encoding="UTF-8" standalone="no"?>
<svg
   width="2218"
   height="2034"
   viewBox="0 0 2218 2034"
   fill="none"
   version="1.1"
   id="svg92"
   sodipodi:docname="logoV2 IMPROVED.svg"
   inkscape:version="1.1 (c68e22c387, 2021-05-23)"
   xmlns:inkscape="http://www.inkscape.org/namespaces/inkscape"
   xmlns:sodipodi="http://sodipodi.sourceforge.net/DTD/sodipodi-0.dtd"
   xmlns="http://www.w3.org/2000/svg"
   xmlns:svg="http://www.w3.org/2000/svg">
  <sodipodi:namedview
     id="namedview94"
     pagecolor="#505050"
     bordercolor="#ffffff"
     borderopacity="1"
     inkscape:pageshadow="0"
     inkscape:pageopacity="0"
     inkscape:pagecheckerboard="1"
     showgrid="false"
     inkscape:zoom="11.313709"
     inkscape:cx="33.543378"
     inkscape:cy="2030.8549"
     inkscape:window-width="1920"
     inkscape:window-height="1017"
     inkscape:window-x="-8"
     inkscape:window-y="-8"
     inkscape:window-maximized="1"
     inkscape:current-layer="svg92" />
  <rect
     width="2218"
     height="2034"
     fill="#222020"
     id="rect2"
     x="0"
     y="0"
     style="paint-order:fill markers stroke;stroke:#080808;stroke-opacity:1;stroke-width:0.1;stroke-miterlimit:4;stroke-dasharray:none" />
  <g
     filter="url(#filter0_d)"
     id="g8">
    <path
       d="M948.555 642.457C963.627 613 993.773 554.083 1007.25 523.041C1020.72 492 1017.51 488.827 1014.66 484.749C1011.82 480.671 1009.35 475.686 1007.86 468.207C1006.38 460.728 1005.88 450.758 1009.96 441.688C1014.04 432.619 1022.69 424.461 1031.71 420.155C1040.74 415.85 1050.13 415.396 1058.53 416.532C1066.93 417.668 1074.34 420.387 1081.51 423.788C1088.68 427.188 1095.6 431.267 1099.79 436.254C1103.99 441.242 1105.47 447.133 1105.84 452.344C1106.21 457.554 1105.47 462.086 1105.09 465.939C1104.72 469.792 1104.72 472.965 1107.08 475.682C1109.43 478.399 1114.13 480.665 1143.53 501.288C1172.94 521.911 1227.05 560.886 1255.22 579.236C1283.38 597.587 1285.6 595.321 1288.7 593.281C1291.79 591.24 1295.74 589.427 1302.66 588.522C1309.58 587.616 1319.47 587.616 1328.37 588.297C1337.26 588.978 1345.17 590.338 1350.85 592.381C1356.54 594.424 1359.99 597.143 1363.95 600.769C1367.9 604.396 1372.35 608.928 1375.93 614.367C1379.51 619.806 1382.23 626.151 1383.58 631.815C1384.94 637.479 1384.94 642.465 1384.82 647.223C1384.69 651.982 1384.44 656.514 1387.79 660.364C1391.13 664.215 1398.05 667.387 1428.07 683.25C1458.1 699.113 1511.22 727.665 1539.52 742.62C1567.81 757.575 1571.27 758.934 1575.71 757.119C1580.15 755.303 1585.59 750.318 1608.69 731.736C1631.8 713.154 1672.57 680.976 1693.2 661.04C1713.83 641.104 1714.33 633.4 1715.32 626.374C1716.3 619.348 1717.79 613.004 1720.63 606.203C1723.47 599.403 1727.67 592.152 1734.84 586.257C1742.01 580.363 1752.14 575.831 1762.77 573.339C1773.4 570.847 1784.52 570.394 1794.15 571.529C1803.79 572.665 1811.95 575.384 1818.5 578.559C1825.04 581.733 1829.99 585.359 1835.05 590.346C1840.11 595.332 1845.3 601.677 1847.77 608.701C1850.23 615.725 1849.99 623.43 1849.25 630.453C1848.5 637.477 1847.27 643.822 1845.41 649.486C1843.56 655.149 1841.09 660.134 1837.63 664.21C1834.17 668.286 1829.73 671.459 1823.3 675.084C1816.88 678.709 1808.48 682.788 1800.33 684.602C1792.18 686.416 1784.27 685.963 1776.36 685.51C1768.46 685.057 1760.55 684.604 1756.1 683.703C1751.65 682.802 1750.66 681.442 1750.16 681.215C1749.66 680.987 1749.66 681.894 1727.05 700.244C1704.44 718.594 1659.23 754.396 1636.86 773.89C1614.5 793.384 1615 796.557 1617.84 801.316C1620.69 806.074 1625.88 812.419 1650.83 844.371C1675.79 876.323 1720.52 933.879 1744.86 962.652C1769.2 991.425 1773.15 991.425 1778.34 992.56C1783.53 993.696 1789.96 995.962 1794.4 998.911C1798.85 1001.86 1801.32 1005.49 1804.04 1009.11C1806.76 1012.74 1809.72 1016.36 1810.95 1020.67C1812.18 1024.97 1811.69 1029.96 1811.07 1034.49C1810.45 1039.02 1809.71 1043.1 1807.86 1046.95C1806 1050.8 1803.04 1054.42 1799.09 1057.37C1795.14 1060.31 1790.19 1062.58 1785.5 1064.39C1780.81 1066.2 1776.36 1067.56 1771.91 1068.47C1767.47 1069.38 1763.02 1069.83 1758.08 1068.93C1753.14 1068.02 1747.7 1065.76 1743.25 1062.81C1738.8 1059.87 1735.34 1056.24 1732.38 1052.85C1729.41 1049.45 1726.94 1046.27 1726.07 1042.19C1725.2 1038.11 1725.94 1033.13 1726.31 1029.28C1726.68 1025.43 1726.68 1022.71 1699.88 986.903C1673.07 951.1 1619.45 882.213 1590.66 845.956C1561.88 809.699 1557.92 806.073 1549.77 801.086C1541.62 796.099 1529.26 789.754 1499.11 772.759C1468.97 755.763 1421.03 728.118 1395.33 712.711C1369.63 697.303 1366.17 694.13 1363.94 693.447C1361.71 692.765 1360.72 694.577 1359.73 696.39C1358.74 698.203 1357.76 700.016 1356.28 701.146C1354.8 702.276 1352.82 702.729 1350.36 702.731C1347.89 702.733 1344.92 702.28 1343.8 705.004C1342.69 707.728 1343.43 713.619 1343.92 753.955C1344.42 794.291 1344.66 869.069 1346.27 906.909C1347.89 944.749 1350.85 945.655 1355.42 947.015C1360 948.374 1366.17 950.187 1371.73 953.136C1377.29 956.084 1382.23 960.163 1387.05 964.696C1391.87 969.229 1396.56 974.214 1400.14 979.427C1403.73 984.639 1406.2 990.078 1408.67 996.649C1411.14 1003.22 1413.61 1010.93 1414.84 1016.82C1416.07 1022.71 1416.07 1026.79 1415.7 1031.77C1415.33 1036.75 1414.59 1042.65 1413.73 1048.76C1412.86 1054.88 1411.87 1061.23 1410.14 1065.53C1408.41 1069.83 1405.94 1072.1 1406.32 1074.37C1406.7 1076.64 1409.91 1078.9 1425.6 1091.37C1441.29 1103.83 1469.46 1126.49 1486.02 1137.36C1502.57 1148.23 1507.51 1147.33 1514.68 1147.33C1521.85 1147.33 1531.24 1148.24 1540.13 1150.5C1549.03 1152.77 1557.43 1156.4 1564.1 1160.48C1570.77 1164.56 1575.72 1169.09 1579.17 1175.89C1582.63 1182.69 1584.6 1191.75 1585.22 1198.32C1585.83 1204.89 1585.09 1208.97 1584.23 1213.05C1583.36 1217.13 1582.37 1221.21 1580.15 1225.51C1577.93 1229.81 1574.47 1234.35 1569.53 1238.42C1564.59 1242.5 1558.16 1246.13 1552.48 1248.85C1546.8 1251.56 1541.86 1253.38 1536.18 1253.83C1530.5 1254.29 1524.07 1253.38 1517.89 1252.02C1511.72 1250.66 1505.79 1248.85 1501.09 1246.14C1496.39 1243.42 1492.93 1239.79 1489.97 1236.17C1487 1232.54 1484.53 1228.92 1482.55 1224.61C1480.57 1220.31 1479.09 1215.32 1478.59 1210.56C1478.1 1205.8 1478.59 1201.27 1477.85 1197.42C1477.12 1193.57 1475.14 1190.4 1458.34 1175.66C1441.54 1160.93 1409.91 1134.65 1392.86 1121.5C1375.81 1108.35 1373.34 1108.35 1370.37 1108.81C1367.4 1109.26 1363.94 1110.16 1359 1111.98C1354.06 1113.79 1347.63 1116.51 1340.22 1118.55C1332.81 1120.59 1324.41 1121.95 1315.02 1122.63C1305.63 1123.31 1295.25 1123.31 1285.86 1121.5C1276.47 1119.69 1268.07 1116.06 1262.14 1111.99C1256.21 1107.91 1252.75 1103.38 1249.53 1097.94C1246.32 1092.5 1243.36 1086.16 1239.53 1083.43C1235.7 1080.71 1231 1081.61 1192.7 1091.58C1154.4 1101.55 1082.49 1120.59 1045.3 1131.92C1008.11 1143.25 1005.63 1146.88 1002.42 1151.64C999.21 1156.4 995.256 1162.29 990.562 1167.95C985.868 1173.62 980.431 1179.05 974.996 1184.04C969.56 1189.02 964.124 1193.56 957.703 1196.5C951.282 1199.45 943.869 1200.81 935.221 1201.71C926.574 1202.62 916.69 1203.07 908.537 1201.72C900.384 1200.36 893.959 1197.19 886.793 1193.34C879.627 1189.48 871.719 1184.95 865.787 1179.97C859.854 1174.99 855.9 1169.55 853.18 1164.56C850.459 1159.58 848.977 1155.05 847.74 1148.02C846.503 1140.99 845.515 1131.48 846.131 1124.9C846.747 1118.33 848.971 1114.7 834.399 1102.01C819.826 1089.33 788.445 1067.57 771.394 1055.34C754.343 1043.1 751.625 1040.38 747.42 1040.6C743.216 1040.82 737.532 1044 731.23 1048.07C724.928 1052.15 718.01 1057.14 707.141 1060.31C696.273 1063.48 681.447 1064.84 667.611 1063.49C653.774 1062.13 640.925 1058.05 634.746 1056.24C628.568 1054.43 629.062 1054.88 615.769 1074.26C602.477 1093.64 575.411 1131.94 562.844 1152.54C550.277 1173.15 552.199 1176.03 553.857 1179.39C555.515 1182.76 556.913 1186.61 557.609 1190.61C558.306 1194.61 558.306 1198.78 556.995 1203.42C555.683 1208.07 553.062 1213.2 549.83 1218C546.598 1222.81 542.754 1227.29 538.039 1230.98C533.324 1234.66 527.732 1237.55 522.665 1240.11C517.598 1242.67 513.055 1244.92 507.468 1246.04C501.88 1247.16 495.24 1247.16 488.951 1245.24C482.661 1243.32 476.721 1239.48 471.479 1235.95C466.236 1232.43 461.694 1229.22 458.544 1225.06C455.395 1220.89 453.648 1215.77 452.685 1210.96C451.722 1206.15 451.547 1201.67 451.809 1196.7C452.07 1191.73 452.769 1186.28 454.865 1181.15C456.962 1176.02 460.456 1171.21 464.913 1166.4C469.37 1161.6 474.786 1156.79 479.859 1154.71C484.933 1152.63 489.65 1153.27 494.629 1153.26C499.607 1153.26 504.849 1152.62 521.792 1132.75C538.735 1112.89 567.39 1073.79 580.064 1052.64C592.738 1031.5 589.419 1028.29 586.011 1024.77C582.603 1021.24 579.109 1017.4 575.265 1013.55C571.422 1009.71 567.228 1005.86 564.777 1000.25C562.326 994.644 561.627 987.273 561.888 980.542C562.149 973.811 563.372 967.722 563.984 962.756C564.596 957.79 564.596 953.944 563.117 951.059C561.638 948.174 558.668 946.251 531.148 934.552C503.628 922.854 451.56 901.383 424.471 891.606C397.381 881.829 395.284 883.752 392.489 885.995C389.694 888.237 386.2 890.801 381.31 893.044C376.42 895.287 370.13 897.209 364.016 898.492C357.902 899.774 351.961 900.415 346.022 900.576C340.082 900.737 334.141 900.417 329.075 899.138C324.008 897.859 319.815 895.616 315.446 892.573C311.077 889.53 306.534 885.684 302.514 881.839C298.495 877.994 295 874.149 292.376 869.182C289.752 864.215 288.005 858.126 287.129 850.755C286.254 843.383 286.254 834.731 287.214 827.998C288.173 821.266 290.095 816.459 292.979 811.17C295.862 805.881 299.706 800.113 305.125 795.143C310.544 790.174 317.533 786.008 323.126 783.284C328.719 780.559 332.913 779.278 339.03 778.477C345.148 777.677 353.185 777.356 360.875 777.999C368.564 778.642 375.902 780.244 382.193 782.65C388.483 785.056 393.724 788.261 397.915 792.269C402.107 796.276 405.252 801.083 407.96 805.249C410.668 809.416 412.94 812.941 413.896 817.106C414.853 821.27 414.504 826.077 414.329 829.603C414.155 833.128 414.155 835.371 417.219 837.773C420.284 840.174 426.399 842.738 433.301 845.461C440.203 848.185 447.891 851.069 457.85 854.915C467.81 858.761 480.041 863.568 500.659 872.541C521.277 881.515 550.282 894.654 565.301 900.101C580.319 905.549 581.368 903.305 585.387 898.496C589.407 893.687 596.396 886.316 603.212 880.387C610.028 874.457 616.667 869.971 624.707 865.964C632.746 861.958 642.181 858.433 653.017 856.832C663.853 855.231 676.084 855.551 686.918 856.674C697.752 857.797 707.187 859.719 715.225 862.285C723.263 864.851 729.902 868.055 734.096 870.139C738.289 872.222 740.037 873.184 742.038 871.9C744.04 870.616 746.312 867.091 765.271 849.463C784.231 831.835 819.875 800.11 838.395 783.446C856.916 766.783 858.314 765.18 856.572 761.98C854.831 758.78 849.938 753.973 846.44 748.045C842.942 742.117 840.845 735.067 841.105 728.334C841.364 721.601 843.985 715.192 845.645 711.346C847.304 707.499 848.003 706.217 847.574 705.097C847.145 703.978 845.572 703.016 811.675 688.274C777.777 673.531 711.556 645.01 677.651 631.708C643.747 618.407 642.174 620.33 639.641 622.893C637.108 625.456 633.614 628.66 629.771 631.544C625.928 634.427 621.735 636.991 616.145 639.394C610.556 641.797 603.567 644.041 596.055 645.483C588.544 646.926 580.506 647.567 572.47 647.248C564.434 646.929 556.396 645.647 550.281 643.407C544.165 641.167 539.971 637.963 535.776 633.798C531.582 629.633 527.388 624.506 523.893 619.859C520.398 615.212 517.602 611.046 515.155 606.881C512.708 602.715 510.611 598.549 508.687 592.299C506.763 586.05 505.016 577.718 504.403 570.506C503.79 563.294 504.314 557.205 506.497 550.953C508.681 544.701 512.525 538.292 516.895 533.162C521.264 528.033 526.157 524.187 532.972 519.86C539.788 515.534 548.524 510.727 556.389 507.522C564.255 504.317 571.244 502.715 578.409 501.754C585.574 500.793 592.913 500.473 601.214 501.276C609.514 502.079 618.775 504.001 625.414 506.568C632.053 509.136 636.072 512.34 640.527 516.186C644.982 520.032 649.875 524.519 653.892 529.327C657.909 534.135 661.054 539.262 662.973 543.748C664.892 548.235 665.591 552.08 666.027 556.887C666.463 561.693 666.638 567.462 666.026 570.981C665.414 574.501 664.017 575.783 667.78 578.029C671.544 580.275 680.455 583.479 716.362 600.305C752.269 617.13 815.17 647.574 847.575 661.352C879.979 675.131 881.901 672.247 884.176 670.161C886.45 668.076 889.071 666.794 893.354 665.672C897.638 664.551 903.578 663.59 908.298 663.431C913.018 663.273 916.512 663.914 920.508 665.464C924.503 667.013 928.999 669.467 931.241 670.69C933.482 671.913 933.482 671.913 948.555 642.457L948.555 642.457Z"
       fill="url(#paint0_linear)"
       id="path4" />
    <path
       d="M948.555 642.457C963.627 613 993.773 554.083 1007.25 523.041C1020.72 492 1017.51 488.827 1014.66 484.749C1011.82 480.671 1009.35 475.686 1007.86 468.207C1006.38 460.728 1005.88 450.758 1009.96 441.688C1014.04 432.619 1022.69 424.461 1031.71 420.155C1040.74 415.85 1050.13 415.396 1058.53 416.532C1066.93 417.668 1074.34 420.387 1081.51 423.788C1088.68 427.188 1095.6 431.267 1099.79 436.254C1103.99 441.242 1105.47 447.133 1105.84 452.344C1106.21 457.554 1105.47 462.086 1105.09 465.939C1104.72 469.792 1104.72 472.965 1107.08 475.682C1109.43 478.399 1114.13 480.665 1143.53 501.288C1172.94 521.911 1227.05 560.886 1255.22 579.236C1283.38 597.587 1285.6 595.321 1288.7 593.281C1291.79 591.24 1295.74 589.427 1302.66 588.522C1309.58 587.616 1319.47 587.616 1328.37 588.297C1337.26 588.978 1345.17 590.338 1350.85 592.381C1356.54 594.424 1359.99 597.143 1363.95 600.769C1367.9 604.396 1372.35 608.928 1375.93 614.367C1379.51 619.806 1382.23 626.151 1383.58 631.815C1384.94 637.479 1384.94 642.465 1384.82 647.223C1384.69 651.982 1384.44 656.514 1387.79 660.364C1391.13 664.215 1398.05 667.387 1428.07 683.25C1458.1 699.113 1511.22 727.665 1539.52 742.62C1567.81 757.575 1571.27 758.934 1575.71 757.119C1580.15 755.303 1585.59 750.318 1608.69 731.736C1631.8 713.154 1672.57 680.976 1693.2 661.04C1713.83 641.104 1714.33 633.4 1715.32 626.374C1716.3 619.348 1717.79 613.004 1720.63 606.203C1723.47 599.403 1727.67 592.152 1734.84 586.257C1742.01 580.363 1752.14 575.831 1762.77 573.339C1773.4 570.847 1784.52 570.394 1794.15 571.529C1803.79 572.665 1811.95 575.384 1818.5 578.559C1825.04 581.733 1829.99 585.359 1835.05 590.346C1840.11 595.332 1845.3 601.677 1847.77 608.701C1850.23 615.725 1849.99 623.43 1849.25 630.453C1848.5 637.477 1847.27 643.822 1845.41 649.486C1843.56 655.149 1841.09 660.134 1837.63 664.21C1834.17 668.286 1829.73 671.459 1823.3 675.084C1816.88 678.709 1808.48 682.788 1800.33 684.602C1792.18 686.416 1784.27 685.963 1776.36 685.51C1768.46 685.057 1760.55 684.604 1756.1 683.703C1751.65 682.802 1750.66 681.442 1750.16 681.215C1749.66 680.987 1749.66 681.894 1727.05 700.244C1704.44 718.594 1659.23 754.396 1636.86 773.89C1614.5 793.384 1615 796.557 1617.84 801.316C1620.69 806.074 1625.88 812.419 1650.83 844.371C1675.79 876.323 1720.52 933.879 1744.86 962.652C1769.2 991.425 1773.15 991.425 1778.34 992.56C1783.53 993.696 1789.96 995.962 1794.4 998.911C1798.85 1001.86 1801.32 1005.49 1804.04 1009.11C1806.76 1012.74 1809.72 1016.36 1810.95 1020.67C1812.18 1024.97 1811.69 1029.96 1811.07 1034.49C1810.45 1039.02 1809.71 1043.1 1807.86 1046.95C1806 1050.8 1803.04 1054.42 1799.09 1057.37C1795.14 1060.31 1790.19 1062.58 1785.5 1064.39C1780.81 1066.2 1776.36 1067.56 1771.91 1068.47C1767.47 1069.38 1763.02 1069.83 1758.08 1068.93C1753.14 1068.02 1747.7 1065.76 1743.25 1062.81C1738.8 1059.87 1735.34 1056.24 1732.38 1052.85C1729.41 1049.45 1726.94 1046.27 1726.07 1042.19C1725.2 1038.11 1725.94 1033.13 1726.31 1029.28C1726.68 1025.43 1726.68 1022.71 1699.88 986.903C1673.07 951.1 1619.45 882.213 1590.66 845.956C1561.88 809.699 1557.92 806.073 1549.77 801.086C1541.62 796.099 1529.26 789.754 1499.11 772.759C1468.97 755.763 1421.03 728.118 1395.33 712.711C1369.63 697.303 1366.17 694.13 1363.94 693.447C1361.71 692.765 1360.72 694.577 1359.73 696.39C1358.74 698.203 1357.76 700.016 1356.28 701.146C1354.8 702.276 1352.82 702.729 1350.36 702.731C1347.89 702.733 1344.92 702.28 1343.8 705.004C1342.69 707.728 1343.43 713.619 1343.92 753.955C1344.42 794.291 1344.66 869.069 1346.27 906.909C1347.89 944.749 1350.85 945.655 1355.42 947.015C1360 948.374 1366.17 950.187 1371.73 953.136C1377.29 956.084 1382.23 960.163 1387.05 964.696C1391.87 969.229 1396.56 974.214 1400.14 979.427C1403.73 984.639 1406.2 990.078 1408.67 996.649C1411.14 1003.22 1413.61 1010.93 1414.84 1016.82C1416.07 1022.71 1416.07 1026.79 1415.7 1031.77C1415.33 1036.75 1414.59 1042.65 1413.73 1048.76C1412.86 1054.88 1411.87 1061.23 1410.14 1065.53C1408.41 1069.83 1405.94 1072.1 1406.32 1074.37C1406.7 1076.64 1409.91 1078.9 1425.6 1091.37C1441.29 1103.83 1469.46 1126.49 1486.02 1137.36C1502.57 1148.23 1507.51 1147.33 1514.68 1147.33C1521.85 1147.33 1531.24 1148.24 1540.13 1150.5C1549.03 1152.77 1557.43 1156.4 1564.1 1160.48C1570.77 1164.56 1575.72 1169.09 1579.17 1175.89C1582.63 1182.69 1584.6 1191.75 1585.22 1198.32C1585.83 1204.89 1585.09 1208.97 1584.23 1213.05C1583.36 1217.13 1582.37 1221.21 1580.15 1225.51C1577.93 1229.81 1574.47 1234.35 1569.53 1238.42C1564.59 1242.5 1558.16 1246.13 1552.48 1248.85C1546.8 1251.56 1541.86 1253.38 1536.18 1253.83C1530.5 1254.29 1524.07 1253.38 1517.89 1252.02C1511.72 1250.66 1505.79 1248.85 1501.09 1246.14C1496.39 1243.42 1492.93 1239.79 1489.97 1236.17C1487 1232.54 1484.53 1228.92 1482.55 1224.61C1480.57 1220.31 1479.09 1215.32 1478.59 1210.56C1478.1 1205.8 1478.59 1201.27 1477.85 1197.42C1477.12 1193.57 1475.14 1190.4 1458.34 1175.66C1441.54 1160.93 1409.91 1134.65 1392.86 1121.5C1375.81 1108.35 1373.34 1108.35 1370.37 1108.81C1367.4 1109.26 1363.94 1110.16 1359 1111.98C1354.06 1113.79 1347.63 1116.51 1340.22 1118.55C1332.81 1120.59 1324.41 1121.95 1315.02 1122.63C1305.63 1123.31 1295.25 1123.31 1285.86 1121.5C1276.47 1119.69 1268.07 1116.06 1262.14 1111.99C1256.21 1107.91 1252.75 1103.38 1249.53 1097.94C1246.32 1092.5 1243.36 1086.16 1239.53 1083.43C1235.7 1080.71 1231 1081.61 1192.7 1091.58C1154.4 1101.55 1082.49 1120.59 1045.3 1131.92C1008.11 1143.25 1005.63 1146.88 1002.42 1151.64C999.21 1156.4 995.256 1162.29 990.562 1167.95C985.868 1173.62 980.431 1179.05 974.996 1184.04C969.56 1189.02 964.124 1193.56 957.703 1196.5C951.282 1199.45 943.869 1200.81 935.221 1201.71C926.574 1202.62 916.69 1203.07 908.537 1201.72C900.384 1200.36 893.959 1197.19 886.793 1193.34C879.627 1189.48 871.719 1184.95 865.787 1179.97C859.854 1174.99 855.9 1169.55 853.18 1164.56C850.459 1159.58 848.977 1155.05 847.74 1148.02C846.503 1140.99 845.515 1131.48 846.131 1124.9C846.747 1118.33 848.971 1114.7 834.399 1102.01C819.826 1089.33 788.445 1067.57 771.394 1055.34C754.343 1043.1 751.625 1040.38 747.42 1040.6C743.216 1040.82 737.532 1044 731.23 1048.07C724.928 1052.15 718.01 1057.14 707.141 1060.31C696.273 1063.48 681.447 1064.84 667.611 1063.49C653.774 1062.13 640.925 1058.05 634.746 1056.24C628.568 1054.43 629.062 1054.88 615.769 1074.26C602.477 1093.64 575.411 1131.94 562.844 1152.54C550.277 1173.15 552.199 1176.03 553.857 1179.39C555.515 1182.76 556.913 1186.61 557.609 1190.61C558.306 1194.61 558.306 1198.78 556.995 1203.42C555.683 1208.07 553.062 1213.2 549.83 1218C546.598 1222.81 542.754 1227.29 538.039 1230.98C533.324 1234.66 527.732 1237.55 522.665 1240.11C517.598 1242.67 513.055 1244.92 507.468 1246.04C501.88 1247.16 495.24 1247.16 488.951 1245.24C482.661 1243.32 476.721 1239.48 471.479 1235.95C466.236 1232.43 461.694 1229.22 458.544 1225.06C455.395 1220.89 453.648 1215.77 452.685 1210.96C451.722 1206.15 451.547 1201.67 451.809 1196.7C452.07 1191.73 452.769 1186.28 454.865 1181.15C456.962 1176.02 460.456 1171.21 464.913 1166.4C469.37 1161.6 474.786 1156.79 479.859 1154.71C484.933 1152.63 489.65 1153.27 494.629 1153.26C499.607 1153.26 504.849 1152.62 521.792 1132.75C538.735 1112.89 567.39 1073.79 580.064 1052.64C592.738 1031.5 589.419 1028.29 586.011 1024.77C582.603 1021.24 579.109 1017.4 575.265 1013.55C571.422 1009.71 567.228 1005.86 564.777 1000.25C562.326 994.644 561.627 987.273 561.888 980.542C562.149 973.811 563.372 967.722 563.984 962.756C564.596 957.79 564.596 953.944 563.117 951.059C561.638 948.174 558.668 946.251 531.148 934.552C503.628 922.854 451.56 901.383 424.471 891.606C397.381 881.829 395.284 883.752 392.489 885.995C389.694 888.237 386.2 890.801 381.31 893.044C376.42 895.287 370.13 897.209 364.016 898.492C357.902 899.774 351.961 900.415 346.022 900.576C340.082 900.737 334.141 900.417 329.075 899.138C324.008 897.859 319.815 895.616 315.446 892.573C311.077 889.53 306.534 885.684 302.514 881.839C298.495 877.994 295 874.149 292.376 869.182C289.752 864.215 288.005 858.126 287.129 850.755C286.254 843.383 286.254 834.731 287.214 827.998C288.173 821.266 290.095 816.459 292.979 811.17C295.862 805.881 299.706 800.113 305.125 795.143C310.544 790.174 317.533 786.008 323.126 783.284C328.719 780.559 332.913 779.278 339.03 778.477C345.148 777.677 353.185 777.356 360.875 777.999C368.564 778.642 375.902 780.244 382.193 782.65C388.483 785.056 393.724 788.261 397.915 792.269C402.107 796.276 405.252 801.083 407.96 805.249C410.668 809.416 412.94 812.941 413.896 817.106C414.853 821.27 414.504 826.077 414.329 829.603C414.155 833.128 414.155 835.371 417.219 837.773C420.284 840.174 426.399 842.738 433.301 845.461C440.203 848.185 447.891 851.069 457.85 854.915C467.81 858.761 480.041 863.568 500.659 872.541C521.277 881.515 550.282 894.654 565.301 900.101C580.319 905.549 581.368 903.305 585.387 898.496C589.407 893.687 596.396 886.316 603.212 880.387C610.028 874.457 616.667 869.971 624.707 865.964C632.746 861.958 642.181 858.433 653.017 856.832C663.853 855.231 676.084 855.551 686.918 856.674C697.752 857.797 707.187 859.719 715.225 862.285C723.263 864.851 729.902 868.055 734.096 870.139C738.289 872.222 740.037 873.184 742.038 871.9C744.04 870.616 746.312 867.091 765.271 849.463C784.231 831.835 819.875 800.11 838.395 783.446C856.916 766.783 858.314 765.18 856.572 761.98C854.831 758.78 849.938 753.973 846.44 748.045C842.942 742.117 840.845 735.067 841.105 728.334C841.364 721.601 843.985 715.192 845.645 711.346C847.304 707.499 848.003 706.217 847.574 705.097C847.145 703.978 845.572 703.016 811.675 688.274C777.777 673.531 711.556 645.01 677.651 631.708C643.747 618.407 642.174 620.33 639.641 622.893C637.108 625.456 633.614 628.66 629.771 631.544C625.928 634.427 621.735 636.991 616.145 639.394C610.556 641.797 603.567 644.041 596.055 645.483C588.544 646.926 580.506 647.567 572.47 647.248C564.434 646.929 556.396 645.647 550.281 643.407C544.165 641.167 539.971 637.963 535.776 633.798C531.582 629.633 527.388 624.506 523.893 619.859C520.398 615.212 517.602 611.046 515.155 606.881C512.708 602.715 510.611 598.549 508.687 592.299C506.763 586.05 505.016 577.718 504.403 570.506C503.79 563.294 504.314 557.205 506.497 550.953C508.681 544.701 512.525 538.292 516.895 533.162C521.264 528.033 526.157 524.187 532.972 519.86C539.788 515.534 548.524 510.727 556.389 507.522C564.255 504.317 571.244 502.715 578.409 501.754C585.574 500.793 592.913 500.473 601.214 501.276C609.514 502.079 618.775 504.001 625.414 506.568C632.053 509.136 636.072 512.34 640.527 516.186C644.982 520.032 649.875 524.519 653.892 529.327C657.909 534.135 661.054 539.262 662.973 543.748C664.892 548.235 665.591 552.08 666.027 556.887C666.463 561.693 666.638 567.462 666.026 570.981C665.414 574.501 664.017 575.783 667.78 578.029C671.544 580.275 680.455 583.479 716.362 600.305C752.269 617.13 815.17 647.574 847.575 661.352C879.979 675.131 881.901 672.247 884.176 670.161C886.45 668.076 889.071 666.794 893.354 665.672C897.638 664.551 903.578 663.59 908.298 663.431C913.018 663.273 916.512 663.914 920.508 665.464C924.503 667.013 928.999 669.467 931.241 670.69C933.482 671.913 933.482 671.913 948.555 642.457L948.555 642.457Z"
       stroke="black"
       stroke-width="10"
       id="path6" />
  </g>
  <g
     filter="url(#filter1_i)"
     id="g12">
    <path
       d="M1190.09 1032.91C1223.82 1020.91 1223.82 1015.92 1224.31 1010.71C1224.81 1005.5 1225.79 1000.06 1228.51 994.843C1231.23 989.627 1235.68 984.642 1239.14 981.695C1242.6 978.747 1245.07 977.841 1245.2 976.035C1245.33 974.229 1243.1 971.509 1200.97 935.025C1158.84 898.54 1076.8 828.294 1035.04 793.165C993.282 758.037 991.799 758.037 990.557 758.945C989.315 759.854 988.327 761.666 987.091 764.16C985.855 766.653 984.373 769.825 980.918 772.314C977.462 774.803 972.026 776.616 967.329 778.883C962.632 781.149 958.678 783.868 953.739 786.134C948.799 788.4 942.869 790.213 935.211 790.215C927.554 790.217 918.164 788.404 910.998 785.462C903.831 782.52 898.889 778.441 895.917 777.078C892.945 775.714 891.957 777.074 871.2 796.788C850.444 816.502 809.92 854.57 791.764 875.196C773.608 895.821 777.809 898.994 780.648 901.714C783.488 904.435 784.971 906.701 786.948 909.42C788.925 912.139 791.396 915.312 792.627 920.523C793.859 925.734 793.858 932.985 794.23 938.425C794.602 943.864 795.343 947.49 795.218 952.247C795.093 957.004 794.104 962.895 793.363 968.561C792.622 974.227 792.128 979.665 791.139 983.741C790.15 987.818 788.667 990.537 786.939 992.574C785.212 994.61 783.235 995.97 783.363 997.789C783.491 999.608 785.715 1001.87 802.272 1012.52C818.829 1023.17 849.717 1042.21 867.502 1049.91C885.288 1057.61 889.983 1053.98 895.298 1051.26C900.614 1048.54 906.544 1046.73 912.723 1045.37C918.902 1044.01 925.327 1043.1 932.494 1043.1C939.662 1043.11 947.569 1044.01 954.736 1046.05C961.902 1048.1 968.327 1051.27 974.504 1055.12C980.681 1058.98 986.611 1063.51 991.798 1069.4C996.985 1075.29 1001.43 1082.55 1006.25 1085.03C1011.07 1087.52 1016.26 1085.25 1052.58 1074.6C1088.91 1063.95 1156.37 1044.92 1190.09 1032.91Z"
       fill="#222020"
       id="path10" />
  </g>
  <path
     d="M1190.09 1032.91C1223.82 1020.91 1223.82 1015.92 1224.31 1010.71C1224.81 1005.5 1225.79 1000.06 1228.51 994.843C1231.23 989.627 1235.68 984.642 1239.14 981.695C1242.6 978.747 1245.07 977.841 1245.2 976.035C1245.33 974.229 1243.1 971.509 1200.97 935.025C1158.84 898.54 1076.8 828.294 1035.04 793.165C993.282 758.037 991.799 758.037 990.557 758.945C989.315 759.854 988.327 761.666 987.091 764.16C985.855 766.653 984.373 769.825 980.918 772.314C977.462 774.803 972.026 776.616 967.329 778.883C962.632 781.149 958.678 783.868 953.739 786.134C948.799 788.4 942.869 790.213 935.211 790.215C927.554 790.217 918.164 788.404 910.998 785.462C903.831 782.52 898.889 778.441 895.917 777.078C892.945 775.714 891.957 777.074 871.2 796.788C850.444 816.502 809.92 854.57 791.764 875.196C773.608 895.821 777.809 898.994 780.648 901.714C783.488 904.435 784.971 906.701 786.948 909.42C788.925 912.139 791.396 915.312 792.627 920.523C793.859 925.734 793.858 932.985 794.23 938.425C794.602 943.864 795.343 947.49 795.218 952.247C795.093 957.004 794.104 962.895 793.363 968.561C792.622 974.227 792.128 979.665 791.139 983.741C790.15 987.818 788.667 990.537 786.939 992.574C785.212 994.61 783.235 995.97 783.363 997.789C783.491 999.608 785.715 1001.87 802.272 1012.52C818.829 1023.17 849.717 1042.21 867.502 1049.91C885.288 1057.61 889.983 1053.98 895.298 1051.26C900.614 1048.54 906.544 1046.73 912.723 1045.37C918.902 1044.01 925.327 1043.1 932.494 1043.1C939.662 1043.11 947.569 1044.01 954.736 1046.05C961.902 1048.1 968.327 1051.27 974.504 1055.12C980.681 1058.98 986.611 1063.51 991.798 1069.4C996.985 1075.29 1001.43 1082.55 1006.25 1085.03C1011.07 1087.52 1016.26 1085.25 1052.58 1074.6C1088.91 1063.95 1156.37 1044.92 1190.09 1032.91Z"
     stroke="black"
     stroke-width="10"
     id="path14" />
  <g
     filter="url(#filter2_i)"
     id="g18">
    <path
       d="M1236.51 908.591C1281.67 941.275 1283.25 939.672 1285.26 938.549C1287.27 937.427 1289.72 936.786 1292.34 936.627C1294.97 936.469 1297.76 936.789 1299.07 931.345C1300.37 925.902 1300.2 914.686 1300.2 874.787C1300.2 834.888 1300.37 766.309 1299.5 731.855C1298.64 697.401 1296.72 697.08 1293.66 695.961C1290.6 694.841 1286.41 692.918 1281.86 690.036C1277.32 687.153 1272.43 683.308 1268.23 678.822C1264.04 674.337 1260.54 669.21 1258.44 665.204C1256.34 661.198 1255.64 658.314 1255.29 654.307C1254.94 650.3 1254.94 645.173 1255.38 641.645C1255.82 638.117 1256.69 636.195 1257.48 634.432C1258.26 632.67 1258.96 631.067 1230.93 606.393C1202.89 581.719 1146.1 533.97 1117 511.053C1087.9 488.136 1086.51 490.059 1084.24 491.82C1081.97 493.58 1078.82 495.182 1074.98 495.984C1071.14 496.787 1066.6 496.786 1063.36 499.033C1060.12 501.279 1058.2 505.765 1043.52 535.248C1028.84 564.731 1001.41 619.209 989.539 647.412C977.665 675.614 981.335 677.537 984.39 680.103C987.446 682.669 989.892 685.874 992.512 689.88C995.132 693.886 997.928 698.693 1000.2 703.66C1002.47 708.627 1004.22 713.755 1004.82 718.4C1005.43 723.045 1004.91 727.211 1006.22 731.058C1007.54 734.905 1010.69 738.43 1056.64 773.681C1102.6 808.932 1191.36 875.908 1236.52 908.591H1236.51Z"
       fill="#222020"
       id="path16" />
  </g>
  <path
     d="M1236.51 908.591C1281.67 941.275 1283.25 939.672 1285.26 938.549C1287.27 937.427 1289.72 936.786 1292.34 936.627C1294.97 936.469 1297.76 936.789 1299.07 931.345C1300.37 925.902 1300.2 914.686 1300.2 874.787C1300.2 834.888 1300.37 766.309 1299.5 731.855C1298.64 697.401 1296.72 697.08 1293.66 695.961C1290.6 694.841 1286.41 692.918 1281.86 690.036C1277.32 687.153 1272.43 683.308 1268.23 678.822C1264.04 674.337 1260.54 669.21 1258.44 665.204C1256.34 661.198 1255.64 658.314 1255.29 654.307C1254.94 650.3 1254.94 645.173 1255.38 641.645C1255.82 638.117 1256.69 636.195 1257.48 634.432C1258.26 632.67 1258.96 631.067 1230.93 606.393C1202.89 581.719 1146.1 533.97 1117 511.053C1087.9 488.136 1086.51 490.059 1084.24 491.82C1081.97 493.58 1078.82 495.182 1074.98 495.984C1071.14 496.787 1066.6 496.786 1063.36 499.033C1060.12 501.279 1058.2 505.765 1043.52 535.248C1028.84 564.731 1001.41 619.209 989.539 647.412C977.665 675.614 981.335 677.537 984.39 680.103C987.446 682.669 989.892 685.874 992.512 689.88C995.132 693.886 997.928 698.693 1000.2 703.66C1002.47 708.627 1004.22 713.755 1004.82 718.4C1005.43 723.045 1004.91 727.211 1006.22 731.058C1007.54 734.905 1010.69 738.43 1056.64 773.681C1102.6 808.932 1191.36 875.908 1236.52 908.591H1236.51Z"
     stroke="black"
     stroke-width="10"
     id="path20" />
  <path
     d="M271.048 1359.65L270 1615.38H327.66L326.612 1401.95H498.545C500.467 1403.87 502.399 1405.8 503.443 1408.21C504.486 1410.61 504.661 1413.49 504.748 1417.02C504.835 1420.54 504.835 1424.71 504.835 1430.8C504.835 1436.89 504.835 1444.9 504.572 1450.67C504.309 1456.44 503.785 1459.96 501.952 1462.84C500.118 1465.72 496.973 1467.96 493.304 1470.53C489.635 1473.09 485.442 1475.97 481.951 1477.58C478.46 1479.18 475.665 1479.5 452.688 1479.18C429.712 1478.86 386.543 1477.9 343.386 1476.94L343.91 1532.7L383.224 1531.74L484.916 1611.53L576.124 1617.3L464.997 1535.58C469.54 1535.58 474.094 1535.58 479.684 1535.26C485.275 1534.94 491.915 1534.3 498.814 1532.38C505.713 1530.45 512.877 1527.25 520.214 1523.24C527.552 1519.24 535.065 1514.43 541.791 1508.98C548.516 1503.54 554.457 1497.45 558.039 1485.75C561.621 1474.06 562.844 1456.76 563.281 1442.34C563.718 1427.91 563.369 1416.38 561.624 1406.28C559.879 1396.19 556.733 1387.54 552.719 1381.61C548.704 1375.68 543.812 1372.47 538.395 1369.43C532.979 1366.38 527.038 1363.5 482.393 1361.89C437.748 1360.29 354.394 1359.97 271.048 1359.65Z"
     fill="#148D78"
     stroke="black"
     stroke-width="10"
     id="path22" />
  <path
     d="M600.762 1421.17L655.278 1419.25L657.374 1543.27C659.471 1546.48 661.576 1549.69 664.286 1552.41C666.997 1555.14 670.317 1557.38 673.374 1559.78C676.431 1562.19 679.227 1564.75 697.748 1566.51C716.27 1568.27 750.505 1569.23 784.751 1570.19L785.8 1423.1L842.412 1422.13L846.081 1602.88L833.501 1614.41H663.665C656.85 1611.53 650.049 1608.65 643.409 1605.29C636.769 1601.92 630.304 1598.08 624.974 1594.07C619.644 1590.07 615.45 1585.9 611.167 1579.98C606.885 1574.05 602.517 1566.36 600.766 1539.6C599.015 1512.84 599.889 1467 600.762 1421.17L600.762 1421.17V1421.17Z"
     fill="#148D78"
     stroke="black"
     stroke-width="10"
     id="path24" />
  <path
     d="M955.729 1418.93C980.459 1419.09 1029.91 1419.41 1056.9 1420.22C1083.9 1421.02 1088.44 1422.3 1092.81 1424.07C1097.18 1425.83 1101.37 1428.07 1105.57 1431.44C1109.76 1434.81 1113.95 1439.29 1117.79 1444.26C1121.64 1449.23 1125.13 1454.68 1127.31 1459.96C1129.49 1465.25 1130.37 1470.38 1130.54 1476.79C1130.71 1483.2 1130.19 1490.89 1129.49 1497.62C1128.79 1504.35 1127.92 1510.11 1126.26 1515.4C1124.6 1520.69 1122.15 1525.49 1117.96 1529.82C1113.77 1534.14 1107.83 1537.99 1102.24 1541.67C1096.64 1545.36 1091.4 1548.88 1084.59 1551.28C1077.78 1553.69 1069.39 1554.97 1049.3 1555.13C1029.21 1555.29 997.396 1554.33 965.596 1553.37L965.071 1502.41L1063.62 1503.38C1065.71 1502.09 1067.81 1500.81 1069.73 1499.37C1071.66 1497.93 1073.4 1496.33 1074.54 1492.8C1075.67 1489.28 1076.2 1483.84 1076.11 1479.67C1076.02 1475.51 1075.33 1472.62 1073.24 1469.74C1071.14 1466.85 1067.65 1463.97 1064.68 1462.2C1061.71 1460.44 1059.26 1459.8 1040.74 1459.79C1022.22 1459.79 987.611 1460.43 953.015 1461.07C949.87 1463 946.727 1464.92 944.104 1467.48C941.481 1470.05 939.384 1473.25 937.637 1476.3C935.889 1479.35 934.492 1482.23 933.794 1495.05C933.096 1507.87 933.096 1530.63 933.973 1543.61C934.85 1556.59 936.597 1559.79 938.433 1562.51C940.269 1565.24 942.191 1567.48 944.377 1568.76C946.563 1570.03 949.009 1570.35 967.093 1570.19C985.177 1570.03 1018.89 1569.39 1052.61 1568.75L1054.18 1614.9L930.999 1615.86C926.107 1614.26 921.228 1612.66 916.859 1610.26C912.49 1607.86 908.646 1604.65 905.324 1601.13C902.003 1597.6 899.207 1593.76 896.585 1589.43C893.963 1585.11 891.517 1580.3 889.941 1559.95C888.366 1539.6 887.667 1503.7 886.968 1467.8C889.414 1461.39 891.858 1454.99 895.441 1449.54C899.024 1444.09 903.741 1439.6 909.858 1434.63C915.974 1429.67 923.487 1424.22 927.243 1421.5C930.999 1418.77 930.999 1418.77 955.729 1418.93H955.729Z"
     fill="#148D78"
     stroke="black"
     stroke-width="10"
     id="path26" />
  <path
     d="M1165.31 1336.57L1209.35 1335.61L1210.92 1552.89C1213.54 1556.41 1216.17 1559.95 1218.97 1562.99C1221.76 1566.04 1224.73 1568.6 1243.87 1570.2C1263 1571.79 1298.28 1572.44 1333.58 1573.08C1338.12 1569.87 1342.66 1566.67 1345.98 1562.18C1349.3 1557.7 1351.4 1551.93 1351.92 1537.67C1352.45 1523.41 1351.4 1500.65 1350.35 1477.9L1342.49 1471.17L1231.36 1470.21V1420.21H1351.4C1357.69 1423.42 1363.99 1426.63 1369.58 1430.32C1375.17 1434 1380.07 1438.17 1383.91 1442.82C1387.75 1447.47 1390.55 1452.59 1392.64 1473.74C1394.73 1494.89 1396.13 1532.06 1397.53 1569.23C1396.3 1575 1395.08 1580.78 1392.72 1585.42C1390.36 1590.06 1386.87 1593.59 1382.68 1597.11C1378.48 1600.64 1373.59 1604.16 1369.22 1606.88C1364.86 1609.61 1361.01 1611.53 1333.06 1612.17C1305.11 1612.81 1253.03 1612.17 1200.96 1611.53C1195.72 1608.33 1190.49 1605.13 1185.59 1601.13C1180.7 1597.12 1176.16 1592.32 1172.66 1587.67C1169.16 1583.02 1166.72 1578.54 1165.67 1536.71C1164.62 1494.89 1164.96 1415.73 1165.31 1336.57L1165.31 1336.57L1165.31 1336.57Z"
     fill="#148D78"
     stroke="black"
     stroke-width="10"
     id="path28" />
  <path
     d="M1518.61 1511.07C1518.61 1519.73 1518.61 1537.02 1518.61 1554.33L1623.97 1555.29C1631.66 1552.09 1639.35 1548.88 1646.86 1544.39C1654.37 1539.91 1661.71 1534.14 1667.65 1526.77C1673.59 1519.4 1678.13 1510.43 1680.14 1498.57C1682.15 1486.72 1681.63 1471.98 1677.35 1459.8C1673.08 1447.62 1665.04 1438.01 1657.7 1432.08C1650.36 1426.15 1643.73 1423.9 1615.59 1422.62C1587.46 1421.34 1537.84 1421.02 1509 1423.26C1480.17 1425.5 1472.13 1430.31 1464.79 1436.4C1457.45 1442.49 1450.81 1449.86 1446.44 1457.39C1442.07 1464.93 1439.98 1472.62 1439.19 1480.31C1438.41 1488 1438.93 1495.69 1439.28 1505.31C1439.63 1514.92 1439.8 1526.46 1439.89 1536.39C1439.98 1546.33 1439.98 1554.66 1440.07 1561.87C1440.16 1569.08 1440.33 1575.17 1442.34 1580.46C1444.36 1585.75 1448.2 1590.23 1453.27 1595.2C1458.34 1600.17 1464.63 1605.61 1470.04 1609.46C1475.46 1613.3 1480.01 1615.54 1502.98 1616.5C1525.96 1617.46 1567.36 1617.14 1608.77 1616.82L1607.72 1574.52H1502.88C1499.39 1573.24 1495.91 1571.96 1493.45 1568.76C1491 1565.56 1489.61 1560.43 1488.99 1545.85C1488.38 1531.26 1488.55 1507.23 1490.91 1492C1493.27 1476.78 1497.81 1470.37 1501.49 1466.84C1505.16 1463.31 1507.96 1462.67 1526.39 1462.51C1544.83 1462.35 1578.9 1462.67 1597.42 1463.48C1615.94 1464.28 1618.91 1465.57 1621.8 1468.29C1624.68 1471.02 1627.47 1475.19 1628.6 1479.83C1629.73 1484.48 1629.21 1489.6 1628.07 1493.45C1626.94 1497.29 1625.19 1499.85 1606.85 1501.13C1588.51 1502.41 1553.56 1502.41 1536.09 1502.41C1518.61 1502.41 1518.61 1502.41 1518.61 1511.07L1518.61 1511.07Z"
     fill="#148D78"
     stroke="black"
     stroke-width="10"
     id="path30" />
  <path
     d="M1725.69 1426.97L1885.07 1425.61C1891 1429.24 1896.94 1432.87 1902.13 1436.04C1907.32 1439.22 1911.77 1441.93 1916.71 1445.79C1921.65 1449.64 1927.09 1454.63 1931.29 1458.71C1935.49 1462.79 1938.46 1465.96 1940.68 1469.81C1942.9 1473.66 1944.38 1478.2 1945.49 1501.31C1946.6 1524.42 1947.34 1566.11 1948.08 1607.8L1911.02 1609.16L1910.28 1493.59C1905.58 1488.15 1900.9 1482.73 1896.82 1478.87C1892.74 1475.02 1889.28 1472.75 1867.17 1471.84C1845.05 1470.93 1804.27 1471.39 1763.5 1471.84L1764.98 1611.88H1722.72L1725.69 1426.97H1725.69V1426.97Z"
     fill="#148D78"
     stroke="black"
     stroke-width="10"
     id="path32" />
  <defs
     id="defs90">
    <marker
       style="overflow:visible"
       id="Arrow1Lstart"
       refX="0.0"
       refY="0.0"
       orient="auto"
       inkscape:stockid="Arrow1Lstart"
       inkscape:isstock="true">
      <path
         transform="scale(0.8) translate(12.5,0)"
         style="fill-rule:evenodd;fill:context-stroke;stroke:context-stroke;stroke-width:1.0pt"
         d="M 0.0,0.0 L 5.0,-5.0 L -12.5,0.0 L 5.0,5.0 L 0.0,0.0 z "
         id="path10817" />
    </marker>
    <filter
       id="filter0_d"
       x="277.483"
       y="411"
       width="1581.27"
       height="866.951"
       filterUnits="userSpaceOnUse"
       color-interpolation-filters="sRGB">
      <feFlood
         flood-opacity="0"
         result="BackgroundImageFix"
         id="feFlood34" />
      <feColorMatrix
         in="SourceAlpha"
         type="matrix"
         values="0 0 0 0 0 0 0 0 0 0 0 0 0 0 0 0 0 0 127 0"
         id="feColorMatrix36" />
      <feOffset
         dy="15"
         id="feOffset38" />
      <feGaussianBlur
         stdDeviation="2"
         id="feGaussianBlur40" />
      <feColorMatrix
         type="matrix"
         values="0 0 0 0 0 0 0 0 0 0.721569 0 0 0 0 0.596078 0 0 0 0.29 0"
         id="feColorMatrix42" />
      <feBlend
         mode="normal"
         in2="BackgroundImageFix"
         result="effect1_dropShadow"
         id="feBlend44" />
      <feBlend
         mode="normal"
         in="SourceGraphic"
         in2="effect1_dropShadow"
         result="shape"
         id="feBlend46" />
    </filter>
    <filter
       id="filter1_i"
       x="773.104"
       y="753.711"
       width="480.1"
       height="340.239"
       filterUnits="userSpaceOnUse"
       color-interpolation-filters="sRGB">
      <feFlood
         flood-opacity="0"
         result="BackgroundImageFix"
         id="feFlood49" />
      <feBlend
         mode="normal"
         in="SourceGraphic"
         in2="BackgroundImageFix"
         result="shape"
         id="feBlend51" />
      <feColorMatrix
         in="SourceAlpha"
         type="matrix"
         values="0 0 0 0 0 0 0 0 0 0 0 0 0 0 0 0 0 0 127 0"
         result="hardAlpha"
         id="feColorMatrix53" />
      <feOffset
         dx="15"
         dy="15"
         id="feOffset55" />
      <feGaussianBlur
         stdDeviation="1.5"
         id="feGaussianBlur57" />
      <feComposite
         in2="hardAlpha"
         operator="arithmetic"
         k2="-1"
         k3="1"
         id="feComposite59" />
      <feColorMatrix
         type="matrix"
         values="0 0 0 0 0.0941176 0 0 0 0 0.298039 0 0 0 0 0.262745 0 0 0 1 0"
         id="feColorMatrix61" />
      <feBlend
         mode="normal"
         in2="shape"
         result="effect1_innerShadow"
         id="feBlend63" />
    </filter>
    <filter
       id="filter2_i"
       x="976.352"
       y="485.85"
       width="328.859"
       height="458.153"
       filterUnits="userSpaceOnUse"
       color-interpolation-filters="sRGB">
      <feFlood
         flood-opacity="0"
         result="BackgroundImageFix"
         id="feFlood66" />
      <feBlend
         mode="normal"
         in="SourceGraphic"
         in2="BackgroundImageFix"
         result="shape"
         id="feBlend68" />
      <feColorMatrix
         in="SourceAlpha"
         type="matrix"
         values="0 0 0 0 0 0 0 0 0 0 0 0 0 0 0 0 0 0 127 0"
         result="hardAlpha"
         id="feColorMatrix70" />
      <feOffset
         id="feOffset72" />
      <feGaussianBlur
         stdDeviation="1.5"
         id="feGaussianBlur74" />
      <feComposite
         in2="hardAlpha"
         operator="arithmetic"
         k2="-1"
         k3="1"
         id="feComposite76" />
      <feColorMatrix
         type="matrix"
         values="0 0 0 0 0.0941176 0 0 0 0 0.298039 0 0 0 0 0.262745 0 0 0 1 0"
         id="feColorMatrix78" />
      <feBlend
         mode="normal"
         in2="shape"
         result="effect1_innerShadow"
         id="feBlend80" />
    </filter>
    <linearGradient
       id="paint0_linear"
       x1="608.242"
       y1="554.557"
       x2="1780.74"
       y2="1058.06"
       gradientUnits="userSpaceOnUse">
      <stop
         stop-color="#00C1A0"
         id="stop83" />
      <stop
         offset="0.419746"
         stop-color="#004438"
         id="stop85" />
      <stop
         offset="1"
         stop-color="#000605"
         id="stop87" />
    </linearGradient>
  </defs>
  <path
     style="fill:#222020;fill-opacity:1;fill-rule:evenodd;stroke-width:8.24205;stroke-linecap:round;stroke-linejoin:round;stroke-miterlimit:0"
     d="m 1248.1364,909.04575 c -37.5662,-26.7948 -176.332,-131.17367 -211.0286,-158.73457 -22.6491,-17.99103 -24.8877,-20.62085 -26.2594,-30.84779 -1.6445,-12.26017 -10.3981,-30.97831 -18.6756,-39.93452 -5.06224,-5.47732 -5.09858,-6.2928 -0.84811,-19.03476 2.44239,-7.32176 20.10461,-45.35213 39.24941,-84.51193 l 34.8087,-71.19964 11.5213,-3.10235 c 11.0333,-2.97098 12.1105,-2.69378 25.4349,6.54535 15.1839,10.52846 74.1945,59.33158 118.9532,98.37699 l 28.2944,24.68275 v 16.15482 c 0,12.82515 1.3872,18.10638 6.7303,25.6234 8.3393,11.73213 18.1327,20.57018 27.6385,24.94222 6.876,3.16248 7.3598,4.66486 8.9925,27.92497 0.949,13.52047 1.3499,64.96356 0.8908,114.31797 l -0.8347,89.7353 -6.7981,0.68335 c -4.812,0.48372 -15.9342,-5.83313 -38.0695,-21.62156 z"
     id="path7216" />
  <path
     style="fill:#080808;fill-opacity:1;fill-rule:evenodd;stroke-width:8.24205;stroke-linecap:round;stroke-linejoin:round;stroke-miterlimit:0"
     d="m 1256.047,914.57407 c -13.3244,-9.22324 -60.936,-44.30713 -105.8037,-77.9642 -132.7763,-99.60099 -140.0414,-105.72414 -140.0414,-118.02809 0,-7.95045 -7.4745,-24.77575 -17.02842,-38.33156 -4.85452,-6.88795 -5.0856,-8.94031 -2.14313,-19.03476 1.81394,-6.22292 19.31685,-44.04803 38.89545,-84.0558 34.7181,-70.94476 35.8376,-72.80816 45.3264,-75.44406 5.351,-1.48646 11.2404,-2.70947 13.0876,-2.71781 4.182,-0.0189 61.7798,46.05428 118.0346,94.41719 l 42.5348,36.56769 1.0342,18.30401 c 0.8893,15.73736 2.2795,19.87619 9.9144,29.51596 4.8839,6.16658 13.4221,13.97162 18.9737,17.34454 5.5515,3.37292 10.9926,7.42084 12.0914,8.99538 1.0988,1.57453 2.0166,53.33889 2.0395,115.03191 l 0.042,112.16911 h -6.3655 c -3.501,0 -17.2672,-7.54627 -30.5915,-16.76951 z"
     id="path7255" />
  <path
     style="fill:#080808;fill-opacity:1;fill-rule:evenodd;stroke-width:8.24205;stroke-linecap:round;stroke-linejoin:round;stroke-miterlimit:0"
     d="m 996.8669,1066.2127 c -26.42036,-26.9203 -60.15588,-35.3542 -94.66949,-23.6672 -9.30025,3.1492 -18.47772,5.7233 -20.39439,5.7201 -4.641,-0.01 -40.11053,-18.3842 -61.04994,-31.6296 -14.94728,-9.4551 -16.44883,-11.1973 -13.77244,-15.9797 1.65214,-2.95223 3.51217,-18.22573 4.13339,-33.94113 1.06594,-26.96587 0.74694,-29.13139 -5.66989,-38.49024 -11.89126,-17.34319 -11.68073,-19.14525 4.44896,-38.08013 22.5575,-26.48057 95.77924,-94.76378 101.61751,-94.76378 2.83196,0 6.3115,1.07584 7.7323,2.39076 4.16855,3.85787 22.61649,9.03009 32.20793,9.03009 11.06492,0 46.63742,-17.62552 50.63036,-25.08642 3.3677,-6.2926 2.3057,-7.14237 147.8198,118.285 41.6882,35.93358 78.3134,67.34146 81.3895,69.7953 l 5.5928,4.46152 -7.102,8.44025 c -6.9738,8.28782 -8.1035,10.80594 -11.2678,25.11448 -1.8266,8.2598 -10.9235,12.6561 -57.3932,27.7368 -47.0391,15.2654 -141.6156,42.6344 -147.3281,42.6344 -2.8475,0 -10.4639,-5.3867 -16.9253,-11.9705 z"
     id="path9108" />
  <path
     style="fill:#080808;fill-opacity:1;fill-rule:evenodd;stroke-width:8.24205;stroke-linecap:round;stroke-linejoin:round;stroke-miterlimit:0"
     d="M 1.3596257,1017 V 1.3596257 H 1109.4545 2217.5495 V 1017 2032.6404 H 1109.4545 1.3596257 Z M 594.15642,1623.6843 c 0,-0.5876 -24.67865,-19.1942 -54.84146,-41.3479 l -54.84148,-40.2795 12.01328,-3.0943 c 30.63747,-7.8916 61.93026,-31.7552 67.57505,-51.5321 1.7075,-5.9824 3.82971,-23.7255 4.71602,-39.4292 2.75123,-48.7457 -5.47768,-71.894 -29.85572,-83.9852 -12.34749,-6.1243 -17.05626,-6.6097 -84.29287,-8.6911 -39.16813,-1.2126 -97.82947,-2.2705 -130.35852,-2.351 l -59.14371,-0.1465 -0.40789,130.5241 c -0.22434,71.7882 -0.53026,132.0536 -0.67982,133.9231 -0.20155,2.5195 8.69981,3.596 34.39853,4.1602 l 34.67046,0.761 v -107.5315 -107.5316 l 82.25735,0.7197 82.25735,0.7197 0.81203,20.3623 c 1.06385,26.6776 -0.29792,31.0615 -11.87046,38.2137 -9.47528,5.8561 -11.38132,5.9755 -79.54264,4.9833 -65.15065,-0.9484 -69.81955,-0.6973 -69.60816,3.7422 0.12454,2.6172 0.43057,17.6071 0.67981,33.3108 l 0.45322,28.5521 21.0742,0.024 21.0742,0.024 31.27139,24.6513 c 17.19926,13.5582 40.26953,31.5567 51.26727,39.9968 l 19.99588,15.3455 45.26615,3.0832 c 55.00385,3.747 65.66054,4.2049 65.66054,2.8219 z m 990.02988,-1.6509 h 29.6894 v -27.1925 -27.1925 h -57.1896 c -51.9091,0 -57.3701,-0.4394 -59.1438,-4.7587 -1.0747,-2.6173 -1.8604,-20.0545 -1.7459,-38.7493 0.1637,-26.71 1.2492,-36.1749 5.0685,-44.1879 l 4.8604,-10.1972 h 53.8809 c 45.3571,0 54.557,0.6761 58.1541,4.2732 5.4407,5.4406 5.5378,17.1662 0.1594,19.2302 -2.2626,0.8682 -26.43,2.3594 -53.7053,3.3137 l -49.5914,1.7351 -0.765,30.1783 -0.765,30.1784 24.9762,1.7728 c 13.7369,0.9751 38.9873,1.7729 56.112,1.7729 30.5664,0 31.4813,-0.1817 50.0289,-9.9281 10.3913,-5.4604 22.4913,-14.2932 26.889,-19.6284 24.4062,-29.6088 20.1401,-80.9923 -8.6594,-104.3017 -7.9337,-6.4213 -14.0802,-8.5349 -31.2592,-10.7493 -26.6142,-3.4306 -134.0819,-1.0118 -149.8584,3.373 -14.9872,4.1653 -33.9186,20.9852 -41.9306,37.2537 -6.1126,12.4119 -6.3136,14.8807 -5.4649,67.1154 0.6328,38.949 1.9241,56.2464 4.5826,61.3875 4.0316,7.7962 21.5447,24.547 31.6854,30.3062 5.8062,3.2975 71.2812,8.0381 80.6809,5.8415 1.9918,-0.4654 16.9817,-0.8463 33.3108,-0.8463 z m -740.39203,-8.9672 8.69135,-8.9671 -2.0396,-93.6846 -2.0396,-93.6846 -20.39439,-0.86 c -11.21691,-0.4731 -26.81861,-0.079 -34.67045,0.8755 l -14.27607,1.7355 v 72.9654 72.9653 l -10.19719,-1.0111 c -5.60846,-0.556 -26.42936,-1.575 -46.26869,-2.2642 -31.07555,-1.0797 -37.41138,-2.0814 -45.74567,-7.2323 -5.32078,-3.2884 -10.80861,-8.9628 -12.19521,-12.6098 -1.38658,-3.647 -2.52105,-34.0836 -2.52105,-67.637 v -61.0061 h -9.09965 c -5.00478,0 -20.41429,0.8031 -34.24331,1.7847 l -25.1437,1.7848 1.12025,73.6744 c 1.25062,82.2476 1.76929,84.8726 20.32502,102.8636 5.76022,5.5849 19.00689,14.4528 29.43707,19.7062 l 18.96395,9.5519 85.80279,0.01 85.80282,0.01 8.69133,-8.9672 z m 215.56073,-21.2777 c -0.5392,-31.324 -0.073,-32.2979 15.4728,-32.2979 10.0615,0 28.0175,-9.3236 42.4904,-22.0631 14.6433,-12.8897 18.1332,-23.0469 18.5344,-53.9442 0.2377,-18.3053 -0.7125,-23.0089 -6.6996,-33.1649 -9.0376,-15.3305 -19.7529,-25.3598 -33.2947,-31.1633 -9.1544,-3.9232 -23.1628,-4.8606 -88.4531,-5.9192 l -77.57605,-1.2578 -17.59774,13.2529 c -13.35262,10.0559 -19.34231,16.8608 -24.82971,28.2088 l -7.23201,14.9559 2.22147,54.385 c 1.22178,29.9118 3.55993,57.8338 5.19589,62.0488 5.05136,13.015 16.38335,25.6679 28.29109,31.5889 10.73229,5.3364 15.19583,5.6214 77.68031,4.9586 l 66.29375,-0.7032 z m 295.5094,25.0957 c 16.6687,-2.374 34.6321,-14.0539 42.8308,-27.8486 4.8378,-8.1399 5.3558,-13.205 4.6898,-45.8605 -0.9866,-48.3797 -5.0566,-88.0854 -10.0111,-97.6663 -4.8196,-9.3202 -17.4674,-20.3172 -31.7435,-27.6003 -9.685,-4.9409 -15.3389,-5.3025 -72.3769,-4.6287 l -61.8711,0.7309 -0.7689,30.5916 c -0.4229,16.8253 -0.4229,30.7657 0,30.9785 0.4229,0.2129 27.0776,1.1305 59.2328,2.0394 l 58.4639,1.6525 0.7568,37.4363 c 0.7389,36.5491 0.5994,37.5937 -5.8856,44.0787 -6.5528,6.5528 -7.15,6.624 -44.2648,5.2788 -54.3073,-1.9684 -65.8106,-3.4926 -71.8367,-9.5187 -4.9685,-4.9684 -5.2149,-10.4123 -5.2149,-115.1841 0,-65.9962 -1.026,-110.6033 -2.5659,-111.555 -1.4112,-0.8721 -14.3268,-0.7591 -28.7013,0.2513 l -26.1355,1.8371 0.829,123.9939 c 0.8252,123.4155 0.8578,124.0401 6.9895,133.9006 8.8593,14.2464 24.2758,25.0376 38.6663,27.0656 17.366,2.4473 131.778,2.468 148.9173,0.027 z m 415.9307,-68.4594 -1.658,-70.8893 59.5186,0.8686 59.5185,0.8686 8.3307,7.9867 8.3307,7.9867 v 61.0143 61.0143 l 8.4976,-1.6995 c 4.6737,-0.9347 15.8827,-1.6995 24.9087,-1.6995 h 16.411 l -1.7657,-66.6388 c -1.3237,-49.9595 -2.7909,-69.0924 -5.8618,-76.4421 -5.2855,-12.6499 -22.6371,-28.6452 -44.9091,-41.3983 l -17.6751,-10.121 -81.8374,0.9455 -81.8374,0.9455 -1.7796,45.1231 c -0.9788,24.8177 -1.7796,69.4009 -1.7796,99.0738 v 53.9508 h 27.623 27.6229 z m -210.9734,-277.8804 c 30.9687,-16.0316 39.6045,-37.456 30.8887,-76.632 -3.9209,-17.6236 -6.4268,-22.9408 -14.6588,-31.1037 -12.1135,-12.0118 -30.8253,-19.1779 -55.6676,-21.3188 -21.1487,-1.8227 -26.7321,-4.9595 -72.8381,-40.9222 -26.896,-20.9787 -26.9515,-21.0468 -25.2843,-31.0042 5.8212,-34.7677 -3.9619,-78.51848 -22.3652,-100.01862 -10.9111,-12.74717 -31.7243,-27.32429 -39.0135,-27.32429 -3.9329,0 -4.6925,-6.18828 -6.2581,-50.98596 -0.98,-28.04228 -1.7853,-76.18056 -1.7896,-106.97394 l -0.01,-55.988 6.849,-3.12058 c 6.2113,-2.83004 10.3255,-1.03971 44.1878,19.22872 20.5364,12.29213 62.424,36.45464 93.0836,53.69447 l 55.7446,31.34514 29.3254,36.6855 c 39.6498,49.60105 112.873,144.79696 125.1894,162.75596 7.3294,10.6872 9.9999,17.4208 9.9999,25.2139 0,8.6601 2.0584,12.8657 11.0954,22.6697 17.9544,19.4782 39.4574,22.6397 66.138,9.7238 19.2283,-9.3082 24.7496,-19.0686 24.6846,-43.6364 -0.077,-29.1432 -12.0281,-48.14234 -34.5219,-54.88163 -7.4502,-2.23215 -15.4591,-8.38769 -26.2852,-20.20246 -12.9813,-14.16675 -95.2982,-116.99448 -120.7578,-150.84688 l -7.3331,-9.75047 33.2928,-27.40989 c 18.3111,-15.07542 45.3606,-37.14095 60.1101,-49.03447 l 26.8173,-21.6246 24.1511,1.37703 c 27.1314,1.54696 40.0725,-1.90372 59.2564,-15.80051 14.4169,-10.44353 22.0212,-25.87395 23.9215,-48.54048 4.0203,-47.95359 -24.2488,-79.82972 -71.2283,-80.31687 -39.9735,-0.41452 -64.5698,15.0231 -73.3379,46.02988 -2.5375,8.97353 -6.7958,20.59833 -9.4628,25.83289 -5.5665,10.92538 -33.7313,36.51634 -90.6798,82.39299 l -39.8306,32.08684 -10.6237,-4.89433 c -5.8431,-2.69189 -46.1357,-23.82426 -89.5394,-46.96084 l -78.9156,-42.06652 -1.7848,-13.45472 c -0.9817,-7.40009 -3.6089,-17.83807 -5.8382,-23.19552 -5.5013,-13.22013 -24.4946,-32.08433 -36.1903,-35.94428 -12.9051,-4.25906 -51.6553,-4.2351 -59.5256,0.0367 -8.3267,4.51972 -13.739,1.30785 -104.2235,-61.85019 l -72.4176,-50.54729 -1.665,-15.93066 c -2.1151,-20.23604 -8.7507,-29.56919 -27.2422,-38.3171 -28.9677,-13.70389 -52.0796,-11.6477 -69.9506,6.2233 -16.36238,16.36234 -22.52211,53.29953 -12.207,73.19967 l 4.6533,8.97733 -17.30947,35.89031 c -44.87961,93.05545 -59.21836,119.37122 -64.00894,117.47506 -11.07886,-4.38515 -22.87429,-4.41076 -36.6442,-0.0797 l -14.77766,4.64815 -20.10819,-8.09092 c -11.05949,-4.44989 -51.92342,-23.07404 -90.80871,-41.38689 -38.8853,-18.31286 -74.4667,-34.90255 -79.06977,-36.86595 -7.21366,-3.07697 -8.84474,-5.75073 -11.81308,-19.36477 -4.61125,-21.14887 -14.05404,-36.77073 -29.23157,-48.3596 -30.96455,-23.64321 -78.95817,-21.16163 -117.9456,6.09854 -22.09302,15.44753 -28.42719,29.81257 -28.42452,64.46312 0.002,24.2396 0.80022,28.77381 7.1947,40.86135 8.93832,16.89615 27.55573,38.27729 38.05886,43.70867 21.39831,11.0655 65.87,6.17044 88.74698,-9.76847 6.39998,-4.45903 14.12989,-8.10732 17.1776,-8.10732 6.1699,0 65.86535,23.93578 138.77362,55.64334 l 47.94048,20.84915 -2.1053,9.3347 c -2.13774,9.47844 1.03351,29.82543 5.48443,35.18844 1.6092,1.93897 -11.18958,15.13321 -37.53208,38.6918 -21.9857,19.6622 -44.6366,40.53952 -50.33533,46.39399 l -10.36133,10.64453 -18.19081,-6.85784 c -15.39208,-5.80272 -23.00207,-6.89216 -49.4622,-7.08088 -28.57243,-0.20367 -32.62822,0.41279 -46.99198,7.14337 -8.64633,4.05149 -22.8291,14.14671 -31.51724,22.43382 -8.68817,8.28711 -17.37493,15.06746 -19.30391,15.06746 -1.92899,0 -29.96262,-11.0825 -62.29694,-24.62777 -32.33432,-13.54528 -65.51981,-27.36641 -73.74555,-30.71365 -14.24651,-5.79723 -15.11379,-6.71998 -18.28512,-19.45469 -7.10548,-28.5327 -28.21451,-46.03687 -59.40144,-49.25723 -36.18258,-3.73622 -69.06216,16.40818 -78.46585,48.07381 -5.70308,19.20436 -5.63554,54.63308 0.12726,66.77736 5.77447,12.16879 28.51029,32.45193 40.99443,36.57206 14.72972,4.86126 44.8999,1.5125 62.07387,-6.88996 l 14.23077,-6.96245 23.5845,8.32428 c 12.97146,4.57837 47.67427,18.36228 77.11734,30.63098 l 53.53287,22.30667 -0.87954,20.82413 c -0.97665,23.12238 0.90279,28.57758 14.8941,43.23118 l 9.23314,9.6702 -15.3812,22.9608 c -16.62676,24.8201 -48.96893,66.4737 -57.13873,73.5892 -2.7793,2.4206 -10.30045,5.0637 -16.71369,5.8734 -23.07092,2.9131 -38.31708,20.3438 -43.96208,50.2612 -6.47514,34.317 2.52539,53.3323 32.47615,68.612 6.16574,3.1455 16.04644,5.4552 23.33719,5.4552 23.80329,0 54.88852,-21.973 63.88214,-45.1561 1.86633,-4.8108 2.3797,-14.6435 1.32091,-25.299 l -1.73195,-17.4297 33.43105,-50.0288 33.43107,-50.0288 9.51738,1.4369 c 45.6918,6.8984 67.51355,4.6114 90.45595,-9.4799 7.12654,-4.3772 14.31311,-7.9585 15.97019,-7.9585 3.21962,0 23.8514,14.2127 63.80063,43.9504 l 24.74684,18.4212 1.77516,21.0003 c 2.96833,35.1153 14.03066,50.9217 47.51152,67.8868 13.84809,7.0169 18.07399,7.8059 41.2611,7.7038 19.57565,-0.086 28.07706,-1.3093 35.09792,-5.0496 12.16447,-6.4804 34.29131,-27.312 44.01393,-41.4373 7.2372,-10.5144 9.7505,-11.8854 38.4156,-20.9556 32.212,-10.1926 110.6304,-31.7516 161.0346,-44.2722 28.5795,-7.0992 29.8639,-7.193 32.631,-2.3812 7.2654,12.6338 21.9577,25.9238 33.6449,30.4338 18.5141,7.1443 53.1128,6.443 79.684,-1.6152 16.603,-5.0353 21.8701,-5.6625 26.5441,-3.161 7.6291,4.0829 66.3874,52.0699 81.2274,66.337 9.2489,8.8919 11.5568,12.9984 11.5568,20.5631 0,21.6956 20.3951,46.7441 42.0283,51.6175 20.4776,4.6131 30.1801,3.441 48.0381,-5.8035 z"
     id="path9147" />
  <path
     style="fill:#080808;fill-opacity:1;fill-rule:evenodd;stroke-width:8.24205;stroke-linecap:round;stroke-linejoin:round;stroke-miterlimit:0"
     d="m 994.61793,1465.1517 c 2.64574,-0.6895 6.31677,-0.6441 8.15777,0.1007 1.841,0.7449 -0.3237,1.309 -4.81046,1.2536 -4.48676,-0.055 -5.99305,-0.6649 -3.34731,-1.3543 z"
     id="path9239" />
  <path
     style="fill:#080808;fill-opacity:1;fill-rule:evenodd;stroke-width:8.24205;stroke-linecap:round;stroke-linejoin:round;stroke-miterlimit:0"
     d="m 944.59298,1560.4357 c -2.76482,-3.3289 -3.73202,-14.1941 -3.73202,-41.9244 0,-35.871 0.27476,-37.7237 6.59232,-44.4531 l 6.59232,-7.0221 h 53.4896 c 48.3664,0 53.9206,0.4763 57.9899,4.9728 5.2641,5.8168 5.903,17.01 1.2372,21.6759 -2.3125,2.3125 -18.5513,3.2631 -55.7447,3.2631 h -52.4815 v 31.2714 31.2713 l 26.5127,0.3634 c 23.2353,0.3184 24.832,0.6251 12.91644,2.481 -25.15465,3.918 -49.25295,3.0604 -53.37226,-1.8993 z"
     id="path9278" />
  <path
     style="fill:#080808;fill-opacity:1;fill-rule:evenodd;stroke-width:8.24205;stroke-linecap:round;stroke-linejoin:round;stroke-miterlimit:0"
     d="M 1.3596257,993.88636 V 1.3596257 H 1109.4545 2217.5495 V 993.88636 1986.4131 H 1109.4545 1.3596257 Z M 592.79421,1622.0292 c -1.46522,-2.3707 -68.35273,-52.8508 -93.13178,-70.2866 -9.4451,-6.646 -11.40168,-11.2867 -4.75869,-11.2867 2.24339,0 4.07888,-1.1853 4.07888,-2.6339 0,-1.4487 1.80836,-1.94 4.01854,-1.0919 6.38697,2.4509 37.98758,-16.8471 50.07672,-30.5811 10.74551,-12.2075 16.0949,-26.7152 12.91052,-35.0136 -0.86518,-2.2546 -0.38779,-4.0993 1.06083,-4.0993 3.6357,0 3.34011,-55.7676 -0.36753,-69.3409 -3.72584,-13.64 -13.89325,-27.3058 -24.33162,-32.7037 -4.40945,-2.2802 -8.03593,-3.1967 -8.05882,-2.0366 -0.0218,1.1601 -1.20267,0.2738 -2.62169,-1.9696 -2.10543,-3.3286 -10.05389,-4.0789 -43.20879,-4.0789 -22.3458,0 -39.21509,-0.899 -37.48728,-1.9978 1.72782,-1.0988 -39.35308,-2.0165 -91.29087,-2.0394 l -94.43234,-0.042 1.04404,52.3456 c 0.62066,31.1184 0.23903,44.6266 -0.94108,33.3109 -1.20231,-11.5286 -2.17448,20.2478 -2.46531,80.5805 l -0.48019,99.6154 6.11832,1.6396 c 3.36507,0.9018 18.96678,1.6549 34.67045,1.6735 l 28.55214,0.034 0.90149,-106.7224 c 0.4958,-58.6973 1.10763,-106.9111 1.35962,-107.1418 0.25208,-0.2306 36.86212,0.2559 81.35587,1.0812 l 80.89773,1.5005 v 22.8372 c 0,20.8866 -0.58255,23.3771 -6.82037,29.1581 -9.47692,8.7829 -25.74318,10.3535 -84.16184,8.1263 -27.22743,-1.0381 -54.06157,-1.0325 -59.63144,0.014 l -10.12698,1.8999 0.50964,27.4333 c 0.74431,40.0652 -0.13922,38.5457 21.27869,36.5982 l 17.94561,-1.6318 53.42076,41.8246 53.42072,41.8246 33.59532,2.5621 c 48.05722,3.6651 79.12975,3.923 77.10073,0.64 z m 982.03659,0.9443 38.4537,-1.7592 v -26.4218 -26.4218 l -55.6996,-1.2858 c -43.8211,-1.0116 -56.2481,-2.1035 -58.2719,-5.1199 -1.4148,-2.1087 -2.1881,-19.7416 -1.7185,-39.1843 0.672,-27.8263 1.9077,-37.3109 5.8055,-44.5621 l 4.9516,-9.2119 50.7226,1.4364 c 27.8974,0.79 52.7434,2.2667 55.2133,3.2817 5.349,2.1979 7.9527,10.3309 4.8926,15.2823 -2.1592,3.4936 -63.8149,9.2416 -92.6009,8.6329 l -12.517,-0.2645 -0.5084,30.6841 -0.5084,30.6842 10.3062,1.7031 c 18.0447,2.982 104.1203,2.0588 104.1203,-1.1167 0,-1.5839 1.1877,-2.1457 2.6394,-1.2485 3.3407,2.0646 19.1146,-5.9387 19.1146,-9.6984 0,-1.5454 1.321,-1.9934 2.9356,-0.9956 4.7189,2.9165 28.0619,-23.3875 31.7862,-35.8182 3.973,-13.2607 4.4743,-44.5334 0.7138,-44.5334 -1.4486,0 -1.975,-1.7169 -1.1698,-3.8152 3.7058,-9.6573 -24.2895,-44.7352 -33.0269,-41.3824 -1.9837,0.7612 -4.0928,-0.077 -4.6869,-1.8623 -0.801,-2.4071 -18.5956,-3.1941 -68.8368,-3.0445 -89.1187,0.2654 -89.49,0.2876 -102.6463,6.1451 -19.0257,8.4706 -42.7073,38.1331 -38.7264,48.5071 0.7619,1.9855 0.1998,3.61 -1.2486,3.61 -3.8337,0 -3.4463,64.4389 0.4016,66.8171 2.0576,1.2717 2.4426,7.8932 1.1949,20.5548 -1.2006,12.1849 -0.8676,18.6789 0.958,18.6789 1.5393,0 2.1719,1.633 1.406,3.629 -1.4706,3.8324 15.4359,22.775 27.216,30.4936 4.3569,2.8548 13.6076,4.8023 24.682,5.1962 9.7423,0.3466 18.514,1.431 19.4927,2.4097 2.2285,2.2284 16.4554,2.2285 65.1598,3e-4 z m -729.97224,-8.247 7.62673,-7.3068 -0.008,-40.9599 c -0.003,-22.5279 -0.80999,-65.739 -1.79123,-96.0246 l -1.7841,-55.0649 -31.51958,0.042 c -17.33579,0.022 -33.15596,1.0789 -35.15597,2.3466 -2.92429,1.8536 -3.45677,16.3554 -2.71925,74.058 l 0.91812,71.753 -35.35026,-2.1435 c -59.5698,-3.612 -62.82803,-4.1883 -71.96999,-12.7281 -7.78481,-7.2721 -8.24793,-8.8649 -8.24793,-28.3678 0,-11.3646 -1.06298,-20.663 -2.36218,-20.663 -1.29921,0 -1.73747,-19.5786 -0.97393,-43.508 l 1.38826,-43.508 h -27.7387 c -20.04836,0 -27.20826,0.8582 -25.8255,3.0956 1.37516,2.225 -0.9693,2.5549 -8.33649,1.1728 l -10.24967,-1.9229 2.24221,22.6207 c 1.23324,12.4414 2.41453,42.8111 2.62514,67.4883 0.21047,24.6772 0.71334,46.0913 1.11723,47.5869 0.40389,1.4956 0.51133,5.4725 0.23875,8.8376 -0.2726,3.3651 0.88784,6.1183 2.57872,6.1183 1.69089,0 2.27444,1.2943 1.29676,2.8762 -2.00311,3.2411 11.8573,25.699 14.33287,23.2235 0.87549,-0.8755 3.31488,0.8682 5.42086,3.8748 2.10595,3.0067 4.96894,4.7622 6.3622,3.9011 1.39327,-0.861 2.5332,-0.3707 2.5332,1.0897 0,1.4604 6.42424,6.4003 14.27607,10.9775 l 14.27607,8.3222 89.5865,0.06 89.5865,0.06 7.62674,-7.3068 z m 216.81794,-8.3288 c -0.1376,-11.2495 -0.8467,-14.11 -2.5281,-10.1972 -3.2607,7.5881 -3.1983,3.1967 0.2347,-16.5168 3.0265,-17.3798 6.9308,-21.4917 19.3098,-20.3369 8.3257,0.7767 27.8353,-11.0069 40.8546,-24.6758 12.5979,-13.2264 18.2739,-27.1978 14.7645,-36.343 -0.8653,-2.2547 -0.3879,-4.0994 1.0608,-4.0994 1.4486,0 2.6339,-5.5065 2.6339,-12.2366 0,-6.7302 -1.1091,-12.2367 -2.4647,-12.2367 -1.3556,0 -1.8291,-2.4305 -1.0522,-5.4012 3.0872,-11.8056 -31.0816,-50.4113 -39.8315,-45.0036 -1.5834,0.9786 -2.8789,0.3495 -2.8789,-1.398 0,-2.0271 -3.4294,-2.7768 -9.4744,-2.0711 -5.211,0.6084 -9.7997,0.2854 -10.1972,-0.7176 -0.3976,-1.003 -32.8518,-2.3866 -72.12063,-3.0747 l -71.39789,-1.2511 -15.55656,12.5327 c -14.80323,11.9258 -29.38878,29.5032 -26.70683,32.1851 0.68789,0.6879 -0.52653,3.028 -2.6987,5.2001 -2.96409,2.9641 -3.90171,10.8546 -3.75825,31.6275 0.11584,16.7589 1.04988,25.5326 2.36795,22.2396 1.19726,-2.9912 1.55838,5.7923 0.80248,19.5189 -0.75589,13.7266 -0.42836,27.1868 0.72784,29.9118 1.1562,2.7249 1.85586,8.7353 1.55481,13.3565 -0.70021,10.7481 13.55406,29.9945 28.4729,38.4446 10.3418,5.8576 13.36104,6.0908 79.41163,6.1339 l 68.66105,0.045 -0.1911,-15.6357 z m 304.4737,7.9255 c 1.2327,-1.9972 3.0222,-3.5268 3.9767,-3.399 5.4993,0.7359 8.1754,-0.6868 18.0172,-9.5782 15.3154,-13.8366 17.2722,-23.5026 14.9195,-73.7008 -1.0758,-22.956 -3.1007,-41.5743 -4.5214,-41.5743 -1.4153,0 -1.7738,-2.5185 -0.7968,-5.5966 0.9769,-3.0782 0.9302,-11.7484 -0.1039,-19.2672 -2.1755,-15.8179 -12.0234,-28.7734 -31.0703,-40.875 l -12.0892,-7.681 h -64.7296 -64.7297 v 32.631 32.631 h 29.4888 c 16.2188,0 42.5276,0.7978 58.4639,1.7729 l 28.9751,1.7728 v 37.2349 c 0,50.1774 3.1942,47.6133 -56.417,45.2878 -51.315,-2.0019 -59.7115,-3.28 -62.9496,-9.5823 -3.5142,-6.8395 -5.627,-61.9903 -5.6751,-148.137 l -0.044,-78.4491 -23.7935,1.3252 c -35.9304,2.0012 -34.7405,1.3577 -34.2557,18.5232 0.2282,8.0759 0.761,61.5566 1.1841,118.846 0.4232,57.2894 1.602,104.6771 2.6197,105.3061 1.0176,0.6289 1.2725,4.1655 0.5665,7.8591 -1.7016,8.9015 18.1676,30.1718 33.2845,35.6316 15.1697,5.4789 166.2314,4.6055 169.6796,-0.9811 z m 406.0304,-65.7682 -1.3544,-70.7592 58.1671,1.824 c 57.4302,1.8008 58.2748,1.9135 66.6623,8.8962 4.6724,3.8897 9.2903,10.7363 10.2621,15.2146 0.9718,4.4783 0.9462,32.0114 -0.057,61.1848 l -1.8238,53.0424 13.9955,-0.9439 c 7.6975,-0.5191 13.9955,-2.026 13.9955,-3.3486 0,-1.3227 5.3584,-1.6704 11.9077,-0.7727 l 11.9076,1.6321 -1.4043,-55.3894 c -0.7723,-30.4641 -2.412,-55.7813 -3.6437,-56.2603 -1.2316,-0.4791 -1.5311,-4.4127 -0.6653,-8.7414 2.5625,-12.8123 -1.2607,-25.5043 -11.1698,-37.0808 -9.3908,-10.9711 -34.8044,-29.8421 -42.2177,-31.3491 -2.2078,-0.4488 -5.6603,-2.3456 -7.6722,-4.2151 -2.7173,-2.5249 -18.1193,-3.2783 -59.8883,-2.9297 -39.1983,0.3272 -50.8765,1.0532 -38.5551,2.397 9.7213,1.0602 -1.9807,1.3146 -26.0046,0.5654 l -43.6797,-1.3621 1.1534,9.8797 c 0.6344,5.4338 -0.2985,11.6289 -2.0729,13.767 -2.3734,2.8598 -3.0356,26.5727 -2.505,89.6979 l 0.7214,85.8104 h 27.6476 27.6478 z M 264.20866,1395.6557 c -0.75435,-1.8694 -1.37155,-0.3399 -1.37155,3.3991 0,3.739 0.6172,5.2686 1.37155,3.3991 0.75436,-1.8695 0.75436,-4.9287 0,-6.7982 z M 1558.4058,1272.3818 c 28.647,-15.1091 38.3677,-32.3665 35.5041,-63.0315 -0.9395,-10.0603 -2.8811,-18.6825 -4.3146,-19.1603 -1.4337,-0.4779 -1.975,-2.5149 -1.203,-4.5267 1.8003,-4.6916 -4.8052,-17.3998 -13.0415,-25.09 -8.704,-8.1269 -31.5322,-17.9307 -37.884,-16.2696 -2.8428,0.7433 -5.1687,0.4129 -5.1687,-0.7343 0,-1.1473 -6.0525,-2.8028 -13.45,-3.6789 -17.8334,-2.1121 -25.6183,-6.4283 -63.1957,-35.0379 l -31.7782,-24.1942 0.2135,-27.7639 c 0.221,-28.738 -4.1481,-50.268 -14.199,-69.96949 -6.6179,-12.97211 -25.798,-31.35558 -39.8326,-38.17824 l -11.3235,-5.50469 -1.5226,-22.30419 c -0.8373,-12.26731 -2.258,-59.30432 -3.157,-104.52669 l -1.6345,-82.22247 6.8817,-3.13554 c 6.2631,-2.85366 10.8646,-0.82083 51.1904,22.6149 24.3698,14.16273 66.3347,38.24768 93.2553,53.52213 l 48.9465,27.77171 21.9463,27.757 c 58.0383,73.40527 125.7113,161.77637 134.7895,176.01557 2.4046,3.7717 5.2334,11.956 6.2862,18.1874 5.2037,30.8008 38.2439,49.03 69.748,38.482 30.5048,-10.2134 41.8155,-36.1908 31.1655,-71.5781 -4.9224,-16.3559 -12.8099,-24.89019 -30.1334,-32.60429 -17.9994,-8.01502 -33.3855,-25.40461 -124.0252,-140.17472 -11.2208,-14.20809 -22.514,-29.06265 -25.096,-33.01013 l -4.6944,-7.17725 42.9439,-35.19938 c 23.6192,-19.35965 49.9627,-40.90906 58.5412,-47.88759 l 15.5974,-12.68822 h 28.0567 c 24.7315,0 29.7305,-0.83413 42.1803,-7.03815 16.6258,-8.28499 31.0354,-24.05621 35.454,-38.80418 5.8983,-19.68673 2.2631,-62.92772 -5.2902,-62.92772 -1.5135,0 -2.0409,-1.15041 -1.1719,-2.55645 2.6542,-4.29465 -14.1574,-20.9787 -27.8037,-27.5927 -16.9046,-8.19327 -52.7362,-9.02107 -71.8136,-1.65907 -14.2984,5.51771 -36.2203,27.12553 -33.8326,33.34781 0.8229,2.1444 0.5343,3.89891 -0.6412,3.89891 -1.1755,0 -4.3186,7.03607 -6.9846,15.6357 -3.8737,12.49531 -8.2061,18.93118 -21.5707,32.04366 -16.4731,16.16217 -62.7786,55.26731 -96.5045,81.49822 l -17.2381,13.40726 -33.068,-16.7663 c -32.6215,-16.53985 -141.0259,-73.89685 -142.6999,-75.50281 -0.474,-0.45472 -2.5427,-8.86052 -4.5971,-18.67958 -3.4519,-16.49835 -14.9036,-38.91942 -18.1964,-35.62657 -0.7806,0.78057 -4.631,-2.79166 -8.5565,-7.93828 -5.5285,-7.24825 -10.2412,-10.02313 -20.9074,-12.31065 -16.1668,-3.46715 -39.7907,-3.89693 -41.73,-0.75919 -0.7457,1.2067 -6.7888,2.01056 -13.429,1.78633 -9.5067,-0.321 -16.3334,-3.22919 -32.1153,-13.68115 -22.9325,-15.18756 -135.7073,-93.36818 -139.4508,-96.67357 -1.3644,-1.20471 -3.4299,-9.18501 -4.59,-17.73403 -1.1601,-8.54903 -4.4222,-18.69042 -7.2491,-22.53648 -12.6473,-17.20707 -51.0424,-29.09506 -71.8212,-22.23746 -8.4184,2.77834 -30.8683,22.04282 -25.6876,22.04282 1.1481,0 0.094,1.99326 -2.3422,4.4295 -2.4362,2.43623 -3.816,6.02814 -3.0662,7.98206 0.7498,1.95392 0.186,3.94498 -1.2528,4.4246 -5.42422,1.80806 -6.08201,28.31124 -1.0961,44.16274 l 4.8288,15.35216 -33.15948,66.94829 c -41.80232,84.39795 -40.64313,82.72588 -55.90125,80.63453 -6.59783,-0.90434 -18.27745,-0.0285 -26.37775,1.97823 -7.99541,1.98065 -16.37258,3.23107 -18.61597,2.77872 -5.3898,-1.08683 -72.47732,-31.32091 -139.36443,-62.8069 l -53.70801,-25.28216 -2.8011,-11.15717 c -5.03217,-20.0439 -14.35719,-37.07941 -26.3458,-48.13015 -6.47459,-5.96805 -12.96512,-10.11363 -14.42337,-9.21236 -1.45828,0.90127 -2.6514,0.27057 -2.6514,-1.40156 0,-1.67212 -1.22367,-2.28395 -2.71926,-1.35962 -1.49558,0.92433 -2.71925,0.2537 -2.71925,-1.49007 0,-1.74386 -1.83549,-2.46633 -4.07887,-1.60545 -2.24339,0.86086 -4.07888,0.23739 -4.07888,-1.3857 0,-1.68137 -2.92475,-2.39183 -6.79813,-1.65137 -3.73897,0.71475 -6.79813,0.24554 -6.79813,-1.04262 0,-2.682 -22.67605,-3.23297 -25.29442,-0.61458 -0.95019,0.95016 -6.26176,2.13442 -11.80353,2.63172 -13.76714,1.23536 -37.83828,13.45472 -51.7308,26.26041 -11.57316,10.66776 -19.02255,26.0281 -16.19567,33.39483 0.8372,2.18171 0.19089,3.96673 -1.43606,3.96673 -5.00342,0 -1.48939,48.62016 4.32374,59.82353 7.31267,14.09328 26.05329,36.49815 36.68134,43.85339 8.31724,5.75603 12.30821,6.45276 36.96246,6.45276 26.55431,0 28.42855,-0.40046 47.78027,-10.20937 11.07801,-5.61518 22.86322,-10.20391 26.18935,-10.1972 7.37874,0.0136 28.50472,8.29611 115.87684,45.42295 l 67.53935,28.69933 -1.64985,8.79436 c -0.90738,4.83692 -0.23576,15.38827 1.49271,23.44748 l 3.14253,14.65309 -32.32216,30.89698 c -17.77716,16.99333 -39.7938,37.4848 -48.92586,45.53655 l -16.60372,14.63958 -16.0273,-5.7278 c -22.10523,-7.89994 -69.48807,-9.94384 -87.99796,-3.79583 -7.25067,2.40828 -16.38444,7.34565 -20.29726,10.97193 -3.91281,3.62629 -7.84903,6.44805 -8.74717,6.27062 -0.89812,-0.17756 -7.52031,4.74863 -14.71599,10.94684 -7.19569,6.19821 -14.85375,11.26947 -17.01792,11.26947 -4.87774,0 -66.93255,-24.85069 -123.51688,-49.46402 -23.69985,-10.30909 -25.31006,-11.53354 -28.30276,-21.52225 -1.74527,-5.82521 -4.40714,-10.59127 -5.91524,-10.59127 -1.50812,0 -1.97507,-0.76696 -1.03767,-1.70437 2.32684,-2.32686 -4.41106,-14.83553 -11.39657,-21.15732 -3.1443,-2.84554 -5.7169,-4.37223 -5.7169,-3.39265 0,0.97961 -2.36787,-0.58679 -5.26194,-3.48086 -2.89405,-2.89404 -9.93011,-6.55821 -15.6357,-8.14258 -13.00386,-3.611 -41.64514,-3.80157 -41.64514,-0.27706 0,1.44862 -1.71685,1.97507 -3.81525,1.16984 -4.79202,-1.83886 -22.35716,7.16711 -32.21649,16.51802 -14.63999,13.88506 -19.3441,27.34756 -20.54514,58.79736 -1.26646,33.16307 0.50521,38.42484 18.97347,56.3502 17.86333,17.33819 26.37296,20.40304 52.28443,18.83087 14.47947,-0.87853 27.01957,-3.48295 36.59155,-7.59952 l 14.56268,-6.26292 18.06834,6.28229 c 9.93758,3.45527 43.76526,16.86969 75.17261,29.80984 l 57.10428,23.52754 1.35963,24.64337 c 1.30926,23.73063 1.74837,25.11723 11.85566,37.43603 l 10.49604,12.7926 -14.36649,20.9317 c -16.6044,24.1923 -40.468,55.0554 -52.50205,67.9016 -5.33623,5.6964 -11.91611,9.4727 -18.27791,10.49 -27.17424,4.3454 -44.56342,26.5895 -47.7463,61.0767 -2.00931,21.7712 1.73042,34.6421 13.47919,46.3909 29.59943,29.5994 75.3969,22.9746 102.81316,-14.8725 7.53942,-10.4078 8.06516,-12.7025 7.61276,-33.2278 l -0.48593,-22.0478 32.77421,-49.0514 32.77424,-49.0513 15.85155,2.5645 c 8.71835,1.4105 26.25268,2.0675 38.96518,1.4599 19.29097,-0.9219 25.91161,-2.5328 40.03141,-9.7404 9.30479,-4.7498 18.65107,-8.6359 20.76956,-8.6359 3.7031,0 59.98913,39.0373 77.79343,53.9538 7.73572,6.4811 8.90274,9.446 11.27475,28.6441 4.36056,35.293 16.70863,51.7832 50.67983,67.6802 16.08347,7.5263 18.95862,7.9963 42.27718,6.9095 15.72785,-0.733 28.04983,-2.7851 33.17785,-5.5254 9.49954,-5.0764 32.43782,-26.777 43.15083,-40.8226 4.0899,-5.362 12.0999,-11.6152 17.8,-13.896 24.1112,-9.6473 193.7248,-56.1548 204.7977,-56.1548 2.4101,0 11.5324,7.1505 20.2719,15.89 13.0557,13.0557 18.5031,16.5169 30.5396,19.4044 17.1346,4.1105 51.6668,2.1772 72.0453,-4.0336 7.3417,-2.2376 15.9526,-4.0683 19.1353,-4.0683 3.245,0 20.0746,11.4797 38.3171,26.1367 46.0142,36.9702 57.9988,49.1246 59.9105,60.7592 2.4473,14.8941 6.9613,24.8035 15.9752,35.0698 17.7167,20.1782 49.1141,25.4542 73.8474,12.4094 z"
     id="path9483" />
  <path
     style="fill:#080808;fill-opacity:1;fill-rule:evenodd;stroke-width:8.24205;stroke-linecap:round;stroke-linejoin:round;stroke-miterlimit:0"
     d="M 1.3596257,993.88636 V 1.3596257 H 1109.4545 2217.5495 V 993.88636 1986.4131 H 1109.4545 1.3596257 Z M 592.79421,1622.0292 c -1.46522,-2.3707 -68.35273,-52.8508 -93.13178,-70.2866 -9.4451,-6.646 -11.40168,-11.2867 -4.75869,-11.2867 2.24339,0 4.07888,-1.1853 4.07888,-2.6339 0,-1.4487 1.80836,-1.94 4.01854,-1.0919 6.38697,2.4509 37.98758,-16.8471 50.07672,-30.5811 10.74551,-12.2075 16.0949,-26.7152 12.91052,-35.0136 -0.86518,-2.2546 -0.38779,-4.0993 1.06083,-4.0993 3.6357,0 3.34011,-55.7676 -0.36753,-69.3409 -3.72584,-13.64 -13.89325,-27.3058 -24.33162,-32.7037 -4.40945,-2.2802 -8.03593,-3.1967 -8.05882,-2.0366 -0.0218,1.1601 -1.20267,0.2738 -2.62169,-1.9696 -2.10543,-3.3286 -10.05389,-4.0789 -43.20879,-4.0789 -22.3458,0 -39.21509,-0.899 -37.48728,-1.9978 1.72782,-1.0988 -39.35308,-2.0165 -91.29087,-2.0394 l -94.43234,-0.042 1.04404,52.3456 c 0.62066,31.1184 0.23903,44.6266 -0.94108,33.3109 -1.20231,-11.5286 -2.17448,20.2478 -2.46531,80.5805 l -0.48019,99.6154 6.11832,1.6396 c 3.36507,0.9018 18.96678,1.6549 34.67045,1.6735 l 28.55214,0.034 0.90149,-106.7224 c 0.4958,-58.6973 1.10763,-106.9111 1.35962,-107.1418 0.25208,-0.2306 36.86212,0.2559 81.35587,1.0812 l 80.89773,1.5005 v 22.8372 c 0,20.8866 -0.58255,23.3771 -6.82037,29.1581 -9.47692,8.7829 -25.74318,10.3535 -84.16184,8.1263 -27.22743,-1.0381 -54.06157,-1.0325 -59.63144,0.014 l -10.12698,1.8999 0.50964,27.4333 c 0.74431,40.0652 -0.13922,38.5457 21.27869,36.5982 l 17.94561,-1.6318 53.42076,41.8246 53.42072,41.8246 33.59532,2.5621 c 48.05722,3.6651 79.12975,3.923 77.10073,0.64 z m 982.03659,0.9443 38.4537,-1.7592 v -26.4218 -26.4218 l -55.6996,-1.2858 c -43.8211,-1.0116 -56.2481,-2.1035 -58.2719,-5.1199 -1.4148,-2.1087 -2.1881,-19.7416 -1.7185,-39.1843 0.672,-27.8263 1.9077,-37.3109 5.8055,-44.5621 l 4.9516,-9.2119 50.7226,1.4364 c 27.8974,0.79 52.7434,2.2667 55.2133,3.2817 5.349,2.1979 7.9527,10.3309 4.8926,15.2823 -2.1592,3.4936 -63.8149,9.2416 -92.6009,8.6329 l -12.517,-0.2645 -0.5084,30.6841 -0.5084,30.6842 10.3062,1.7031 c 18.0447,2.982 104.1203,2.0588 104.1203,-1.1167 0,-1.5839 1.1877,-2.1457 2.6394,-1.2485 3.3407,2.0646 19.1146,-5.9387 19.1146,-9.6984 0,-1.5454 1.321,-1.9934 2.9356,-0.9956 4.7189,2.9165 28.0619,-23.3875 31.7862,-35.8182 3.973,-13.2607 4.4743,-44.5334 0.7138,-44.5334 -1.4486,0 -1.975,-1.7169 -1.1698,-3.8152 3.7058,-9.6573 -24.2895,-44.7352 -33.0269,-41.3824 -1.9837,0.7612 -4.0928,-0.077 -4.6869,-1.8623 -0.801,-2.4071 -18.5956,-3.1941 -68.8368,-3.0445 -89.1187,0.2654 -89.49,0.2876 -102.6463,6.1451 -19.0257,8.4706 -42.7073,38.1331 -38.7264,48.5071 0.7619,1.9855 0.1998,3.61 -1.2486,3.61 -3.8337,0 -3.4463,64.4389 0.4016,66.8171 2.0576,1.2717 2.4426,7.8932 1.1949,20.5548 -1.2006,12.1849 -0.8676,18.6789 0.958,18.6789 1.5393,0 2.1719,1.633 1.406,3.629 -1.4706,3.8324 15.4359,22.775 27.216,30.4936 4.3569,2.8548 13.6076,4.8023 24.682,5.1962 9.7423,0.3466 18.514,1.431 19.4927,2.4097 2.2285,2.2284 16.4554,2.2285 65.1598,3e-4 z m -729.97224,-8.247 7.62673,-7.3068 -0.008,-40.9599 c -0.003,-22.5279 -0.80999,-65.739 -1.79123,-96.0246 l -1.7841,-55.0649 -31.51958,0.042 c -17.33579,0.022 -33.15596,1.0789 -35.15597,2.3466 -2.92429,1.8536 -3.45677,16.3554 -2.71925,74.058 l 0.91812,71.753 -35.35026,-2.1435 c -59.5698,-3.612 -62.82803,-4.1883 -71.96999,-12.7281 -7.78481,-7.2721 -8.24793,-8.8649 -8.24793,-28.3678 0,-11.3646 -1.06298,-20.663 -2.36218,-20.663 -1.29921,0 -1.73747,-19.5786 -0.97393,-43.508 l 1.38826,-43.508 h -27.7387 c -20.04836,0 -27.20826,0.8582 -25.8255,3.0956 1.37516,2.225 -0.9693,2.5549 -8.33649,1.1728 l -10.24967,-1.9229 2.24221,22.6207 c 1.23324,12.4414 2.41453,42.8111 2.62514,67.4883 0.21047,24.6772 0.71334,46.0913 1.11723,47.5869 0.40389,1.4956 0.51133,5.4725 0.23875,8.8376 -0.2726,3.3651 0.88784,6.1183 2.57872,6.1183 1.69089,0 2.27444,1.2943 1.29676,2.8762 -2.00311,3.2411 11.8573,25.699 14.33287,23.2235 0.87549,-0.8755 3.31488,0.8682 5.42086,3.8748 2.10595,3.0067 4.96894,4.7622 6.3622,3.9011 1.39327,-0.861 2.5332,-0.3707 2.5332,1.0897 0,1.4604 6.42424,6.4003 14.27607,10.9775 l 14.27607,8.3222 89.5865,0.06 89.5865,0.06 7.62674,-7.3068 z m 216.81794,-8.3288 c -0.1376,-11.2495 -0.8467,-14.11 -2.5281,-10.1972 -3.2607,7.5881 -3.1983,3.1967 0.2347,-16.5168 3.0265,-17.3798 6.9308,-21.4917 19.3098,-20.3369 8.3257,0.7767 27.8353,-11.0069 40.8546,-24.6758 12.5979,-13.2264 18.2739,-27.1978 14.7645,-36.343 -0.8653,-2.2547 -0.3879,-4.0994 1.0608,-4.0994 1.4486,0 2.6339,-5.5065 2.6339,-12.2366 0,-6.7302 -1.1091,-12.2367 -2.4647,-12.2367 -1.3556,0 -1.8291,-2.4305 -1.0522,-5.4012 3.0872,-11.8056 -31.0816,-50.4113 -39.8315,-45.0036 -1.5834,0.9786 -2.8789,0.3495 -2.8789,-1.398 0,-2.0271 -3.4294,-2.7768 -9.4744,-2.0711 -5.211,0.6084 -9.7997,0.2854 -10.1972,-0.7176 -0.3976,-1.003 -32.8518,-2.3866 -72.12063,-3.0747 l -71.39789,-1.2511 -15.55656,12.5327 c -14.80323,11.9258 -29.38878,29.5032 -26.70683,32.1851 0.68789,0.6879 -0.52653,3.028 -2.6987,5.2001 -2.96409,2.9641 -3.90171,10.8546 -3.75825,31.6275 0.11584,16.7589 1.04988,25.5326 2.36795,22.2396 1.19726,-2.9912 1.55838,5.7923 0.80248,19.5189 -0.75589,13.7266 -0.42836,27.1868 0.72784,29.9118 1.1562,2.7249 1.85586,8.7353 1.55481,13.3565 -0.70021,10.7481 13.55406,29.9945 28.4729,38.4446 10.3418,5.8576 13.36104,6.0908 79.41163,6.1339 l 68.66105,0.045 -0.1911,-15.6357 z m 304.4737,7.9255 c 1.2327,-1.9972 3.0222,-3.5268 3.9767,-3.399 5.4993,0.7359 8.1754,-0.6868 18.0172,-9.5782 15.3154,-13.8366 17.2722,-23.5026 14.9195,-73.7008 -1.0758,-22.956 -3.1007,-41.5743 -4.5214,-41.5743 -1.4153,0 -1.7738,-2.5185 -0.7968,-5.5966 0.9769,-3.0782 0.9302,-11.7484 -0.1039,-19.2672 -2.1755,-15.8179 -12.0234,-28.7734 -31.0703,-40.875 l -12.0892,-7.681 h -64.7296 -64.7297 v 32.631 32.631 h 29.4888 c 16.2188,0 42.5276,0.7978 58.4639,1.7729 l 28.9751,1.7728 v 37.2349 c 0,50.1774 3.1942,47.6133 -56.417,45.2878 -51.315,-2.0019 -59.7115,-3.28 -62.9496,-9.5823 -3.5142,-6.8395 -5.627,-61.9903 -5.6751,-148.137 l -0.044,-78.4491 -23.7935,1.3252 c -35.9304,2.0012 -34.7405,1.3577 -34.2557,18.5232 0.2282,8.0759 0.761,61.5566 1.1841,118.846 0.4232,57.2894 1.602,104.6771 2.6197,105.3061 1.0176,0.6289 1.2725,4.1655 0.5665,7.8591 -1.7016,8.9015 18.1676,30.1718 33.2845,35.6316 15.1697,5.4789 166.2314,4.6055 169.6796,-0.9811 z m 406.0304,-65.7682 -1.3544,-70.7592 58.1671,1.824 c 57.4302,1.8008 58.2748,1.9135 66.6623,8.8962 4.6724,3.8897 9.2903,10.7363 10.2621,15.2146 0.9718,4.4783 0.9462,32.0114 -0.057,61.1848 l -1.8238,53.0424 13.9955,-0.9439 c 7.6975,-0.5191 13.9955,-2.026 13.9955,-3.3486 0,-1.3227 5.3584,-1.6704 11.9077,-0.7727 l 11.9076,1.6321 -1.4043,-55.3894 c -0.7723,-30.4641 -2.412,-55.7813 -3.6437,-56.2603 -1.2316,-0.4791 -1.5311,-4.4127 -0.6653,-8.7414 2.5625,-12.8123 -1.2607,-25.5043 -11.1698,-37.0808 -9.3908,-10.9711 -34.8044,-29.8421 -42.2177,-31.3491 -2.2078,-0.4488 -5.6603,-2.3456 -7.6722,-4.2151 -2.7173,-2.5249 -18.1193,-3.2783 -59.8883,-2.9297 -39.1983,0.3272 -50.8765,1.0532 -38.5551,2.397 9.7213,1.0602 -1.9807,1.3146 -26.0046,0.5654 l -43.6797,-1.3621 1.1534,9.8797 c 0.6344,5.4338 -0.2985,11.6289 -2.0729,13.767 -2.3734,2.8598 -3.0356,26.5727 -2.505,89.6979 l 0.7214,85.8104 h 27.6476 27.6478 z M 264.20866,1395.6557 c -0.75435,-1.8694 -1.37155,-0.3399 -1.37155,3.3991 0,3.739 0.6172,5.2686 1.37155,3.3991 0.75436,-1.8695 0.75436,-4.9287 0,-6.7982 z M 1558.4058,1272.3818 c 28.647,-15.1091 38.3677,-32.3665 35.5041,-63.0315 -0.9395,-10.0603 -2.8811,-18.6825 -4.3146,-19.1603 -1.4337,-0.4779 -1.975,-2.5149 -1.203,-4.5267 1.8003,-4.6916 -4.8052,-17.3998 -13.0415,-25.09 -8.704,-8.1269 -31.5322,-17.9307 -37.884,-16.2696 -2.8428,0.7433 -5.1687,0.4129 -5.1687,-0.7343 0,-1.1473 -6.0525,-2.8028 -13.45,-3.6789 -17.8334,-2.1121 -25.6183,-6.4283 -63.1957,-35.0379 l -31.7782,-24.1942 0.2135,-27.7639 c 0.221,-28.738 -4.1481,-50.268 -14.199,-69.96949 -6.6179,-12.97211 -25.798,-31.35558 -39.8326,-38.17824 l -11.3235,-5.50469 -1.5226,-22.30419 c -0.8373,-12.26731 -2.258,-59.30432 -3.157,-104.52669 l -1.6345,-82.22247 6.8817,-3.13554 c 6.2631,-2.85366 10.8646,-0.82083 51.1904,22.6149 24.3698,14.16273 66.3347,38.24768 93.2553,53.52213 l 48.9465,27.77171 21.9463,27.757 c 58.0383,73.40527 125.7113,161.77637 134.7895,176.01557 2.4046,3.7717 5.2334,11.956 6.2862,18.1874 5.2037,30.8008 38.2439,49.03 69.748,38.482 30.5048,-10.2134 41.8155,-36.1908 31.1655,-71.5781 -4.9224,-16.3559 -12.8099,-24.89019 -30.1334,-32.60429 -17.9994,-8.01502 -33.3855,-25.40461 -124.0252,-140.17472 -11.2208,-14.20809 -22.514,-29.06265 -25.096,-33.01013 l -4.6944,-7.17725 42.9439,-35.19938 c 23.6192,-19.35965 49.9627,-40.90906 58.5412,-47.88759 l 15.5974,-12.68822 h 28.0567 c 24.7315,0 29.7305,-0.83413 42.1803,-7.03815 16.6258,-8.28499 31.0354,-24.05621 35.454,-38.80418 5.8983,-19.68673 2.2631,-62.92772 -5.2902,-62.92772 -1.5135,0 -2.0409,-1.15041 -1.1719,-2.55645 2.6542,-4.29465 -14.1574,-20.9787 -27.8037,-27.5927 -16.9046,-8.19327 -52.7362,-9.02107 -71.8136,-1.65907 -14.2984,5.51771 -36.2203,27.12553 -33.8326,33.34781 0.8229,2.1444 0.5343,3.89891 -0.6412,3.89891 -1.1755,0 -4.3186,7.03607 -6.9846,15.6357 -3.8737,12.49531 -8.2061,18.93118 -21.5707,32.04366 -16.4731,16.16217 -62.7786,55.26731 -96.5045,81.49822 l -17.2381,13.40726 -33.068,-16.7663 c -32.6215,-16.53985 -141.0259,-73.89685 -142.6999,-75.50281 -0.474,-0.45472 -2.5427,-8.86052 -4.5971,-18.67958 -3.4519,-16.49835 -14.9036,-38.91942 -18.1964,-35.62657 -0.7806,0.78057 -4.631,-2.79166 -8.5565,-7.93828 -5.5285,-7.24825 -10.2412,-10.02313 -20.9074,-12.31065 -16.1668,-3.46715 -39.7907,-3.89693 -41.73,-0.75919 -0.7457,1.2067 -6.7888,2.01056 -13.429,1.78633 -9.5067,-0.321 -16.3334,-3.22919 -32.1153,-13.68115 -22.9325,-15.18756 -135.7073,-93.36818 -139.4508,-96.67357 -1.3644,-1.20471 -3.4299,-9.18501 -4.59,-17.73403 -1.1601,-8.54903 -4.4222,-18.69042 -7.2491,-22.53648 -12.6473,-17.20707 -51.0424,-29.09506 -71.8212,-22.23746 -8.4184,2.77834 -30.8683,22.04282 -25.6876,22.04282 1.1481,0 0.094,1.99326 -2.3422,4.4295 -2.4362,2.43623 -3.816,6.02814 -3.0662,7.98206 0.7498,1.95392 0.186,3.94498 -1.2528,4.4246 -5.42422,1.80806 -6.08201,28.31124 -1.0961,44.16274 l 4.8288,15.35216 -33.15948,66.94829 c -41.80232,84.39795 -40.64313,82.72588 -55.90125,80.63453 -6.59783,-0.90434 -18.27745,-0.0285 -26.37775,1.97823 -7.99541,1.98065 -16.37258,3.23107 -18.61597,2.77872 -5.3898,-1.08683 -72.47732,-31.32091 -139.36443,-62.8069 l -53.70801,-25.28216 -2.8011,-11.15717 c -5.03217,-20.0439 -14.35719,-37.07941 -26.3458,-48.13015 -6.47459,-5.96805 -12.96512,-10.11363 -14.42337,-9.21236 -1.45828,0.90127 -2.6514,0.27057 -2.6514,-1.40156 0,-1.67212 -1.22367,-2.28395 -2.71926,-1.35962 -1.49558,0.92433 -2.71925,0.2537 -2.71925,-1.49007 0,-1.74386 -1.83549,-2.46633 -4.07887,-1.60545 -2.24339,0.86086 -4.07888,0.23739 -4.07888,-1.3857 0,-1.68137 -2.92475,-2.39183 -6.79813,-1.65137 -3.73897,0.71475 -6.79813,0.24554 -6.79813,-1.04262 0,-2.682 -22.67605,-3.23297 -25.29442,-0.61458 -0.95019,0.95016 -6.26176,2.13442 -11.80353,2.63172 -13.76714,1.23536 -37.83828,13.45472 -51.7308,26.26041 -11.57316,10.66776 -19.02255,26.0281 -16.19567,33.39483 0.8372,2.18171 0.19089,3.96673 -1.43606,3.96673 -5.00342,0 -1.48939,48.62016 4.32374,59.82353 7.31267,14.09328 26.05329,36.49815 36.68134,43.85339 8.31724,5.75603 12.30821,6.45276 36.96246,6.45276 26.55431,0 28.42855,-0.40046 47.78027,-10.20937 11.07801,-5.61518 22.86322,-10.20391 26.18935,-10.1972 7.37874,0.0136 28.50472,8.29611 115.87684,45.42295 l 67.53935,28.69933 -1.64985,8.79436 c -0.90738,4.83692 -0.23576,15.38827 1.49271,23.44748 l 3.14253,14.65309 -32.32216,30.89698 c -17.77716,16.99333 -39.7938,37.4848 -48.92586,45.53655 l -16.60372,14.63958 -16.0273,-5.7278 c -22.10523,-7.89994 -69.48807,-9.94384 -87.99796,-3.79583 -7.25067,2.40828 -16.38444,7.34565 -20.29726,10.97193 -3.91281,3.62629 -7.84903,6.44805 -8.74717,6.27062 -0.89812,-0.17756 -7.52031,4.74863 -14.71599,10.94684 -7.19569,6.19821 -14.85375,11.26947 -17.01792,11.26947 -4.87774,0 -66.93255,-24.85069 -123.51688,-49.46402 -23.69985,-10.30909 -25.31006,-11.53354 -28.30276,-21.52225 -1.74527,-5.82521 -4.40714,-10.59127 -5.91524,-10.59127 -1.50812,0 -1.97507,-0.76696 -1.03767,-1.70437 2.32684,-2.32686 -4.41106,-14.83553 -11.39657,-21.15732 -3.1443,-2.84554 -5.7169,-4.37223 -5.7169,-3.39265 0,0.97961 -2.36787,-0.58679 -5.26194,-3.48086 -2.89405,-2.89404 -9.93011,-6.55821 -15.6357,-8.14258 -13.00386,-3.611 -41.64514,-3.80157 -41.64514,-0.27706 0,1.44862 -1.71685,1.97507 -3.81525,1.16984 -4.79202,-1.83886 -22.35716,7.16711 -32.21649,16.51802 -14.63999,13.88506 -19.3441,27.34756 -20.54514,58.79736 -1.26646,33.16307 0.50521,38.42484 18.97347,56.3502 17.86333,17.33819 26.37296,20.40304 52.28443,18.83087 14.47947,-0.87853 27.01957,-3.48295 36.59155,-7.59952 l 14.56268,-6.26292 18.06834,6.28229 c 9.93758,3.45527 43.76526,16.86969 75.17261,29.80984 l 57.10428,23.52754 1.35963,24.64337 c 1.30926,23.73063 1.74837,25.11723 11.85566,37.43603 l 10.49604,12.7926 -14.36649,20.9317 c -16.6044,24.1923 -40.468,55.0554 -52.50205,67.9016 -5.33623,5.6964 -11.91611,9.4727 -18.27791,10.49 -27.17424,4.3454 -44.56342,26.5895 -47.7463,61.0767 -2.00931,21.7712 1.73042,34.6421 13.47919,46.3909 29.59943,29.5994 75.3969,22.9746 102.81316,-14.8725 7.53942,-10.4078 8.06516,-12.7025 7.61276,-33.2278 l -0.48593,-22.0478 32.77421,-49.0514 32.77424,-49.0513 15.85155,2.5645 c 8.71835,1.4105 26.25268,2.0675 38.96518,1.4599 19.29097,-0.9219 25.91161,-2.5328 40.03141,-9.7404 9.30479,-4.7498 18.65107,-8.6359 20.76956,-8.6359 3.7031,0 59.98913,39.0373 77.79343,53.9538 7.73572,6.4811 8.90274,9.446 11.27475,28.6441 4.36056,35.293 16.70863,51.7832 50.67983,67.6802 16.08347,7.5263 18.95862,7.9963 42.27718,6.9095 15.72785,-0.733 28.04983,-2.7851 33.17785,-5.5254 9.49954,-5.0764 32.43782,-26.777 43.15083,-40.8226 4.0899,-5.362 12.0999,-11.6152 17.8,-13.896 24.1112,-9.6473 193.7248,-56.1548 204.7977,-56.1548 2.4101,0 11.5324,7.1505 20.2719,15.89 13.0557,13.0557 18.5031,16.5169 30.5396,19.4044 17.1346,4.1105 51.6668,2.1772 72.0453,-4.0336 7.3417,-2.2376 15.9526,-4.0683 19.1353,-4.0683 3.245,0 20.0746,11.4797 38.3171,26.1367 46.0142,36.9702 57.9988,49.1246 59.9105,60.7592 2.4473,14.8941 6.9613,24.8035 15.9752,35.0698 17.7167,20.1782 49.1141,25.4542 73.8474,12.4094 z"
     id="path9522" />
  <path
     style="fill:#080808;fill-opacity:1;fill-rule:evenodd;stroke-width:8.24205;stroke-linecap:round;stroke-linejoin:round;stroke-miterlimit:0"
     d="M 1.3596257,993.88636 V 1.3596257 H 1109.4545 2217.5495 V 993.88636 1986.4131 H 1109.4545 1.3596257 Z M 592.79421,1622.0292 c -1.46522,-2.3707 -68.35273,-52.8508 -93.13178,-70.2866 -9.4451,-6.646 -11.40168,-11.2867 -4.75869,-11.2867 2.24339,0 4.07888,-1.1853 4.07888,-2.6339 0,-1.4487 1.80836,-1.94 4.01854,-1.0919 6.38697,2.4509 37.98758,-16.8471 50.07672,-30.5811 10.74551,-12.2075 16.0949,-26.7152 12.91052,-35.0136 -0.86518,-2.2546 -0.38779,-4.0993 1.06083,-4.0993 3.6357,0 3.34011,-55.7676 -0.36753,-69.3409 -3.72584,-13.64 -13.89325,-27.3058 -24.33162,-32.7037 -4.40945,-2.2802 -8.03593,-3.1967 -8.05882,-2.0366 -0.0218,1.1601 -1.20267,0.2738 -2.62169,-1.9696 -2.10543,-3.3286 -10.05389,-4.0789 -43.20879,-4.0789 -22.3458,0 -39.21509,-0.899 -37.48728,-1.9978 1.72782,-1.0988 -39.35308,-2.0165 -91.29087,-2.0394 l -94.43234,-0.042 1.04404,52.3456 c 0.62066,31.1184 0.23903,44.6266 -0.94108,33.3109 -1.20231,-11.5286 -2.17448,20.2478 -2.46531,80.5805 l -0.48019,99.6154 6.11832,1.6396 c 3.36507,0.9018 18.96678,1.6549 34.67045,1.6735 l 28.55214,0.034 0.90149,-106.7224 c 0.4958,-58.6973 1.10763,-106.9111 1.35962,-107.1418 0.25208,-0.2306 36.86212,0.2559 81.35587,1.0812 l 80.89773,1.5005 v 22.8372 c 0,20.8866 -0.58255,23.3771 -6.82037,29.1581 -9.47692,8.7829 -25.74318,10.3535 -84.16184,8.1263 -27.22743,-1.0381 -54.06157,-1.0325 -59.63144,0.014 l -10.12698,1.8999 0.50964,27.4333 c 0.74431,40.0652 -0.13922,38.5457 21.27869,36.5982 l 17.94561,-1.6318 53.42076,41.8246 53.42072,41.8246 33.59532,2.5621 c 48.05722,3.6651 79.12975,3.923 77.10073,0.64 z m 982.03659,0.9443 38.4537,-1.7592 v -26.4218 -26.4218 l -55.6996,-1.2858 c -43.8211,-1.0116 -56.2481,-2.1035 -58.2719,-5.1199 -1.4148,-2.1087 -2.1881,-19.7416 -1.7185,-39.1843 0.672,-27.8263 1.9077,-37.3109 5.8055,-44.5621 l 4.9516,-9.2119 50.7226,1.4364 c 27.8974,0.79 52.7434,2.2667 55.2133,3.2817 5.349,2.1979 7.9527,10.3309 4.8926,15.2823 -2.1592,3.4936 -63.8149,9.2416 -92.6009,8.6329 l -12.517,-0.2645 -0.5084,30.6841 -0.5084,30.6842 10.3062,1.7031 c 18.0447,2.982 104.1203,2.0588 104.1203,-1.1167 0,-1.5839 1.1877,-2.1457 2.6394,-1.2485 3.3407,2.0646 19.1146,-5.9387 19.1146,-9.6984 0,-1.5454 1.321,-1.9934 2.9356,-0.9956 4.7189,2.9165 28.0619,-23.3875 31.7862,-35.8182 3.973,-13.2607 4.4743,-44.5334 0.7138,-44.5334 -1.4486,0 -1.975,-1.7169 -1.1698,-3.8152 3.7058,-9.6573 -24.2895,-44.7352 -33.0269,-41.3824 -1.9837,0.7612 -4.0928,-0.077 -4.6869,-1.8623 -0.801,-2.4071 -18.5956,-3.1941 -68.8368,-3.0445 -89.1187,0.2654 -89.49,0.2876 -102.6463,6.1451 -19.0257,8.4706 -42.7073,38.1331 -38.7264,48.5071 0.7619,1.9855 0.1998,3.61 -1.2486,3.61 -3.8337,0 -3.4463,64.4389 0.4016,66.8171 2.0576,1.2717 2.4426,7.8932 1.1949,20.5548 -1.2006,12.1849 -0.8676,18.6789 0.958,18.6789 1.5393,0 2.1719,1.633 1.406,3.629 -1.4706,3.8324 15.4359,22.775 27.216,30.4936 4.3569,2.8548 13.6076,4.8023 24.682,5.1962 9.7423,0.3466 18.514,1.431 19.4927,2.4097 2.2285,2.2284 16.4554,2.2285 65.1598,3e-4 z m -729.97224,-8.247 7.62673,-7.3068 -0.008,-40.9599 c -0.003,-22.5279 -0.80999,-65.739 -1.79123,-96.0246 l -1.7841,-55.0649 -31.51958,0.042 c -17.33579,0.022 -33.15596,1.0789 -35.15597,2.3466 -2.92429,1.8536 -3.45677,16.3554 -2.71925,74.058 l 0.91812,71.753 -35.35026,-2.1435 c -59.5698,-3.612 -62.82803,-4.1883 -71.96999,-12.7281 -7.78481,-7.2721 -8.24793,-8.8649 -8.24793,-28.3678 0,-11.3646 -1.06298,-20.663 -2.36218,-20.663 -1.29921,0 -1.73747,-19.5786 -0.97393,-43.508 l 1.38826,-43.508 h -27.7387 c -20.04836,0 -27.20826,0.8582 -25.8255,3.0956 1.37516,2.225 -0.9693,2.5549 -8.33649,1.1728 l -10.24967,-1.9229 2.24221,22.6207 c 1.23324,12.4414 2.41453,42.8111 2.62514,67.4883 0.21047,24.6772 0.71334,46.0913 1.11723,47.5869 0.40389,1.4956 0.51133,5.4725 0.23875,8.8376 -0.2726,3.3651 0.88784,6.1183 2.57872,6.1183 1.69089,0 2.27444,1.2943 1.29676,2.8762 -2.00311,3.2411 11.8573,25.699 14.33287,23.2235 0.87549,-0.8755 3.31488,0.8682 5.42086,3.8748 2.10595,3.0067 4.96894,4.7622 6.3622,3.9011 1.39327,-0.861 2.5332,-0.3707 2.5332,1.0897 0,1.4604 6.42424,6.4003 14.27607,10.9775 l 14.27607,8.3222 89.5865,0.06 89.5865,0.06 7.62674,-7.3068 z m 216.81794,-8.3288 c -0.1376,-11.2495 -0.8467,-14.11 -2.5281,-10.1972 -3.2607,7.5881 -3.1983,3.1967 0.2347,-16.5168 3.0265,-17.3798 6.9308,-21.4917 19.3098,-20.3369 8.3257,0.7767 27.8353,-11.0069 40.8546,-24.6758 12.5979,-13.2264 18.2739,-27.1978 14.7645,-36.343 -0.8653,-2.2547 -0.3879,-4.0994 1.0608,-4.0994 1.4486,0 2.6339,-5.5065 2.6339,-12.2366 0,-6.7302 -1.1091,-12.2367 -2.4647,-12.2367 -1.3556,0 -1.8291,-2.4305 -1.0522,-5.4012 3.0872,-11.8056 -31.0816,-50.4113 -39.8315,-45.0036 -1.5834,0.9786 -2.8789,0.3495 -2.8789,-1.398 0,-2.0271 -3.4294,-2.7768 -9.4744,-2.0711 -5.211,0.6084 -9.7997,0.2854 -10.1972,-0.7176 -0.3976,-1.003 -32.8518,-2.3866 -72.12063,-3.0747 l -71.39789,-1.2511 -15.55656,12.5327 c -14.80323,11.9258 -29.38878,29.5032 -26.70683,32.1851 0.68789,0.6879 -0.52653,3.028 -2.6987,5.2001 -2.96409,2.9641 -3.90171,10.8546 -3.75825,31.6275 0.11584,16.7589 1.04988,25.5326 2.36795,22.2396 1.19726,-2.9912 1.55838,5.7923 0.80248,19.5189 -0.75589,13.7266 -0.42836,27.1868 0.72784,29.9118 1.1562,2.7249 1.85586,8.7353 1.55481,13.3565 -0.70021,10.7481 13.55406,29.9945 28.4729,38.4446 10.3418,5.8576 13.36104,6.0908 79.41163,6.1339 l 68.66105,0.045 -0.1911,-15.6357 z m 304.4737,7.9255 c 1.2327,-1.9972 3.0222,-3.5268 3.9767,-3.399 5.4993,0.7359 8.1754,-0.6868 18.0172,-9.5782 15.3154,-13.8366 17.2722,-23.5026 14.9195,-73.7008 -1.0758,-22.956 -3.1007,-41.5743 -4.5214,-41.5743 -1.4153,0 -1.7738,-2.5185 -0.7968,-5.5966 0.9769,-3.0782 0.9302,-11.7484 -0.1039,-19.2672 -2.1755,-15.8179 -12.0234,-28.7734 -31.0703,-40.875 l -12.0892,-7.681 h -64.7296 -64.7297 v 32.631 32.631 h 29.4888 c 16.2188,0 42.5276,0.7978 58.4639,1.7729 l 28.9751,1.7728 v 37.2349 c 0,50.1774 3.1942,47.6133 -56.417,45.2878 -51.315,-2.0019 -59.7115,-3.28 -62.9496,-9.5823 -3.5142,-6.8395 -5.627,-61.9903 -5.6751,-148.137 l -0.044,-78.4491 -23.7935,1.3252 c -35.9304,2.0012 -34.7405,1.3577 -34.2557,18.5232 0.2282,8.0759 0.761,61.5566 1.1841,118.846 0.4232,57.2894 1.602,104.6771 2.6197,105.3061 1.0176,0.6289 1.2725,4.1655 0.5665,7.8591 -1.7016,8.9015 18.1676,30.1718 33.2845,35.6316 15.1697,5.4789 166.2314,4.6055 169.6796,-0.9811 z m 406.0304,-65.7682 -1.3544,-70.7592 58.1671,1.824 c 57.4302,1.8008 58.2748,1.9135 66.6623,8.8962 4.6724,3.8897 9.2903,10.7363 10.2621,15.2146 0.9718,4.4783 0.9462,32.0114 -0.057,61.1848 l -1.8238,53.0424 13.9955,-0.9439 c 7.6975,-0.5191 13.9955,-2.026 13.9955,-3.3486 0,-1.3227 5.3584,-1.6704 11.9077,-0.7727 l 11.9076,1.6321 -1.4043,-55.3894 c -0.7723,-30.4641 -2.412,-55.7813 -3.6437,-56.2603 -1.2316,-0.4791 -1.5311,-4.4127 -0.6653,-8.7414 2.5625,-12.8123 -1.2607,-25.5043 -11.1698,-37.0808 -9.3908,-10.9711 -34.8044,-29.8421 -42.2177,-31.3491 -2.2078,-0.4488 -5.6603,-2.3456 -7.6722,-4.2151 -2.7173,-2.5249 -18.1193,-3.2783 -59.8883,-2.9297 -39.1983,0.3272 -50.8765,1.0532 -38.5551,2.397 9.7213,1.0602 -1.9807,1.3146 -26.0046,0.5654 l -43.6797,-1.3621 1.1534,9.8797 c 0.6344,5.4338 -0.2985,11.6289 -2.0729,13.767 -2.3734,2.8598 -3.0356,26.5727 -2.505,89.6979 l 0.7214,85.8104 h 27.6476 27.6478 z M 264.20866,1395.6557 c -0.75435,-1.8694 -1.37155,-0.3399 -1.37155,3.3991 0,3.739 0.6172,5.2686 1.37155,3.3991 0.75436,-1.8695 0.75436,-4.9287 0,-6.7982 z M 1558.4058,1272.3818 c 28.647,-15.1091 38.3677,-32.3665 35.5041,-63.0315 -0.9395,-10.0603 -2.8811,-18.6825 -4.3146,-19.1603 -1.4337,-0.4779 -1.975,-2.5149 -1.203,-4.5267 1.8003,-4.6916 -4.8052,-17.3998 -13.0415,-25.09 -8.704,-8.1269 -31.5322,-17.9307 -37.884,-16.2696 -2.8428,0.7433 -5.1687,0.4129 -5.1687,-0.7343 0,-1.1473 -6.0525,-2.8028 -13.45,-3.6789 -17.8334,-2.1121 -25.6183,-6.4283 -63.1957,-35.0379 l -31.7782,-24.1942 0.2135,-27.7639 c 0.221,-28.738 -4.1481,-50.268 -14.199,-69.96949 -6.6179,-12.97211 -25.798,-31.35558 -39.8326,-38.17824 l -11.3235,-5.50469 -1.5226,-22.30419 c -0.8373,-12.26731 -2.258,-59.30432 -3.157,-104.52669 l -1.6345,-82.22247 6.8817,-3.13554 c 6.2631,-2.85366 10.8646,-0.82083 51.1904,22.6149 24.3698,14.16273 66.3347,38.24768 93.2553,53.52213 l 48.9465,27.77171 21.9463,27.757 c 58.0383,73.40527 125.7113,161.77637 134.7895,176.01557 2.4046,3.7717 5.2334,11.956 6.2862,18.1874 5.2037,30.8008 38.2439,49.03 69.748,38.482 30.5048,-10.2134 41.8155,-36.1908 31.1655,-71.5781 -4.9224,-16.3559 -12.8099,-24.89019 -30.1334,-32.60429 -17.9994,-8.01502 -33.3855,-25.40461 -124.0252,-140.17472 -11.2208,-14.20809 -22.514,-29.06265 -25.096,-33.01013 l -4.6944,-7.17725 42.9439,-35.19938 c 23.6192,-19.35965 49.9627,-40.90906 58.5412,-47.88759 l 15.5974,-12.68822 h 28.0567 c 24.7315,0 29.7305,-0.83413 42.1803,-7.03815 16.6258,-8.28499 31.0354,-24.05621 35.454,-38.80418 5.8983,-19.68673 2.2631,-62.92772 -5.2902,-62.92772 -1.5135,0 -2.0409,-1.15041 -1.1719,-2.55645 2.6542,-4.29465 -14.1574,-20.9787 -27.8037,-27.5927 -16.9046,-8.19327 -52.7362,-9.02107 -71.8136,-1.65907 -14.2984,5.51771 -36.2203,27.12553 -33.8326,33.34781 0.8229,2.1444 0.5343,3.89891 -0.6412,3.89891 -1.1755,0 -4.3186,7.03607 -6.9846,15.6357 -3.8737,12.49531 -8.2061,18.93118 -21.5707,32.04366 -16.4731,16.16217 -62.7786,55.26731 -96.5045,81.49822 l -17.2381,13.40726 -33.068,-16.7663 c -32.6215,-16.53985 -141.0259,-73.89685 -142.6999,-75.50281 -0.474,-0.45472 -2.5427,-8.86052 -4.5971,-18.67958 -3.4519,-16.49835 -14.9036,-38.91942 -18.1964,-35.62657 -0.7806,0.78057 -4.631,-2.79166 -8.5565,-7.93828 -5.5285,-7.24825 -10.2412,-10.02313 -20.9074,-12.31065 -16.1668,-3.46715 -39.7907,-3.89693 -41.73,-0.75919 -0.7457,1.2067 -6.7888,2.01056 -13.429,1.78633 -9.5067,-0.321 -16.3334,-3.22919 -32.1153,-13.68115 -22.9325,-15.18756 -135.7073,-93.36818 -139.4508,-96.67357 -1.3644,-1.20471 -3.4299,-9.18501 -4.59,-17.73403 -1.1601,-8.54903 -4.4222,-18.69042 -7.2491,-22.53648 -12.6473,-17.20707 -51.0424,-29.09506 -71.8212,-22.23746 -8.4184,2.77834 -30.8683,22.04282 -25.6876,22.04282 1.1481,0 0.094,1.99326 -2.3422,4.4295 -2.4362,2.43623 -3.816,6.02814 -3.0662,7.98206 0.7498,1.95392 0.186,3.94498 -1.2528,4.4246 -5.42422,1.80806 -6.08201,28.31124 -1.0961,44.16274 l 4.8288,15.35216 -33.15948,66.94829 c -41.80232,84.39795 -40.64313,82.72588 -55.90125,80.63453 -6.59783,-0.90434 -18.27745,-0.0285 -26.37775,1.97823 -7.99541,1.98065 -16.37258,3.23107 -18.61597,2.77872 -5.3898,-1.08683 -72.47732,-31.32091 -139.36443,-62.8069 l -53.70801,-25.28216 -2.8011,-11.15717 c -5.03217,-20.0439 -14.35719,-37.07941 -26.3458,-48.13015 -6.47459,-5.96805 -12.96512,-10.11363 -14.42337,-9.21236 -1.45828,0.90127 -2.6514,0.27057 -2.6514,-1.40156 0,-1.67212 -1.22367,-2.28395 -2.71926,-1.35962 -1.49558,0.92433 -2.71925,0.2537 -2.71925,-1.49007 0,-1.74386 -1.83549,-2.46633 -4.07887,-1.60545 -2.24339,0.86086 -4.07888,0.23739 -4.07888,-1.3857 0,-1.68137 -2.92475,-2.39183 -6.79813,-1.65137 -3.73897,0.71475 -6.79813,0.24554 -6.79813,-1.04262 0,-2.682 -22.67605,-3.23297 -25.29442,-0.61458 -0.95019,0.95016 -6.26176,2.13442 -11.80353,2.63172 -13.76714,1.23536 -37.83828,13.45472 -51.7308,26.26041 -11.57316,10.66776 -19.02255,26.0281 -16.19567,33.39483 0.8372,2.18171 0.19089,3.96673 -1.43606,3.96673 -5.00342,0 -1.48939,48.62016 4.32374,59.82353 7.31267,14.09328 26.05329,36.49815 36.68134,43.85339 8.31724,5.75603 12.30821,6.45276 36.96246,6.45276 26.55431,0 28.42855,-0.40046 47.78027,-10.20937 11.07801,-5.61518 22.86322,-10.20391 26.18935,-10.1972 7.37874,0.0136 28.50472,8.29611 115.87684,45.42295 l 67.53935,28.69933 -1.64985,8.79436 c -0.90738,4.83692 -0.23576,15.38827 1.49271,23.44748 l 3.14253,14.65309 -32.32216,30.89698 c -17.77716,16.99333 -39.7938,37.4848 -48.92586,45.53655 l -16.60372,14.63958 -16.0273,-5.7278 c -22.10523,-7.89994 -69.48807,-9.94384 -87.99796,-3.79583 -7.25067,2.40828 -16.38444,7.34565 -20.29726,10.97193 -3.91281,3.62629 -7.84903,6.44805 -8.74717,6.27062 -0.89812,-0.17756 -7.52031,4.74863 -14.71599,10.94684 -7.19569,6.19821 -14.85375,11.26947 -17.01792,11.26947 -4.87774,0 -66.93255,-24.85069 -123.51688,-49.46402 -23.69985,-10.30909 -25.31006,-11.53354 -28.30276,-21.52225 -1.74527,-5.82521 -4.40714,-10.59127 -5.91524,-10.59127 -1.50812,0 -1.97507,-0.76696 -1.03767,-1.70437 2.32684,-2.32686 -4.41106,-14.83553 -11.39657,-21.15732 -3.1443,-2.84554 -5.7169,-4.37223 -5.7169,-3.39265 0,0.97961 -2.36787,-0.58679 -5.26194,-3.48086 -2.89405,-2.89404 -9.93011,-6.55821 -15.6357,-8.14258 -13.00386,-3.611 -41.64514,-3.80157 -41.64514,-0.27706 0,1.44862 -1.71685,1.97507 -3.81525,1.16984 -4.79202,-1.83886 -22.35716,7.16711 -32.21649,16.51802 -14.63999,13.88506 -19.3441,27.34756 -20.54514,58.79736 -1.26646,33.16307 0.50521,38.42484 18.97347,56.3502 17.86333,17.33819 26.37296,20.40304 52.28443,18.83087 14.47947,-0.87853 27.01957,-3.48295 36.59155,-7.59952 l 14.56268,-6.26292 18.06834,6.28229 c 9.93758,3.45527 43.76526,16.86969 75.17261,29.80984 l 57.10428,23.52754 1.35963,24.64337 c 1.30926,23.73063 1.74837,25.11723 11.85566,37.43603 l 10.49604,12.7926 -14.36649,20.9317 c -16.6044,24.1923 -40.468,55.0554 -52.50205,67.9016 -5.33623,5.6964 -11.91611,9.4727 -18.27791,10.49 -27.17424,4.3454 -44.56342,26.5895 -47.7463,61.0767 -2.00931,21.7712 1.73042,34.6421 13.47919,46.3909 29.59943,29.5994 75.3969,22.9746 102.81316,-14.8725 7.53942,-10.4078 8.06516,-12.7025 7.61276,-33.2278 l -0.48593,-22.0478 32.77421,-49.0514 32.77424,-49.0513 15.85155,2.5645 c 8.71835,1.4105 26.25268,2.0675 38.96518,1.4599 19.29097,-0.9219 25.91161,-2.5328 40.03141,-9.7404 9.30479,-4.7498 18.65107,-8.6359 20.76956,-8.6359 3.7031,0 59.98913,39.0373 77.79343,53.9538 7.73572,6.4811 8.90274,9.446 11.27475,28.6441 4.36056,35.293 16.70863,51.7832 50.67983,67.6802 16.08347,7.5263 18.95862,7.9963 42.27718,6.9095 15.72785,-0.733 28.04983,-2.7851 33.17785,-5.5254 9.49954,-5.0764 32.43782,-26.777 43.15083,-40.8226 4.0899,-5.362 12.0999,-11.6152 17.8,-13.896 24.1112,-9.6473 193.7248,-56.1548 204.7977,-56.1548 2.4101,0 11.5324,7.1505 20.2719,15.89 13.0557,13.0557 18.5031,16.5169 30.5396,19.4044 17.1346,4.1105 51.6668,2.1772 72.0453,-4.0336 7.3417,-2.2376 15.9526,-4.0683 19.1353,-4.0683 3.245,0 20.0746,11.4797 38.3171,26.1367 46.0142,36.9702 57.9988,49.1246 59.9105,60.7592 2.4473,14.8941 6.9613,24.8035 15.9752,35.0698 17.7167,20.1782 49.1141,25.4542 73.8474,12.4094 z"
     id="path9524" />
</svg>
