<?xml version="1.0" encoding="UTF-8" standalone="no"?>
<svg
   width="24"
   height="24"
   fill-rule="evenodd"
   clip-rule="evenodd"
   version="1.1"
   id="svg4763"
   sodipodi:docname="iconmonstr-gmail-4.svg"
   inkscape:version="1.1 (c68e22c387, 2021-05-23)"
   xmlns:inkscape="http://www.inkscape.org/namespaces/inkscape"
   xmlns:sodipodi="http://sodipodi.sourceforge.net/DTD/sodipodi-0.dtd"
   xmlns="http://www.w3.org/2000/svg"
   xmlns:svg="http://www.w3.org/2000/svg">
  <defs
     id="defs4767" />
  <sodipodi:namedview
     id="namedview4765"
     pagecolor="#505050"
     bordercolor="#ffffff"
     borderopacity="1"
     inkscape:pageshadow="0"
     inkscape:pageopacity="0"
     inkscape:pagecheckerboard="1"
     showgrid="false"
     inkscape:zoom="8"
     inkscape:cx="-0.0625"
     inkscape:cy="8.8125"
     inkscape:window-width="1920"
     inkscape:window-height="1017"
     inkscape:window-x="-8"
     inkscape:window-y="-8"
     inkscape:window-maximized="1"
     inkscape:current-layer="svg4763" />
  <path
     d="M12 0c-6.626 0-12 5.372-12 12 0 6.627 5.374 12 12 12 6.627 0 12-5.373 12-12 0-6.628-5.373-12-12-12zm6.001 16.917c.552 0 .999-.448.999-.999v-7.919c0-.551-.448-.999-.999-.999h-12.002c-.551 0-.999.448-.999.999v7.919c0 .551.448.999.999.999h12.002zm-6.001-3.55l-5.45-3.782-.011 6.748h10.899v-6.748l-5.438 3.782zm5.174-5.784c-1.527 1.064-5.174 3.634-5.174 3.634l-5.203-3.634h10.377z"
     id="path4761"
     style="fill:#115c4f;fill-opacity:1;stroke:#000000;stroke-opacity:1;stroke-width:0.5;stroke-miterlimit:4;stroke-dasharray:none" />
</svg>
